<svg width="116" height="20" viewBox="0 0 116 20" fill="none" xmlns="http://www.w3.org/2000/svg">
<path d="M9.89844 11.9395C9.74023 13.293 9.23926 14.3389 8.39551 15.0771C7.55762 15.8096 6.44141 16.1758 5.04688 16.1758C3.53516 16.1758 2.32227 15.6338 1.4082 14.5498C0.5 13.4658 0.0458984 12.0156 0.0458984 10.1992V8.96875C0.0458984 7.7793 0.256836 6.7334 0.678711 5.83105C1.10645 4.92871 1.70996 4.2373 2.48926 3.75684C3.26855 3.27051 4.1709 3.02734 5.19629 3.02734C6.55566 3.02734 7.64551 3.4082 8.46582 4.16992C9.28613 4.92578 9.76367 5.97461 9.89844 7.31641H8.20215C8.05566 6.29688 7.73633 5.55859 7.24414 5.10156C6.75781 4.64453 6.0752 4.41602 5.19629 4.41602C4.11816 4.41602 3.27148 4.81445 2.65625 5.61133C2.04688 6.4082 1.74219 7.54199 1.74219 9.0127V10.252C1.74219 11.6406 2.03223 12.7451 2.6123 13.5654C3.19238 14.3857 4.00391 14.7959 5.04688 14.7959C5.98438 14.7959 6.70215 14.585 7.2002 14.1631C7.7041 13.7354 8.03809 12.9941 8.20215 11.9395H9.89844ZM11.5244 11.1572C11.5244 10.2256 11.7061 9.3877 12.0693 8.64355C12.4385 7.89941 12.9482 7.3252 13.5986 6.9209C14.2549 6.5166 15.002 6.31445 15.8398 6.31445C17.1348 6.31445 18.1807 6.7627 18.9775 7.65918C19.7803 8.55566 20.1816 9.74805 20.1816 11.2363V11.3506C20.1816 12.2764 20.0029 13.1084 19.6455 13.8467C19.2939 14.5791 18.7871 15.1504 18.125 15.5605C17.4688 15.9707 16.7129 16.1758 15.8574 16.1758C14.5684 16.1758 13.5225 15.7275 12.7197 14.8311C11.9229 13.9346 11.5244 12.748 11.5244 11.2715V11.1572ZM13.1592 11.3506C13.1592 12.4053 13.4023 13.252 13.8887 13.8906C14.3809 14.5293 15.0371 14.8486 15.8574 14.8486C16.6836 14.8486 17.3398 14.5264 17.8262 13.8818C18.3125 13.2314 18.5557 12.3232 18.5557 11.1572C18.5557 10.1143 18.3066 9.27051 17.8086 8.62598C17.3164 7.97559 16.6602 7.65039 15.8398 7.65039C15.0371 7.65039 14.3896 7.96973 13.8975 8.6084C13.4053 9.24707 13.1592 10.1611 13.1592 11.3506ZM18.9951 5.22461H17.501L15.7695 3.58984L14.0381 5.22461H12.5527L14.9434 2.92188H16.5957L18.9951 5.22461ZM18.2656 4.01172L18.2568 2.86035C18.6377 2.83691 18.9131 2.78711 19.083 2.71094C19.2588 2.63477 19.3467 2.5 19.3467 2.30664C19.3467 1.91406 18.9336 1.71777 18.1074 1.71777L18.1514 0.90918C18.9014 0.90918 19.4727 1.03809 19.8652 1.2959C20.2578 1.55371 20.4541 1.89648 20.4541 2.32422C20.4541 2.66992 20.3457 2.93945 20.1289 3.13281C19.9121 3.32617 19.6279 3.44336 19.2764 3.48438L19.2676 4.01172H18.2656ZM23.7588 6.49023L23.8115 7.68555C24.5381 6.77148 25.4873 6.31445 26.6592 6.31445C28.6689 6.31445 29.6826 7.44824 29.7002 9.71582V16H28.0742V9.70703C28.0684 9.02148 27.9102 8.51465 27.5996 8.18652C27.2949 7.8584 26.8174 7.69434 26.167 7.69434C25.6396 7.69434 25.1768 7.83496 24.7783 8.11621C24.3799 8.39746 24.0693 8.7666 23.8467 9.22363V16H22.2207V6.49023H23.7588ZM31.7656 11.166C31.7656 9.68359 32.1084 8.50586 32.7939 7.63281C33.4795 6.75391 34.3877 6.31445 35.5186 6.31445C36.6787 6.31445 37.584 6.72461 38.2344 7.54492L38.3135 6.49023H39.7988V15.7715C39.7988 17.002 39.4326 17.9717 38.7002 18.6807C37.9736 19.3896 36.9951 19.7441 35.7646 19.7441C35.0791 19.7441 34.4082 19.5977 33.752 19.3047C33.0957 19.0117 32.5947 18.6104 32.249 18.1006L33.0928 17.125C33.79 17.9863 34.6426 18.417 35.6504 18.417C36.4414 18.417 37.0566 18.1943 37.4961 17.749C37.9414 17.3037 38.1641 16.6768 38.1641 15.8682V15.0508C37.5137 15.8008 36.626 16.1758 35.501 16.1758C34.3877 16.1758 33.4854 15.7275 32.7939 14.8311C32.1084 13.9346 31.7656 12.7129 31.7656 11.166ZM33.4004 11.3506C33.4004 12.4229 33.6201 13.2666 34.0596 13.8818C34.499 14.4912 35.1143 14.7959 35.9053 14.7959C36.9307 14.7959 37.6836 14.3301 38.1641 13.3984V9.05664C37.666 8.14844 36.9189 7.69434 35.9229 7.69434C35.1318 7.69434 34.5137 8.00195 34.0684 8.61719C33.623 9.23242 33.4004 10.1436 33.4004 11.3506ZM48.9307 4.1875V6.49023H50.7061V7.74707H48.9307V13.6445C48.9307 14.0254 49.0098 14.3125 49.168 14.5059C49.3262 14.6934 49.5957 14.7871 49.9766 14.7871C50.1641 14.7871 50.4219 14.752 50.75 14.6816V16C50.3223 16.1172 49.9062 16.1758 49.502 16.1758C48.7754 16.1758 48.2275 15.9561 47.8584 15.5166C47.4893 15.0771 47.3047 14.4531 47.3047 13.6445V7.74707H45.5732V6.49023H47.3047V4.1875H48.9307ZM54.2393 7.6416C54.96 6.75684 55.8975 6.31445 57.0518 6.31445C59.0615 6.31445 60.0752 7.44824 60.0928 9.71582V16H58.4668V9.70703C58.4609 9.02148 58.3027 8.51465 57.9922 8.18652C57.6875 7.8584 57.21 7.69434 56.5596 7.69434C56.0322 7.69434 55.5693 7.83496 55.1709 8.11621C54.7725 8.39746 54.4619 8.7666 54.2393 9.22363V16H52.6133V2.5H54.2393V7.6416ZM62.0967 11.1572C62.0967 10.2256 62.2783 9.3877 62.6416 8.64355C63.0107 7.89941 63.5205 7.3252 64.1709 6.9209C64.8271 6.5166 65.5742 6.31445 66.4121 6.31445C67.707 6.31445 68.7529 6.7627 69.5498 7.65918C70.3525 8.55566 70.7539 9.74805 70.7539 11.2363V11.3506C70.7539 12.2764 70.5752 13.1084 70.2178 13.8467C69.8662 14.5791 69.3594 15.1504 68.6973 15.5605C68.041 15.9707 67.2852 16.1758 66.4297 16.1758C65.1406 16.1758 64.0947 15.7275 63.292 14.8311C62.4951 13.9346 62.0967 12.748 62.0967 11.2715V11.1572ZM63.7314 11.3506C63.7314 12.4053 63.9746 13.252 64.4609 13.8906C64.9531 14.5293 65.6094 14.8486 66.4297 14.8486C67.2559 14.8486 67.9121 14.5264 68.3984 13.8818C68.8848 13.2314 69.1279 12.3232 69.1279 11.1572C69.1279 10.1143 68.8789 9.27051 68.3809 8.62598C67.8887 7.97559 67.2324 7.65039 66.4121 7.65039C65.6094 7.65039 64.9619 7.96973 64.4697 8.6084C63.9775 9.24707 63.7314 10.1611 63.7314 11.3506ZM69.0137 4.9082V4.99609H67.6689L66.3506 3.50195L65.041 4.99609H63.6963V4.89062L65.8584 2.5H66.8428L69.0137 4.9082ZM74.3311 6.49023L74.3838 7.68555C75.1104 6.77148 76.0596 6.31445 77.2314 6.31445C79.2412 6.31445 80.2549 7.44824 80.2725 9.71582V16H78.6465V9.70703C78.6406 9.02148 78.4824 8.51465 78.1719 8.18652C77.8672 7.8584 77.3896 7.69434 76.7393 7.69434C76.2119 7.69434 75.749 7.83496 75.3506 8.11621C74.9521 8.39746 74.6416 8.7666 74.4189 9.22363V16H72.793V6.49023H74.3311ZM82.3379 11.166C82.3379 9.68359 82.6807 8.50586 83.3662 7.63281C84.0518 6.75391 84.96 6.31445 86.0908 6.31445C87.251 6.31445 88.1562 6.72461 88.8066 7.54492L88.8857 6.49023H90.3711V15.7715C90.3711 17.002 90.0049 17.9717 89.2725 18.6807C88.5459 19.3896 87.5674 19.7441 86.3369 19.7441C85.6514 19.7441 84.9805 19.5977 84.3242 19.3047C83.668 19.0117 83.167 18.6104 82.8213 18.1006L83.665 17.125C84.3623 17.9863 85.2148 18.417 86.2227 18.417C87.0137 18.417 87.6289 18.1943 88.0684 17.749C88.5137 17.3037 88.7363 16.6768 88.7363 15.8682V15.0508C88.0859 15.8008 87.1982 16.1758 86.0732 16.1758C84.96 16.1758 84.0576 15.7275 83.3662 14.8311C82.6807 13.9346 82.3379 12.7129 82.3379 11.166ZM83.9727 11.3506C83.9727 12.4229 84.1924 13.2666 84.6318 13.8818C85.0713 14.4912 85.6865 14.7959 86.4775 14.7959C87.5029 14.7959 88.2559 14.3301 88.7363 13.3984V9.05664C88.2383 8.14844 87.4912 7.69434 86.4951 7.69434C85.7041 7.69434 85.0859 8.00195 84.6406 8.61719C84.1953 9.23242 83.9727 10.1436 83.9727 11.3506ZM99.5029 4.1875V6.49023H101.278V7.74707H99.5029V13.6445C99.5029 14.0254 99.582 14.3125 99.7402 14.5059C99.8984 14.6934 100.168 14.7871 100.549 14.7871C100.736 14.7871 100.994 14.752 101.322 14.6816V16C100.895 16.1172 100.479 16.1758 100.074 16.1758C99.3477 16.1758 98.7998 15.9561 98.4307 15.5166C98.0615 15.0771 97.877 14.4531 97.877 13.6445V7.74707H96.1455V6.49023H97.877V4.1875H99.5029ZM104.952 16H103.326V6.49023H104.952V16ZM103.194 3.96777C103.194 3.7041 103.273 3.48145 103.432 3.2998C103.596 3.11816 103.836 3.02734 104.152 3.02734C104.469 3.02734 104.709 3.11816 104.873 3.2998C105.037 3.48145 105.119 3.7041 105.119 3.96777C105.119 4.23145 105.037 4.45117 104.873 4.62695C104.709 4.80273 104.469 4.89062 104.152 4.89062C103.836 4.89062 103.596 4.80273 103.432 4.62695C103.273 4.45117 103.194 4.23145 103.194 3.96777ZM109.101 6.49023L109.153 7.68555C109.88 6.77148 110.829 6.31445 112.001 6.31445C114.011 6.31445 115.024 7.44824 115.042 9.71582V16H113.416V9.70703C113.41 9.02148 113.252 8.51465 112.941 8.18652C112.637 7.8584 112.159 7.69434 111.509 7.69434C110.981 7.69434 110.519 7.83496 110.12 8.11621C109.722 8.39746 109.411 8.7666 109.188 9.22363V16H107.562V6.49023H109.101Z" fill="#8D8D8D"/>
</svg>
