<svg width="380" height="80" viewBox="0 0 380 80" fill="none" xmlns="http://www.w3.org/2000/svg">
<path d="M112.576 63.416C111.664 63.416 110.912 63.24 110.32 62.888C109.728 62.536 109.144 61.936 108.568 61.088L107.248 59.096C106.352 58.904 105.536 58.576 104.8 58.112C104.064 57.648 103.432 57.064 102.904 56.36C102.376 55.64 101.968 54.8 101.68 53.84C101.392 52.88 101.248 51.808 101.248 50.624C101.248 49.232 101.448 48 101.848 46.928C102.248 45.84 102.8 44.936 103.504 44.216C104.208 43.48 105.04 42.92 106 42.536C106.96 42.152 108 41.96 109.12 41.96C110.24 41.96 111.28 42.152 112.24 42.536C113.2 42.92 114.032 43.48 114.736 44.216C115.44 44.936 115.992 45.84 116.392 46.928C116.792 48 116.992 49.232 116.992 50.624C116.992 51.808 116.848 52.872 116.56 53.816C116.272 54.76 115.872 55.592 115.36 56.312C114.848 57.016 114.224 57.6 113.488 58.064C112.768 58.528 111.976 58.864 111.112 59.072L112.72 61.04C112.992 61.392 113.312 61.624 113.68 61.736C114.048 61.864 114.464 61.928 114.928 61.928H115.336V63.416H112.576ZM109.12 57.512C109.616 57.512 110.08 57.432 110.512 57.272C110.944 57.112 111.32 56.864 111.64 56.528C111.976 56.192 112.24 55.76 112.432 55.232C112.624 54.704 112.72 54.072 112.72 53.336V47.912C112.72 47.176 112.624 46.544 112.432 46.016C112.24 45.488 111.976 45.056 111.64 44.72C111.32 44.384 110.944 44.136 110.512 43.976C110.08 43.816 109.616 43.736 109.12 43.736C108.624 43.736 108.16 43.816 107.728 43.976C107.296 44.136 106.912 44.384 106.576 44.72C106.256 45.056 106 45.488 105.808 46.016C105.616 46.544 105.52 47.176 105.52 47.912V53.336C105.52 54.072 105.616 54.704 105.808 55.232C106 55.76 106.256 56.192 106.576 56.528C106.912 56.864 107.296 57.112 107.728 57.272C108.16 57.432 108.624 57.512 109.12 57.512ZM128.05 59.288C126.754 59.288 125.65 59.16 124.738 58.904C123.842 58.648 123.106 58.248 122.53 57.704C121.97 57.16 121.554 56.472 121.282 55.64C121.026 54.792 120.898 53.776 120.898 52.592V43.832H119.218V42.248H126.466V43.832H124.786V52.64C124.786 53.456 124.842 54.16 124.954 54.752C125.082 55.344 125.282 55.84 125.554 56.24C125.842 56.64 126.218 56.936 126.682 57.128C127.162 57.32 127.754 57.416 128.458 57.416C129.866 57.416 130.85 57.04 131.41 56.288C131.986 55.52 132.274 54.328 132.274 52.712V43.832H130.594V42.248H135.826V43.832H134.146V52.664C134.146 54.824 133.666 56.472 132.706 57.608C131.746 58.728 130.194 59.288 128.05 59.288ZM141.096 57.416H142.992V52.304L138.48 43.832H137.28V42.248H144.336V43.832H142.656L145.872 50.12H145.968L149.304 43.832H147.624V42.248H152.592V43.832H151.368L146.88 51.776V57.416H148.776V59H141.096V57.416ZM147.792 40.808C147.424 40.808 147.056 40.736 146.688 40.592C146.32 40.432 145.968 40.264 145.632 40.088C145.296 39.912 144.96 39.744 144.624 39.584C144.288 39.424 143.976 39.344 143.688 39.344C143.432 39.344 143.208 39.392 143.016 39.488C142.84 39.584 142.584 39.848 142.248 40.28L141.336 39.368C141.736 38.68 142.144 38.112 142.56 37.664C142.992 37.2 143.536 36.968 144.192 36.968C144.56 36.968 144.928 37.048 145.296 37.208C145.664 37.352 146.016 37.512 146.352 37.688C146.688 37.864 147.024 38.04 147.36 38.216C147.696 38.376 148.008 38.456 148.296 38.456C148.552 38.456 148.768 38.408 148.944 38.312C149.136 38.216 149.4 37.944 149.736 37.496L150.648 38.408C150.232 39.112 149.816 39.688 149.4 40.136C148.984 40.584 148.448 40.808 147.792 40.808ZM159.765 57.416H161.445V43.832H159.765V42.248H167.013V43.832H165.333V49.52H171.717V43.832H170.037V42.248H177.285V43.832H175.605V57.416H177.285V59H170.037V57.416H171.717V51.248H165.333V57.416H167.013V59H159.765V57.416ZM187.378 57.512C187.874 57.512 188.338 57.432 188.77 57.272C189.202 57.112 189.578 56.864 189.898 56.528C190.234 56.192 190.498 55.76 190.69 55.232C190.882 54.704 190.978 54.072 190.978 53.336V47.912C190.978 47.176 190.882 46.544 190.69 46.016C190.498 45.488 190.234 45.056 189.898 44.72C189.578 44.384 189.202 44.136 188.77 43.976C188.338 43.816 187.874 43.736 187.378 43.736C186.882 43.736 186.418 43.816 185.986 43.976C185.554 44.136 185.17 44.384 184.834 44.72C184.514 45.056 184.258 45.488 184.066 46.016C183.874 46.544 183.778 47.176 183.778 47.912V53.336C183.778 54.072 183.874 54.704 184.066 55.232C184.258 55.76 184.514 56.192 184.834 56.528C185.17 56.864 185.554 57.112 185.986 57.272C186.418 57.432 186.882 57.512 187.378 57.512ZM187.378 59.288C186.258 59.288 185.218 59.096 184.258 58.712C183.298 58.328 182.466 57.776 181.762 57.056C181.058 56.32 180.506 55.416 180.106 54.344C179.706 53.256 179.506 52.016 179.506 50.624C179.506 49.232 179.706 48 180.106 46.928C180.506 45.84 181.058 44.936 181.762 44.216C182.466 43.48 183.298 42.92 184.258 42.536C185.218 42.152 186.258 41.96 187.378 41.96C188.498 41.96 189.538 42.152 190.498 42.536C191.458 42.92 192.29 43.48 192.994 44.216C193.698 44.936 194.25 45.84 194.65 46.928C195.05 48 195.25 49.232 195.25 50.624C195.25 52.016 195.05 53.256 194.65 54.344C194.25 55.416 193.698 56.32 192.994 57.056C192.29 57.776 191.458 58.328 190.498 58.712C189.538 59.096 188.498 59.288 187.378 59.288ZM189.082 36.248C188.714 36.248 188.362 36.168 188.026 36.008C187.69 35.848 187.354 35.688 187.018 35.528C186.682 35.368 186.354 35.2 186.034 35.024C185.73 34.848 185.442 34.76 185.17 34.76C185.042 34.76 184.93 34.776 184.834 34.808C184.738 34.824 184.634 34.872 184.522 34.952C184.426 35.016 184.314 35.128 184.186 35.288C184.058 35.432 183.906 35.624 183.73 35.864L182.818 34.952C183.202 34.296 183.61 33.76 184.042 33.344C184.474 32.912 185.018 32.696 185.674 32.696C186.042 32.696 186.394 32.776 186.73 32.936C187.066 33.096 187.402 33.256 187.738 33.416C188.074 33.576 188.394 33.744 188.698 33.92C189.018 34.096 189.314 34.184 189.586 34.184C189.714 34.184 189.826 34.176 189.922 34.16C190.018 34.128 190.114 34.08 190.21 34.016C190.322 33.936 190.442 33.824 190.57 33.68C190.698 33.52 190.85 33.32 191.026 33.08L191.938 33.992C191.554 34.648 191.146 35.192 190.714 35.624C190.282 36.04 189.738 36.248 189.082 36.248ZM183.154 40.592L186.274 36.776H188.482L191.602 40.592L190.642 41.432L187.378 39.08L184.114 41.432L183.154 40.592ZM206.366 57.416H208.646V43.976H205.526V46.712H202.742V42.248H218.438V46.712H215.654V43.976H212.534V57.416H214.814V59H206.366V57.416ZM220.093 57.416H221.773V43.832H220.093V42.248H229.525C230.261 42.248 230.941 42.328 231.565 42.488C232.189 42.648 232.725 42.904 233.173 43.256C233.637 43.592 233.997 44.032 234.253 44.576C234.509 45.104 234.637 45.744 234.637 46.496C234.637 47.072 234.541 47.6 234.349 48.08C234.157 48.56 233.893 48.984 233.557 49.352C233.221 49.704 232.829 50.008 232.381 50.264C231.933 50.504 231.445 50.68 230.917 50.792L234.013 56C234.333 56.544 234.661 56.92 234.997 57.128C235.349 57.32 235.781 57.416 236.293 57.416H236.413V59H234.133C233.573 59 233.085 58.96 232.669 58.88C232.253 58.784 231.885 58.64 231.565 58.448C231.245 58.256 230.965 58.016 230.725 57.728C230.485 57.44 230.261 57.088 230.053 56.672L227.461 51.584H225.661V57.416H227.341V59H220.093V57.416ZM225.661 49.952H228.061C229.773 49.952 230.629 49.192 230.629 47.672V46.256C230.629 44.736 229.773 43.976 228.061 43.976H225.661V49.952ZM245.268 59.288C244.148 59.288 243.108 59.096 242.148 58.712C241.188 58.328 240.356 57.776 239.652 57.056C238.948 56.32 238.396 55.416 237.996 54.344C237.596 53.256 237.396 52.016 237.396 50.624C237.396 49.232 237.596 48 237.996 46.928C238.396 45.84 238.948 44.936 239.652 44.216C240.356 43.48 241.188 42.92 242.148 42.536C243.108 42.152 244.148 41.96 245.268 41.96C246.068 41.96 246.82 42.056 247.524 42.248H249.972V39.584H252.852V41.336C252.852 42.056 252.684 42.6 252.348 42.968C252.012 43.32 251.476 43.496 250.74 43.496H250.092C251.036 44.216 251.78 45.176 252.324 46.376C252.868 47.56 253.14 48.976 253.14 50.624C253.14 52.016 252.94 53.256 252.54 54.344C252.14 55.416 251.588 56.32 250.884 57.056C250.18 57.776 249.348 58.328 248.388 58.712C247.428 59.096 246.388 59.288 245.268 59.288ZM245.268 57.512C245.764 57.512 246.228 57.432 246.66 57.272C247.092 57.112 247.468 56.864 247.788 56.528C248.124 56.192 248.388 55.76 248.58 55.232C248.772 54.704 248.868 54.072 248.868 53.336V47.912C248.868 47.176 248.772 46.544 248.58 46.016C248.388 45.488 248.124 45.056 247.788 44.72C247.468 44.384 247.092 44.136 246.66 43.976C246.228 43.816 245.764 43.736 245.268 43.736C244.772 43.736 244.308 43.816 243.876 43.976C243.444 44.136 243.06 44.384 242.724 44.72C242.404 45.056 242.148 45.488 241.956 46.016C241.764 46.544 241.668 47.176 241.668 47.912V53.336C241.668 54.072 241.764 54.704 241.956 55.232C242.148 55.76 242.404 56.192 242.724 56.528C243.06 56.864 243.444 57.112 243.876 57.272C244.308 57.432 244.772 57.512 245.268 57.512ZM245.268 63.872C244.724 63.872 244.284 63.712 243.948 63.392C243.612 63.088 243.444 62.664 243.444 62.12V62.024C243.444 61.48 243.612 61.048 243.948 60.728C244.284 60.424 244.724 60.272 245.268 60.272C245.812 60.272 246.252 60.424 246.588 60.728C246.924 61.048 247.092 61.48 247.092 62.024V62.12C247.092 62.664 246.924 63.088 246.588 63.392C246.252 63.712 245.812 63.872 245.268 63.872ZM261.545 43.832H260.345V42.248H267.401V43.832H265.481L267.665 50.936L269.081 56.072H269.225L270.737 50.936L272.993 43.832H271.073V42.248H276.233V43.832H275.033L269.945 59H266.633L261.545 43.832ZM277.609 57.416H279.289V43.832H277.609V42.248H284.857V43.832H283.177V57.416H284.857V59H277.609V57.416ZM286.82 57.416H288.5V43.832H286.82V42.248H300.188V46.712H297.404V43.976H292.388V49.4H295.556V47.96H297.332V52.568H295.556V51.128H292.388V57.272H297.596V54.056H300.38V59H286.82V57.416ZM289.652 40.304L292.892 36.056H295.1L298.34 40.304L297.332 41.144L293.996 38.696L290.66 41.144L289.652 40.304ZM293.996 63.872C293.452 63.872 293.012 63.712 292.676 63.392C292.34 63.088 292.172 62.664 292.172 62.12V62.024C292.172 61.48 292.34 61.048 292.676 60.728C293.012 60.424 293.452 60.272 293.996 60.272C294.54 60.272 294.98 60.424 295.316 60.728C295.652 61.048 295.82 61.48 295.82 62.024V62.12C295.82 62.664 295.652 63.088 295.316 63.392C294.98 63.712 294.54 63.872 293.996 63.872ZM310.345 59.288C309.145 59.288 308.081 59.072 307.153 58.64C306.241 58.192 305.465 57.584 304.825 56.816C304.185 56.032 303.697 55.112 303.361 54.056C303.041 53 302.881 51.864 302.881 50.648C302.881 49.24 303.073 47.992 303.457 46.904C303.857 45.816 304.385 44.912 305.041 44.192C305.697 43.456 306.457 42.904 307.321 42.536C308.201 42.152 309.113 41.96 310.057 41.96C310.569 41.96 311.017 42.016 311.401 42.128C311.801 42.224 312.145 42.352 312.433 42.512C312.721 42.672 312.961 42.856 313.153 43.064C313.345 43.256 313.489 43.448 313.585 43.64H313.729V42.248H316.513V47.576H313.729V46.496C313.729 45.68 313.457 45.024 312.913 44.528C312.385 44.032 311.609 43.784 310.585 43.784C309.513 43.784 308.673 44.12 308.065 44.792C307.457 45.464 307.153 46.52 307.153 47.96V52.832C307.153 53.584 307.249 54.224 307.441 54.752C307.633 55.28 307.897 55.72 308.233 56.072C308.585 56.424 308.993 56.68 309.457 56.84C309.937 57 310.457 57.08 311.017 57.08C312.041 57.08 312.905 56.816 313.609 56.288C314.329 55.744 314.873 55.016 315.241 54.104L316.609 54.896C316.401 55.504 316.105 56.08 315.721 56.624C315.337 57.152 314.873 57.616 314.329 58.016C313.801 58.416 313.201 58.728 312.529 58.952C311.857 59.176 311.129 59.288 310.345 59.288ZM324.156 57.416H325.836V43.832H324.156V42.248H331.524V43.832H329.724V57.272H334.284V54.056H337.068V59H324.156V57.416ZM338.391 57.416H339.591L344.799 42.248H348.111L353.319 57.416H354.519V59H347.487V57.416H349.407L348.255 53.888H342.783L341.631 57.416H343.551V59H338.391V57.416ZM343.263 52.232H347.823L345.567 45.176H345.471L343.263 52.232ZM342.783 37.088L345.903 35.576L347.631 40.616L346.455 41.144L342.783 37.088ZM355.82 57.416H357.5V43.832H355.82V42.248H361.868L365.612 50.312H365.708L369.212 42.248H375.356V43.832H373.676V57.416H375.356V59H368.108V57.416H369.788V45.2H369.644L368.252 48.704L364.58 56.432L360.932 48.704L359.516 45.2H359.372V57.416H361.052V59H355.82V57.416Z" fill="#E2363C"/>
<path d="M110.898 19.9395C110.74 21.293 110.239 22.3389 109.396 23.0771C108.558 23.8096 107.441 24.1758 106.047 24.1758C104.535 24.1758 103.322 23.6338 102.408 22.5498C101.5 21.4658 101.046 20.0156 101.046 18.1992V16.9688C101.046 15.7793 101.257 14.7334 101.679 13.8311C102.106 12.9287 102.71 12.2373 103.489 11.7568C104.269 11.2705 105.171 11.0273 106.196 11.0273C107.556 11.0273 108.646 11.4082 109.466 12.1699C110.286 12.9258 110.764 13.9746 110.898 15.3164H109.202C109.056 14.2969 108.736 13.5586 108.244 13.1016C107.758 12.6445 107.075 12.416 106.196 12.416C105.118 12.416 104.271 12.8145 103.656 13.6113C103.047 14.4082 102.742 15.542 102.742 17.0127V18.252C102.742 19.6406 103.032 20.7451 103.612 21.5654C104.192 22.3857 105.004 22.7959 106.047 22.7959C106.984 22.7959 107.702 22.585 108.2 22.1631C108.704 21.7354 109.038 20.9941 109.202 19.9395H110.898ZM112.524 19.1572C112.524 18.2256 112.706 17.3877 113.069 16.6436C113.438 15.8994 113.948 15.3252 114.599 14.9209C115.255 14.5166 116.002 14.3145 116.84 14.3145C118.135 14.3145 119.181 14.7627 119.978 15.6592C120.78 16.5557 121.182 17.748 121.182 19.2363V19.3506C121.182 20.2764 121.003 21.1084 120.646 21.8467C120.294 22.5791 119.787 23.1504 119.125 23.5605C118.469 23.9707 117.713 24.1758 116.857 24.1758C115.568 24.1758 114.522 23.7275 113.72 22.8311C112.923 21.9346 112.524 20.748 112.524 19.2715V19.1572ZM114.159 19.3506C114.159 20.4053 114.402 21.252 114.889 21.8906C115.381 22.5293 116.037 22.8486 116.857 22.8486C117.684 22.8486 118.34 22.5264 118.826 21.8818C119.312 21.2314 119.556 20.3232 119.556 19.1572C119.556 18.1143 119.307 17.2705 118.809 16.626C118.316 15.9756 117.66 15.6504 116.84 15.6504C116.037 15.6504 115.39 15.9697 114.897 16.6084C114.405 17.2471 114.159 18.1611 114.159 19.3506ZM119.995 13.2246H118.501L116.77 11.5898L115.038 13.2246H113.553L115.943 10.9219H117.596L119.995 13.2246ZM119.266 12.0117L119.257 10.8604C119.638 10.8369 119.913 10.7871 120.083 10.7109C120.259 10.6348 120.347 10.5 120.347 10.3066C120.347 9.91406 119.934 9.71777 119.107 9.71777L119.151 8.90918C119.901 8.90918 120.473 9.03809 120.865 9.2959C121.258 9.55371 121.454 9.89648 121.454 10.3242C121.454 10.6699 121.346 10.9395 121.129 11.1328C120.912 11.3262 120.628 11.4434 120.276 11.4844L120.268 12.0117H119.266ZM124.759 14.4902L124.812 15.6855C125.538 14.7715 126.487 14.3145 127.659 14.3145C129.669 14.3145 130.683 15.4482 130.7 17.7158V24H129.074V17.707C129.068 17.0215 128.91 16.5146 128.6 16.1865C128.295 15.8584 127.817 15.6943 127.167 15.6943C126.64 15.6943 126.177 15.835 125.778 16.1162C125.38 16.3975 125.069 16.7666 124.847 17.2236V24H123.221V14.4902H124.759ZM132.766 19.166C132.766 17.6836 133.108 16.5059 133.794 15.6328C134.479 14.7539 135.388 14.3145 136.519 14.3145C137.679 14.3145 138.584 14.7246 139.234 15.5449L139.313 14.4902H140.799V23.7715C140.799 25.002 140.433 25.9717 139.7 26.6807C138.974 27.3896 137.995 27.7441 136.765 27.7441C136.079 27.7441 135.408 27.5977 134.752 27.3047C134.096 27.0117 133.595 26.6104 133.249 26.1006L134.093 25.125C134.79 25.9863 135.643 26.417 136.65 26.417C137.441 26.417 138.057 26.1943 138.496 25.749C138.941 25.3037 139.164 24.6768 139.164 23.8682V23.0508C138.514 23.8008 137.626 24.1758 136.501 24.1758C135.388 24.1758 134.485 23.7275 133.794 22.8311C133.108 21.9346 132.766 20.7129 132.766 19.166ZM134.4 19.3506C134.4 20.4229 134.62 21.2666 135.06 21.8818C135.499 22.4912 136.114 22.7959 136.905 22.7959C137.931 22.7959 138.684 22.3301 139.164 21.3984V17.0566C138.666 16.1484 137.919 15.6943 136.923 15.6943C136.132 15.6943 135.514 16.002 135.068 16.6172C134.623 17.2324 134.4 18.1436 134.4 19.3506ZM149.931 12.1875V14.4902H151.706V15.7471H149.931V21.6445C149.931 22.0254 150.01 22.3125 150.168 22.5059C150.326 22.6934 150.596 22.7871 150.977 22.7871C151.164 22.7871 151.422 22.752 151.75 22.6816V24C151.322 24.1172 150.906 24.1758 150.502 24.1758C149.775 24.1758 149.228 23.9561 148.858 23.5166C148.489 23.0771 148.305 22.4531 148.305 21.6445V15.7471H146.573V14.4902H148.305V12.1875H149.931ZM155.239 15.6416C155.96 14.7568 156.897 14.3145 158.052 14.3145C160.062 14.3145 161.075 15.4482 161.093 17.7158V24H159.467V17.707C159.461 17.0215 159.303 16.5146 158.992 16.1865C158.688 15.8584 158.21 15.6943 157.56 15.6943C157.032 15.6943 156.569 15.835 156.171 16.1162C155.772 16.3975 155.462 16.7666 155.239 17.2236V24H153.613V10.5H155.239V15.6416ZM163.097 19.1572C163.097 18.2256 163.278 17.3877 163.642 16.6436C164.011 15.8994 164.521 15.3252 165.171 14.9209C165.827 14.5166 166.574 14.3145 167.412 14.3145C168.707 14.3145 169.753 14.7627 170.55 15.6592C171.353 16.5557 171.754 17.748 171.754 19.2363V19.3506C171.754 20.2764 171.575 21.1084 171.218 21.8467C170.866 22.5791 170.359 23.1504 169.697 23.5605C169.041 23.9707 168.285 24.1758 167.43 24.1758C166.141 24.1758 165.095 23.7275 164.292 22.8311C163.495 21.9346 163.097 20.748 163.097 19.2715V19.1572ZM164.731 19.3506C164.731 20.4053 164.975 21.252 165.461 21.8906C165.953 22.5293 166.609 22.8486 167.43 22.8486C168.256 22.8486 168.912 22.5264 169.398 21.8818C169.885 21.2314 170.128 20.3232 170.128 19.1572C170.128 18.1143 169.879 17.2705 169.381 16.626C168.889 15.9756 168.232 15.6504 167.412 15.6504C166.609 15.6504 165.962 15.9697 165.47 16.6084C164.978 17.2471 164.731 18.1611 164.731 19.3506ZM170.014 12.9082V12.9961H168.669L167.351 11.502L166.041 12.9961H164.696V12.8906L166.858 10.5H167.843L170.014 12.9082ZM175.331 14.4902L175.384 15.6855C176.11 14.7715 177.06 14.3145 178.231 14.3145C180.241 14.3145 181.255 15.4482 181.272 17.7158V24H179.646V17.707C179.641 17.0215 179.482 16.5146 179.172 16.1865C178.867 15.8584 178.39 15.6943 177.739 15.6943C177.212 15.6943 176.749 15.835 176.351 16.1162C175.952 16.3975 175.642 16.7666 175.419 17.2236V24H173.793V14.4902H175.331ZM183.338 19.166C183.338 17.6836 183.681 16.5059 184.366 15.6328C185.052 14.7539 185.96 14.3145 187.091 14.3145C188.251 14.3145 189.156 14.7246 189.807 15.5449L189.886 14.4902H191.371V23.7715C191.371 25.002 191.005 25.9717 190.272 26.6807C189.546 27.3896 188.567 27.7441 187.337 27.7441C186.651 27.7441 185.98 27.5977 185.324 27.3047C184.668 27.0117 184.167 26.6104 183.821 26.1006L184.665 25.125C185.362 25.9863 186.215 26.417 187.223 26.417C188.014 26.417 188.629 26.1943 189.068 25.749C189.514 25.3037 189.736 24.6768 189.736 23.8682V23.0508C189.086 23.8008 188.198 24.1758 187.073 24.1758C185.96 24.1758 185.058 23.7275 184.366 22.8311C183.681 21.9346 183.338 20.7129 183.338 19.166ZM184.973 19.3506C184.973 20.4229 185.192 21.2666 185.632 21.8818C186.071 22.4912 186.687 22.7959 187.478 22.7959C188.503 22.7959 189.256 22.3301 189.736 21.3984V17.0566C189.238 16.1484 188.491 15.6943 187.495 15.6943C186.704 15.6943 186.086 16.002 185.641 16.6172C185.195 17.2324 184.973 18.1436 184.973 19.3506ZM200.503 12.1875V14.4902H202.278V15.7471H200.503V21.6445C200.503 22.0254 200.582 22.3125 200.74 22.5059C200.898 22.6934 201.168 22.7871 201.549 22.7871C201.736 22.7871 201.994 22.752 202.322 22.6816V24C201.895 24.1172 201.479 24.1758 201.074 24.1758C200.348 24.1758 199.8 23.9561 199.431 23.5166C199.062 23.0771 198.877 22.4531 198.877 21.6445V15.7471H197.146V14.4902H198.877V12.1875H200.503ZM205.952 24H204.326V14.4902H205.952V24ZM204.194 11.9678C204.194 11.7041 204.273 11.4814 204.432 11.2998C204.596 11.1182 204.836 11.0273 205.152 11.0273C205.469 11.0273 205.709 11.1182 205.873 11.2998C206.037 11.4814 206.119 11.7041 206.119 11.9678C206.119 12.2314 206.037 12.4512 205.873 12.627C205.709 12.8027 205.469 12.8906 205.152 12.8906C204.836 12.8906 204.596 12.8027 204.432 12.627C204.273 12.4512 204.194 12.2314 204.194 11.9678ZM210.101 14.4902L210.153 15.6855C210.88 14.7715 211.829 14.3145 213.001 14.3145C215.011 14.3145 216.024 15.4482 216.042 17.7158V24H214.416V17.707C214.41 17.0215 214.252 16.5146 213.941 16.1865C213.637 15.8584 213.159 15.6943 212.509 15.6943C211.981 15.6943 211.519 15.835 211.12 16.1162C210.722 16.3975 210.411 16.7666 210.188 17.2236V24H208.562V14.4902H210.101Z" fill="#8D8D8D"/>
<g clip-path="url(#clip0)">
<path d="M39.9456 80.1086C62.0069 80.1086 79.8912 62.2728 79.8912 40.2714C79.8912 18.2699 62.0069 0.434204 39.9456 0.434204C17.8842 0.434204 0 18.2699 0 40.2714C0 62.2728 17.8842 80.1086 39.9456 80.1086Z" fill="#FFF200"/>
<path fill-rule="evenodd" clip-rule="evenodd" d="M46.6941 11.5061C59.7553 14.5455 69.5512 26.2687 69.5512 40.1628C69.5512 56.4451 56.2723 69.5794 39.9458 69.5794C23.6192 69.5794 10.3403 56.5536 10.3403 40.2714C10.3403 26.2687 20.1363 14.654 33.1975 11.6147L31.6737 0.868385C34.2859 0.325645 37.1158 0 39.8369 0C42.6669 0 45.388 0.325645 48.0002 0.868385L46.6941 11.5061Z" fill="#ED1C24"/>
<path fill-rule="evenodd" clip-rule="evenodd" d="M39.9458 32.4559C48.0002 32.4559 54.6397 38.9688 54.6397 47.1099C54.6397 49.9322 53.8778 52.4288 52.5716 54.7083H44.7349C42.6669 54.7083 41.0342 55.034 40.0546 57.2049C38.9662 55.1425 37.4424 54.7083 35.3744 54.7083H27.5376C26.2315 52.5373 25.4696 49.9322 25.4696 47.1099C25.3608 39.0774 31.8914 32.4559 39.9458 32.4559Z" fill="#FFF200"/>
<path fill-rule="evenodd" clip-rule="evenodd" d="M39.9457 53.4058C41.0342 53.4058 42.0138 53.9485 42.558 54.9254C41.4696 55.2511 40.5988 55.7938 39.9457 57.2049C39.2927 55.9024 38.4219 55.2511 37.3335 54.9254C37.8777 53.9485 38.8573 53.4058 39.9457 53.4058Z" fill="#00AEEF"/>
<path fill-rule="evenodd" clip-rule="evenodd" d="M54.7485 65.7802C50.3948 68.2768 45.388 69.6879 39.9458 69.6879C34.5036 69.6879 29.4968 68.2768 25.1431 65.7802H34.2859C36.6805 65.9972 38.6397 67.0827 39.9458 69.4708C41.2519 67.0827 43.2111 65.9972 45.6056 65.7802H54.7485Z" fill="#00AEEF"/>
<path fill-rule="evenodd" clip-rule="evenodd" d="M24.8167 65.5631C24.8167 65.6716 24.8167 65.7802 24.8167 65.8887C24.599 67.6255 24.599 69.6879 25.1433 71.3161L25.2521 71.7503L24.8167 71.8588C24.4902 71.9674 24.0548 72.076 23.6195 72.1845C23.1841 72.293 22.8575 72.4016 22.4222 72.5101C21.0072 72.9443 19.8099 73.4871 18.8303 74.0298C18.5038 73.8127 18.2861 73.7042 17.9596 73.4871C18.9392 72.8358 20.463 72.1845 22.0956 71.6418C22.531 71.5332 22.8575 71.4247 23.2929 71.2076L23.6195 71.099C22.3133 70.3392 21.116 69.5793 19.9188 68.711C18.5038 67.6255 17.1977 66.54 16.0004 65.346C15.2385 64.4776 14.3677 63.7177 13.7147 62.7408C13.2793 62.5237 12.8439 62.4152 12.4086 62.1981C11.9732 62.0895 11.429 61.8724 10.9936 61.7639C9.14326 61.3297 7.40176 61.3297 6.20448 61.4382C5.9868 61.1126 5.87795 60.8955 5.66027 60.5698C6.96639 60.3527 9.03442 60.3527 11.2113 60.8955C11.6467 61.004 12.082 61.1126 12.6263 61.2211C11.429 59.5929 10.3405 57.7476 9.36095 55.9023C7.94598 53.8399 5.9868 52.7544 4.2453 52.2116C3.26571 51.886 2.39496 51.7774 1.63306 51.6689C1.52421 51.3432 1.41537 51.0176 1.30652 50.692C2.28612 50.8005 3.37455 50.9091 4.46299 51.3432C5.66027 51.7774 6.96639 52.3202 8.05482 53.2971C7.07523 50.909 6.42217 48.521 5.9868 46.0244C5.76911 45.5902 5.55142 45.0475 5.33374 44.7218C3.91877 42.3337 1.85074 40.9226 -0.217285 40.1628V40.0542C-0.217285 39.7286 -0.217285 39.4029 -0.217285 39.1858C1.85074 39.9457 4.02761 41.3568 5.66027 43.6363C5.55142 42.7679 5.55142 41.8996 5.55142 41.0312V40.9226C5.55142 40.2713 5.55142 39.7286 5.55142 39.0773C5.33373 35.6038 4.57183 33.2157 3.37455 31.696C2.72149 30.8276 1.95959 30.1764 1.19768 29.7422C1.30652 29.4165 1.41537 29.0909 1.41537 28.8738C2.39496 29.4165 3.37455 30.1764 4.13646 31.2618C4.89836 32.3473 5.55142 33.6499 5.87795 35.3867C5.87795 35.061 5.9868 34.7354 6.09564 34.4097C6.31333 33.3242 6.63986 32.2388 6.96639 31.1533C8.05482 24.8575 6.7487 22.4694 4.68067 21.1669C4.78952 20.8412 5.0072 20.6241 5.11605 20.2985C6.96639 21.4925 8.38135 23.3378 8.27251 27.5712C9.03442 25.8344 10.014 24.0977 11.1024 22.4694C12.9528 17.4762 12.4086 14.654 11.2113 12.3744C11.429 12.1574 11.6467 11.9403 11.8643 11.7232C13.0616 13.7856 13.8235 16.2822 12.8439 20.0814C14.1501 18.4531 15.565 16.9335 17.0888 15.6309C19.8099 12.2659 20.1365 8.68381 19.9188 5.64446C20.2453 5.42737 20.463 5.31882 20.7895 5.10172C20.8984 5.86156 20.8984 6.6214 20.8984 7.38123C21.1161 7.27269 21.3337 7.16414 21.4426 7.05559C21.9868 6.72994 22.531 6.51285 22.9664 6.1872C25.6875 4.77608 28.6263 3.6906 31.6739 3.03931L31.8916 3.90769C28.8439 4.55898 26.014 5.64446 23.4018 6.94704C22.8575 7.16414 22.4222 7.48978 21.878 7.81543C21.5514 8.03252 21.1161 8.24962 20.7895 8.46672C20.7895 9.00946 20.6807 9.5522 20.5718 10.2035C21.2249 10.0949 21.4426 9.98639 21.7691 9.76929C22.3133 9.44365 22.8575 9.118 23.4018 8.90091C26.2317 7.38123 29.2793 6.29575 32.4358 5.53591L32.6535 6.4043C29.497 7.05559 26.5582 8.24962 23.8371 9.66074C23.2929 9.98639 22.7487 10.2035 22.3133 10.5291C21.7691 10.8548 21.2249 11.1804 20.6807 11.5061V11.3975C20.463 12.1574 20.1365 13.0257 19.7011 13.7856C23.5106 10.9633 27.9732 9.00946 32.7623 7.92397L32.98 8.79236C28.8439 9.66075 25.0344 11.3975 21.6603 13.5685C23.1841 13.3514 24.599 13.7856 25.9052 14.3283C25.5786 14.5454 25.2521 14.7625 24.8167 14.9796C22.8575 14.3283 20.7895 14.1112 18.0684 16.3907C16.7623 17.5848 15.4562 18.7788 14.3677 20.1899C15.8916 19.4301 17.5242 19.4301 19.048 19.5386C18.7215 19.8643 18.5038 20.0814 18.1773 20.407C16.1092 20.2985 13.9324 20.6241 11.8643 23.6635L11.7555 23.5549C11.1024 24.6404 10.4494 25.7259 9.90516 26.8114C10.1229 26.5943 10.3405 26.4857 10.6671 26.3772C11.8643 25.6173 13.2793 25.4002 14.5854 25.2917C14.3677 25.6173 14.2589 25.943 14.0412 26.2686C13.0616 26.3772 12.082 26.5943 11.2113 27.137C9.90516 27.8968 8.81673 29.1994 8.27251 31.5875C7.94598 32.5644 7.72829 33.5413 7.51061 34.5183C7.29292 35.7123 7.07523 37.0149 6.96639 38.3175C7.51061 37.4491 8.27251 36.5807 9.14326 35.9294C9.46979 35.7123 9.79632 35.4952 10.1229 35.2781C10.4494 35.061 10.7759 34.9525 11.1024 34.8439C10.9936 35.1696 10.9936 35.6038 10.8848 35.9294C10.7759 36.038 10.6671 36.038 10.5582 36.1465C10.2317 36.3636 9.90516 36.4721 9.68748 36.7978C8.27251 37.8833 7.07523 39.5115 6.96639 41.1397C6.96639 41.2483 6.96639 41.4654 6.96639 41.5739H6.85754C6.85754 43.0936 7.07523 44.5047 7.29292 45.9158C7.40176 46.2415 7.51061 46.4586 7.61945 46.7842C7.61945 46.8928 7.61945 47.0013 7.72829 47.0013C8.16367 45.9158 8.81673 45.0475 9.57863 44.2876C9.90516 44.0705 10.1229 43.7449 10.4494 43.5278C10.5582 43.4192 10.6671 43.4192 10.7759 43.3107C10.7759 43.6363 10.8848 43.962 10.8848 44.2876C10.6671 44.5047 10.4494 44.6133 10.1229 44.8304C8.92557 46.0244 8.05482 47.7612 8.16367 49.4979V49.715H8.05482C8.59904 51.6689 9.36095 53.4057 10.1229 55.251C10.3405 53.6228 10.9936 51.7774 11.8643 50.4749C11.9732 50.3663 12.082 50.2578 12.082 50.1492C12.1909 50.4749 12.2997 50.8005 12.5174 51.1261C11.5378 52.7544 10.8848 55.0339 10.8848 56.6621C11.7555 58.1818 12.6263 59.5929 13.6058 61.004C13.6058 59.4844 13.9324 57.7476 14.4766 56.445C14.5854 56.1194 14.6943 55.9023 14.912 55.5766C15.1297 55.9023 15.2385 56.1194 15.4562 56.445C15.4562 56.5536 15.3473 56.6621 15.3473 56.7707C14.6943 58.3989 14.4766 60.5698 14.6943 62.1981C15.3473 63.0664 16.1092 63.8263 16.8712 64.5861C18.0684 65.7802 19.3746 66.8656 20.6807 67.8426C21.7691 68.6024 22.8575 69.3622 24.0548 70.0135C23.8371 68.4939 23.8371 66.8656 23.946 65.5631C23.946 65.346 24.0548 65.1289 24.0548 64.9118C24.2725 65.2374 24.599 65.346 24.8167 65.5631Z" fill="black"/>
<path fill-rule="evenodd" clip-rule="evenodd" d="M55.1839 65.5631C55.1839 65.6716 55.1839 65.7802 55.1839 65.8887C55.4016 67.6255 55.4016 69.6879 54.8574 71.3161L54.7485 71.7503L55.1839 71.8588C55.5104 71.9674 55.9458 72.076 56.3812 72.1845C56.8166 72.293 57.1431 72.4016 57.5785 72.5101C58.9934 72.9443 60.1907 73.4871 61.1703 74.0298C61.4968 73.8127 61.7145 73.7042 62.041 73.4871C61.0614 72.8358 59.5376 72.1845 57.905 71.6418C57.4696 71.5332 57.1431 71.4247 56.7077 71.2076L56.3812 71.099C57.6873 70.3392 58.8846 69.5793 60.0819 68.711C61.4968 67.6255 62.8029 66.54 64.0002 65.346C64.7621 64.4776 65.6329 63.7177 66.2859 62.7408C66.7213 62.5237 67.1567 62.4152 67.5921 62.1981C68.0274 62.0895 68.5717 61.8724 69.007 61.7639C70.8574 61.3297 72.5989 61.3297 73.7961 61.4382C74.0138 61.1126 74.1227 60.8955 74.3404 60.5698C73.0342 60.3527 70.9662 60.3527 68.7893 60.8955C68.354 61.004 67.9186 61.1126 67.3744 61.2211C68.5717 59.5929 69.6601 57.7476 70.6397 55.9023C72.0546 53.8399 74.0138 52.7544 75.7553 52.2116C76.7349 51.886 77.6057 51.7774 78.3676 51.6689C78.4764 51.3432 78.5853 51.0176 78.6941 50.692C77.7145 50.8005 76.6261 50.9091 75.5376 51.3432C74.3404 51.7774 73.0342 52.3202 71.9458 53.2971C72.9254 50.909 73.5784 48.521 74.0138 46.0244C74.2315 45.5902 74.4492 45.0475 74.6669 44.7218C76.0818 42.3337 78.1499 40.9226 80.2179 40.1628V40.0542C80.2179 39.7286 80.2179 39.4029 80.2179 39.1858C78.1499 39.9457 75.973 41.3568 74.3404 43.6363C74.4492 42.7679 74.4492 41.8996 74.4492 41.0312V40.9226C74.4492 40.2713 74.4492 39.7286 74.4492 39.0773C74.6669 35.6038 75.4288 33.2157 76.6261 31.696C77.2791 30.8276 78.041 30.1764 78.8029 29.7422C78.6941 29.4165 78.5852 29.0909 78.5852 28.8738C77.6057 29.4165 76.6261 30.1764 75.8642 31.2618C75.1023 32.3473 74.4492 33.6499 74.1227 35.3867C74.1227 35.061 74.0138 34.7354 73.905 34.4097C73.6873 33.3242 73.3608 32.2388 73.0342 31.1533C71.9458 24.8575 73.2519 22.4694 75.3199 21.1669C75.2111 20.8412 74.9934 20.6241 74.8846 20.2985C73.0342 21.4925 71.6193 23.3378 71.7281 27.5712C70.9662 25.8344 69.9866 24.0977 68.8982 22.4694C67.0478 17.4762 67.5921 14.654 68.7893 12.3744C68.5716 12.1574 68.354 11.9403 68.1363 11.7232C66.939 13.7856 66.1771 16.2822 67.1567 20.0814C65.8506 18.4531 64.4356 16.9335 62.9118 15.6309C60.1907 12.2659 59.8642 8.68381 60.0819 5.64446C59.7553 5.42737 59.5376 5.31882 59.2111 5.10172C59.1023 5.86156 59.1023 6.6214 59.1023 7.38123C58.8846 7.27269 58.6669 7.16414 58.558 7.05559C58.0138 6.72994 57.4696 6.51285 57.0342 6.1872C54.3132 4.77608 51.3744 3.6906 48.3268 3.03931L48.1091 3.90769C51.1567 4.55898 53.9866 5.64446 56.5989 6.94704C57.1431 7.16414 57.5785 7.48978 58.1227 7.81543C58.4492 8.03252 58.8846 8.24962 59.2111 8.46672C59.2111 9.00946 59.32 9.5522 59.4288 10.2035C59.1023 9.98639 58.8846 9.87784 58.558 9.66074C58.0138 9.3351 57.4696 9.00946 56.9254 8.79236C54.0955 7.27269 51.0478 6.1872 47.8914 5.42737L47.6737 6.29575C50.8302 6.94704 53.7689 8.14107 56.49 9.5522C57.0342 9.87784 57.5785 10.0949 58.0138 10.4206C58.558 10.7462 58.9934 11.0719 59.5376 11.3975L59.6465 11.289C59.8642 12.0488 60.1907 12.9172 60.6261 13.677C56.8166 10.8548 52.354 8.90091 47.5649 7.81543L47.3472 8.68381C51.4832 9.5522 55.2927 11.289 58.7757 13.4599C57.2519 13.2428 55.837 13.677 54.5308 14.2198C54.8574 14.4369 55.1839 14.654 55.6193 14.8711C57.5785 14.2198 59.6465 14.0027 62.4764 16.2822C63.7825 17.4762 65.0887 18.6702 66.1771 20.0814C64.6533 19.3215 63.0206 19.3215 61.4968 19.4301C61.8234 19.7557 62.041 19.9728 62.3676 20.2985C64.4356 20.1899 66.6125 20.5156 68.6805 23.5549L68.7893 23.4464C69.4424 24.5318 70.0955 25.6173 70.6397 26.7028C70.422 26.4857 70.2043 26.3772 69.8778 26.2686C68.6805 25.5088 67.2655 25.2917 65.9594 25.1831C66.1771 25.5088 66.2859 25.8344 66.5036 26.1601C67.4832 26.2686 68.4628 26.4857 69.3336 27.0285C70.6397 27.7883 71.7281 29.0909 72.2723 31.4789C72.5989 32.4559 72.8165 33.4328 73.0342 34.4097C73.2519 35.6038 73.4696 36.9063 73.5784 38.2089C73.0342 37.3405 72.2723 36.4721 71.4016 35.8209C71.075 35.6038 70.7485 35.3867 70.422 35.1696C70.0955 34.9525 69.7689 34.8439 69.4424 34.7354C69.5512 35.061 69.5512 35.4952 69.6601 35.8209C69.7689 35.9294 69.8778 35.9294 69.9866 36.038C70.3131 36.2551 70.6397 36.3636 70.8574 36.6892C72.2723 37.7747 73.4696 39.4029 73.5784 41.0312C73.5784 41.1397 73.5784 41.3568 73.5784 41.4654H73.6873C73.6873 42.985 73.4696 44.3962 73.2519 45.8073C73.1431 46.1329 73.0342 46.35 72.9254 46.6757C72.9254 46.7842 72.9254 46.8928 72.8165 46.8928C72.3812 45.8073 71.7281 44.9389 70.9662 44.1791C70.6397 43.962 70.422 43.6363 70.0955 43.4192C69.9866 43.3107 69.8778 43.3107 69.7689 43.2021C69.7689 43.5278 69.6601 43.8534 69.6601 44.1791C69.8778 44.3962 70.0955 44.5047 70.422 44.7218C71.6193 45.9158 72.49 47.6526 72.3812 49.3894V49.6065H72.49C71.9458 51.5603 71.1839 53.2971 70.422 55.1424C70.2043 53.5142 69.5512 51.6689 68.6805 50.3663C68.5716 50.2578 68.4628 50.1492 68.4628 50.0407C68.354 50.3663 68.2451 50.692 68.0274 51.0176C69.1159 52.6458 69.6601 54.9253 69.6601 56.5536C68.7893 58.0732 67.9186 59.4844 66.939 60.8955C66.939 59.3758 66.6125 57.639 66.0682 56.3365C65.9594 56.0108 65.8506 55.7937 65.6329 55.4681C65.4152 55.7937 65.3063 56.0108 65.0887 56.3365C65.0887 56.445 65.1975 56.5536 65.1975 56.6621C65.8506 58.2903 66.0682 60.4613 65.8506 62.0895C65.1975 62.9579 64.4356 63.7177 63.6737 64.4776C62.4764 65.6716 61.1703 66.7571 59.8642 67.734C58.7757 68.4939 57.6873 69.2537 56.49 69.905C56.7077 68.3853 56.7077 66.7571 56.5989 65.4545C56.5989 65.2374 56.49 65.0203 56.49 64.8032C55.7281 65.2374 55.5104 65.346 55.1839 65.5631Z" fill="black"/>
<path fill-rule="evenodd" clip-rule="evenodd" d="M39.9458 69.4708C38.6397 67.0828 36.6805 65.9973 34.2859 65.7802H23.9458V55.5767H35.1567C37.2247 55.5767 38.8574 55.9023 39.837 58.0733C40.9254 56.0109 42.4492 55.5767 44.5172 55.5767H55.7281V65.7802H45.388C43.2111 65.8887 41.2519 67.0828 39.9458 69.4708Z" fill="white" stroke="black" stroke-width="0.5669" stroke-miterlimit="10"/>
<path d="M39.9458 58.0732V69.4708" stroke="black" stroke-width="0.8504" stroke-miterlimit="10"/>
<path fill-rule="evenodd" clip-rule="evenodd" d="M39.9458 64.8032C41.4696 62.6323 44.2995 62.3066 47.1295 62.3066H55.9458L39.9458 64.8032ZM39.9458 64.8032C38.422 62.6323 35.5921 62.3066 32.7621 62.3066H23.9458" fill="white"/>
<path d="M39.9458 64.8032C38.422 62.6323 35.5921 62.3066 32.7621 62.3066H23.9458M39.9458 64.8032C41.4696 62.6323 44.2995 62.3066 47.1295 62.3066H55.9458L39.9458 64.8032Z" stroke="black" stroke-width="0.5669" stroke-miterlimit="10"/>
<path fill-rule="evenodd" clip-rule="evenodd" d="M39.9454 36.1466C41.7958 36.1466 43.6461 36.5808 45.1699 37.4492L44.1903 41.3569C42.9931 40.4885 41.5781 39.9458 39.9454 39.9458C38.5305 39.9458 37.2243 40.38 36.1359 41.1398L35.1563 37.3406C36.6801 36.5808 38.3128 36.1466 39.9454 36.1466ZM48.3264 40.0543C49.959 41.8997 50.8298 44.3963 50.8298 47.0014C50.8298 50.0408 49.6325 52.6459 47.6733 54.5998H46.3672L44.7345 52.1032C46.1495 50.8006 47.0203 48.9553 47.0203 46.8929C47.0203 46.4587 47.0203 45.9159 46.9114 45.4817L48.3264 40.0543ZM33.306 44.7219C33.0883 45.4817 32.9794 46.2416 32.9794 47.0014C32.9794 49.0638 33.8502 50.9092 35.2652 52.2117L33.6325 54.7083H32.3264C30.3672 52.7545 29.1699 50.0408 29.1699 47.11C29.1699 44.2877 30.2584 41.6826 32.1087 39.7287L33.306 44.7219ZM42.5577 54.9254C41.4692 55.2511 40.5985 55.9024 39.9454 57.2049C39.2924 55.9024 38.4216 55.2511 37.3332 54.9254L37.9863 53.84C38.5305 53.9485 39.1835 54.057 39.8366 54.057C40.4896 54.057 41.1427 53.9485 41.6869 53.84L42.5577 54.9254Z" fill="#00AEEF"/>
<path fill-rule="evenodd" clip-rule="evenodd" d="M41.5785 53.8398C41.0342 53.9484 40.49 54.0569 39.9458 54.0569C39.4016 54.0569 38.8574 53.9484 38.3131 53.8398V53.7313C38.3131 52.8629 39.0751 52.1031 39.9458 52.1031C40.8165 52.1031 41.5785 52.8629 41.5785 53.7313C41.6873 53.8398 41.5785 53.8398 41.5785 53.8398ZM43.7553 41.0312V42.985H36.2451V41.0312C37.3336 40.3799 38.6397 39.9457 39.9458 39.9457C41.3608 39.9457 42.6669 40.3799 43.7553 41.0312Z" fill="black"/>
<path fill-rule="evenodd" clip-rule="evenodd" d="M43.6461 30.2849C44.8433 30.6106 46.1495 30.9362 47.2379 31.479L46.6937 33.9756C47.891 34.6269 49.0882 35.3867 50.0678 36.3636L52.3535 35.1696C53.2243 36.038 53.8773 36.9064 54.5304 37.8833L52.7889 39.7286C53.442 40.8141 53.8773 41.8996 54.2039 43.0936L56.8161 43.2022C57.1427 44.3962 57.2515 45.6988 57.2515 47.0014C57.2515 47.1099 57.2515 47.327 57.2515 47.4356L54.7481 48.3039C54.5304 50.5834 53.7685 52.7544 52.6801 54.5997H49.3059C51.0474 52.5373 52.1359 49.8236 52.1359 47.0014C52.1359 43.8535 50.8297 40.9227 48.8705 38.7517L49.3059 36.7978L45.8229 35.9294L45.7141 36.4722C44.0814 35.6038 42.2311 35.1696 40.2719 35.1696C38.4216 35.1696 36.7889 35.6038 35.2651 36.2551L34.8297 35.9294L31.3467 36.7978L31.7821 38.4261C29.4964 40.597 28.0814 43.6364 28.0814 47.0014C28.0814 49.9322 29.1699 52.5373 30.9114 54.5997H27.5372C26.5576 52.9715 25.7957 51.1262 25.578 49.1723L23.0746 48.7381C22.8569 48.1954 22.8569 47.6526 22.8569 47.0014C22.8569 46.133 22.9658 45.2646 23.0746 44.3962L25.6869 44.0706C26.0134 42.6594 26.4488 41.2483 27.2107 40.0543L25.4692 38.1004C26.1222 37.0149 26.8841 36.038 27.7549 35.1696L30.0406 36.3636C31.129 35.3867 32.3263 34.5183 33.6324 33.867L33.3059 31.2619C34.3944 30.8277 35.5916 30.3935 36.7889 30.1764L37.9862 32.4559C38.6393 32.3474 39.4012 32.3474 40.0542 32.3474C40.925 32.3474 41.7957 32.4559 42.5576 32.5645L43.6461 30.2849Z" fill="#00AEEF"/>
<path fill-rule="evenodd" clip-rule="evenodd" d="M47.1294 37.9918L46.1498 47.7612V47.8697L45.4968 49.3894L45.3879 49.4979L43.211 51.5604C43.6464 52.2116 43.9729 52.9715 43.9729 53.7313H43.3199C43.3199 52.9715 42.9934 52.2116 42.4491 51.6689C41.9049 51.1262 41.143 50.8005 40.3811 50.8005C39.5104 50.8005 38.8573 51.1262 38.3131 51.6689C37.7689 52.2116 37.4423 52.9715 37.4423 53.7313H36.7893C36.7893 52.8629 37.1158 52.2116 37.5512 51.5604L35.3743 49.4979L35.2655 49.3894L34.6124 47.8697V47.7612L33.6328 37.9918L34.2859 37.8833L35.2655 47.6526L35.8097 49.0638L36.1362 49.3894C36.1362 49.2809 36.2451 49.1723 36.2451 49.0638C36.4627 48.6296 36.7893 48.3039 37.3335 48.0868V47.0013C37.3335 46.6757 37.4423 46.2415 37.7689 46.0244C37.9866 45.8073 38.3131 45.5902 38.7485 45.5902H42.0138C42.3403 45.5902 42.7757 45.6988 42.9934 46.0244C43.211 46.2415 43.4287 46.5671 43.4287 47.0013V48.0868C43.5376 48.0868 43.6464 48.1954 43.7553 48.1954C44.1906 48.4125 44.5172 48.8467 44.626 49.3894L44.9525 49.0638L45.4968 47.6526L46.4763 37.8833L47.1294 37.9918ZM42.7757 51.1262L44.0818 49.9321C44.0818 49.4979 43.8641 49.0638 43.4287 48.8467C43.3199 48.8467 43.3199 48.7381 43.211 48.7381C43.1022 48.7381 42.9934 48.7381 42.9934 48.7381H37.9866C37.5512 48.7381 37.1158 49.0638 37.007 49.3894C37.007 49.4979 36.8981 49.6065 36.8981 49.6065C36.8981 49.715 36.8981 49.8236 36.8981 49.9321L38.2042 51.1262C38.8573 50.5834 39.728 50.2578 40.5988 50.2578C41.3607 50.1492 42.1226 50.5834 42.7757 51.1262ZM36.8981 44.6133H43.8641V45.2646H36.8981V44.6133ZM42.0138 46.2415H38.7485C38.5308 46.2415 38.4219 46.3501 38.2042 46.4586C38.0954 46.5671 37.9866 46.7842 37.9866 47.0013V47.9783H42.7757V47.0013C42.7757 46.7842 42.6668 46.5671 42.558 46.4586C42.4491 46.3501 42.2315 46.2415 42.0138 46.2415Z" fill="#ED1C24"/>
<path fill-rule="evenodd" clip-rule="evenodd" d="M46.5849 24.8575C45.7141 26.3772 42.1223 25.943 38.5304 23.772C35.0474 21.6011 32.8706 18.6703 33.7413 17.1506C34.6121 15.6309 38.2039 16.0651 41.7957 18.2361C45.2787 20.2985 47.4556 23.2293 46.5849 24.8575ZM46.5849 17.042C45.7141 15.5224 42.1223 15.9566 38.5304 18.1275C35.0474 20.2985 32.8706 23.2293 33.7413 24.749C34.6121 26.2686 38.2039 25.8344 41.7957 23.6635C45.2787 21.6011 47.4556 18.6703 46.5849 17.042ZM39.9454 13.46C38.2039 13.46 36.7889 16.825 36.8978 20.9498C37.0066 25.0746 38.5304 28.4396 40.2719 28.4396C42.0134 28.4396 43.4284 25.0746 43.3196 20.9498C43.3196 16.825 41.7957 13.46 39.9454 13.46Z" stroke="black" stroke-width="0.5669" stroke-miterlimit="10"/>
<path d="M40.1632 21.9268C40.7042 21.9268 41.1428 21.4894 41.1428 20.9498C41.1428 20.4103 40.7042 19.9729 40.1632 19.9729C39.6222 19.9729 39.1836 20.4103 39.1836 20.9498C39.1836 21.4894 39.6222 21.9268 40.1632 21.9268Z" fill="black"/>
<path fill-rule="evenodd" clip-rule="evenodd" d="M36.8977 10.9633L37.9862 7.48977L35.1562 5.42736H38.6392L39.9454 1.62817L41.3603 5.42736H44.8433L42.0134 7.48977L43.1018 10.9633L39.9454 8.9009L36.8977 10.9633Z" fill="#FFF200"/>
<path fill-rule="evenodd" clip-rule="evenodd" d="M24.9253 75.4409L26.6668 71.099L27.5375 71.4246L26.1226 75.0067L28.2994 75.8751L27.9729 76.635L24.9253 75.4409ZM30.2586 72.5101L31.8913 72.9443C32.109 72.9443 32.3267 73.0529 32.4355 73.0529H32.5443H32.6532H32.762H32.8709C33.0886 73.1614 33.3062 73.3785 33.4151 73.5956C33.5239 73.8127 33.6328 74.1383 33.6328 74.464C33.6328 74.7896 33.6328 75.1153 33.5239 75.5495C33.4151 75.8751 33.3062 76.2008 33.0886 76.5264C32.8709 76.8521 32.6532 77.0692 32.4355 77.1777C32.2178 77.2862 32.0001 77.3948 31.6736 77.3948H31.5647H31.3471H31.1294H30.9117L29.1702 77.0692L29.6056 75.1153L29.1702 74.8982L29.279 74.3554L29.7144 74.464L30.2586 72.5101ZM31.0205 73.4871L30.694 74.6811L31.6736 74.8982L31.5647 75.4409L30.5852 75.2238L30.2586 76.4179L30.9117 76.5264C31.2382 76.635 31.4559 76.635 31.5647 76.635C31.7824 76.635 31.8913 76.5264 32.0001 76.4179C32.2178 76.2008 32.3267 75.8751 32.4355 75.4409C32.5443 75.1153 32.5443 74.7896 32.5443 74.6811C32.5443 74.464 32.4355 74.3554 32.4355 74.2469C32.3267 74.1384 32.2178 74.0298 32.109 73.9213L32.0001 73.8127H31.8913L31.3471 73.7042L31.0205 73.4871ZM34.2858 76.8521L34.3947 75.9837L36.1362 76.2008L36.0273 77.0692L34.2858 76.8521ZM38.0954 78.4803L38.2042 74.5725H36.7892V73.8127L40.4899 73.9213V74.6811H39.075L38.9661 78.5888L38.0954 78.4803ZM41.143 73.8127L42.9933 73.7042C43.211 73.7042 43.3198 73.7042 43.4287 73.7042C43.5375 73.7042 43.6464 73.7042 43.7552 73.7042C43.9729 73.7042 44.0818 73.8127 44.2994 73.8127C44.4083 73.9213 44.626 74.0298 44.7348 74.1384C44.8437 74.2469 44.9525 74.464 44.9525 74.6811C44.9525 74.8982 44.9525 75.1153 44.8437 75.3324C44.7348 75.5495 44.626 75.658 44.4083 75.7666C44.7348 75.8751 44.9525 75.9837 45.0613 76.0922C45.279 76.3093 45.279 76.5264 45.3879 76.7435C45.3879 76.9606 45.3879 77.1777 45.279 77.3948C45.1702 77.6119 45.0613 77.7204 44.9525 77.9375C44.8437 78.0461 44.626 78.1546 44.2994 78.2632L43.8641 78.3717C43.7552 78.3717 43.5375 78.3717 43.4287 78.3717C43.3198 78.3717 43.211 78.3717 43.1022 78.3717L41.4695 78.4803L41.143 73.8127ZM42.1226 74.5725L42.2314 75.658H42.8845H42.9933H43.1022H43.211H43.3198C43.4287 75.658 43.4287 75.658 43.5375 75.658C43.6464 75.658 43.8641 75.5495 43.8641 75.4409C43.9729 75.3324 43.9729 75.2238 43.9729 75.1153C43.9729 75.0067 43.8641 74.8982 43.8641 74.7896C43.7552 74.6811 43.6464 74.6811 43.5375 74.6811C43.4287 74.6811 43.1022 74.6811 42.7756 74.6811L42.1226 74.5725ZM42.3403 76.4179L42.4491 77.6119L43.3198 77.5033C43.6464 77.5033 43.8641 77.3948 43.9729 77.3948C44.0818 77.3948 44.1906 77.2862 44.2994 77.1777C44.4083 77.0692 44.4083 76.9606 44.4083 76.7435C44.4083 76.635 44.2994 76.5264 44.2994 76.4179C44.1906 76.3093 44.0818 76.3093 43.9729 76.2008C43.8641 76.2008 43.5375 76.2008 43.1022 76.2008L42.3403 76.4179ZM46.3675 78.0461L47.3471 75.3324L45.3879 73.4871L46.4763 73.27L47.7824 74.5725L48.3266 72.9443L49.4151 72.7272L48.5443 75.2238L50.6124 77.1777L49.5239 77.3948L48.109 75.9837L47.4559 77.829L46.3675 78.0461ZM51.7008 76.8521L49.9593 72.5101L50.83 72.1845L51.4831 73.9213L53.2246 73.27L52.5715 71.5332L53.4423 71.2075L55.1838 75.5495L54.313 75.8751L53.4423 73.8127L51.7008 74.464L52.4627 76.3093L51.7008 76.8521Z" fill="#ED1C24"/>
</g>
<defs>
<clipPath id="clip0">
<path d="M0 0H80V80H0V0Z" fill="white"/>
</clipPath>
</defs>
</svg>
