<svg width="270" height="50" viewBox="0 0 270 50" fill="none" xmlns="http://www.w3.org/2000/svg">
<path d="M69.432 45.562C68.748 45.562 68.184 45.43 67.74 45.166C67.296 44.902 66.858 44.452 66.426 43.816L65.436 42.322C64.764 42.178 64.152 41.932 63.6 41.584C63.048 41.236 62.574 40.798 62.178 40.27C61.782 39.73 61.476 39.1 61.26 38.38C61.044 37.66 60.936 36.856 60.936 35.968C60.936 34.924 61.086 34 61.386 33.196C61.686 32.38 62.1 31.702 62.628 31.162C63.156 30.61 63.78 30.19 64.5 29.902C65.22 29.614 66 29.47 66.84 29.47C67.68 29.47 68.46 29.614 69.18 29.902C69.9 30.19 70.524 30.61 71.052 31.162C71.58 31.702 71.994 32.38 72.294 33.196C72.594 34 72.744 34.924 72.744 35.968C72.744 36.856 72.636 37.654 72.42 38.362C72.204 39.07 71.904 39.694 71.52 40.234C71.136 40.762 70.668 41.2 70.116 41.548C69.576 41.896 68.982 42.148 68.334 42.304L69.54 43.78C69.744 44.044 69.984 44.218 70.26 44.302C70.536 44.398 70.848 44.446 71.196 44.446H71.502V45.562H69.432ZM66.84 41.134C67.212 41.134 67.56 41.074 67.884 40.954C68.208 40.834 68.49 40.648 68.73 40.396C68.982 40.144 69.18 39.82 69.324 39.424C69.468 39.028 69.54 38.554 69.54 38.002V33.934C69.54 33.382 69.468 32.908 69.324 32.512C69.18 32.116 68.982 31.792 68.73 31.54C68.49 31.288 68.208 31.102 67.884 30.982C67.56 30.862 67.212 30.802 66.84 30.802C66.468 30.802 66.12 30.862 65.796 30.982C65.472 31.102 65.184 31.288 64.932 31.54C64.692 31.792 64.5 32.116 64.356 32.512C64.212 32.908 64.14 33.382 64.14 33.934V38.002C64.14 38.554 64.212 39.028 64.356 39.424C64.5 39.82 64.692 40.144 64.932 40.396C65.184 40.648 65.472 40.834 65.796 40.954C66.12 41.074 66.468 41.134 66.84 41.134ZM81.0378 42.466C80.0658 42.466 79.2378 42.37 78.5538 42.178C77.8818 41.986 77.3298 41.686 76.8978 41.278C76.4778 40.87 76.1658 40.354 75.9618 39.73C75.7698 39.094 75.6738 38.332 75.6738 37.444V30.874H74.4138V29.686H79.8498V30.874H78.5898V37.48C78.5898 38.092 78.6318 38.62 78.7158 39.064C78.8118 39.508 78.9618 39.88 79.1658 40.18C79.3818 40.48 79.6638 40.702 80.0118 40.846C80.3718 40.99 80.8158 41.062 81.3438 41.062C82.3998 41.062 83.1378 40.78 83.5578 40.216C83.9898 39.64 84.2058 38.746 84.2058 37.534V30.874H82.9458V29.686H86.8698V30.874H85.6098V37.498C85.6098 39.118 85.2498 40.354 84.5298 41.206C83.8098 42.046 82.6458 42.466 81.0378 42.466ZM90.8218 41.062H92.2438V37.228L88.8598 30.874H87.9598V29.686H93.2518V30.874H91.9918L94.4038 35.59H94.4758L96.9778 30.874H95.7178V29.686H99.4438V30.874H98.5258L95.1598 36.832V41.062H96.5818V42.25H90.8218V41.062ZM95.8438 28.606C95.5678 28.606 95.2918 28.552 95.0158 28.444C94.7398 28.324 94.4758 28.198 94.2238 28.066C93.9718 27.934 93.7198 27.808 93.4678 27.688C93.2158 27.568 92.9818 27.508 92.7658 27.508C92.5738 27.508 92.4058 27.544 92.2618 27.616C92.1298 27.688 91.9378 27.886 91.6858 28.21L91.0018 27.526C91.3018 27.01 91.6078 26.584 91.9198 26.248C92.2438 25.9 92.6518 25.726 93.1438 25.726C93.4198 25.726 93.6958 25.786 93.9718 25.906C94.2478 26.014 94.5118 26.134 94.7638 26.266C95.0158 26.398 95.2678 26.53 95.5198 26.662C95.7718 26.782 96.0058 26.842 96.2218 26.842C96.4138 26.842 96.5758 26.806 96.7078 26.734C96.8518 26.662 97.0498 26.458 97.3018 26.122L97.9858 26.806C97.6738 27.334 97.3618 27.766 97.0498 28.102C96.7378 28.438 96.3358 28.606 95.8438 28.606ZM104.824 41.062H106.084V30.874H104.824V29.686H110.26V30.874H109V35.14H113.788V30.874H112.528V29.686H117.964V30.874H116.704V41.062H117.964V42.25H112.528V41.062H113.788V36.436H109V41.062H110.26V42.25H104.824V41.062ZM125.533 41.134C125.905 41.134 126.253 41.074 126.577 40.954C126.901 40.834 127.183 40.648 127.423 40.396C127.675 40.144 127.873 39.82 128.017 39.424C128.161 39.028 128.233 38.554 128.233 38.002V33.934C128.233 33.382 128.161 32.908 128.017 32.512C127.873 32.116 127.675 31.792 127.423 31.54C127.183 31.288 126.901 31.102 126.577 30.982C126.253 30.862 125.905 30.802 125.533 30.802C125.161 30.802 124.813 30.862 124.489 30.982C124.165 31.102 123.877 31.288 123.625 31.54C123.385 31.792 123.193 32.116 123.049 32.512C122.905 32.908 122.833 33.382 122.833 33.934V38.002C122.833 38.554 122.905 39.028 123.049 39.424C123.193 39.82 123.385 40.144 123.625 40.396C123.877 40.648 124.165 40.834 124.489 40.954C124.813 41.074 125.161 41.134 125.533 41.134ZM125.533 42.466C124.693 42.466 123.913 42.322 123.193 42.034C122.473 41.746 121.849 41.332 121.321 40.792C120.793 40.24 120.379 39.562 120.079 38.758C119.779 37.942 119.629 37.012 119.629 35.968C119.629 34.924 119.779 34 120.079 33.196C120.379 32.38 120.793 31.702 121.321 31.162C121.849 30.61 122.473 30.19 123.193 29.902C123.913 29.614 124.693 29.47 125.533 29.47C126.373 29.47 127.153 29.614 127.873 29.902C128.593 30.19 129.217 30.61 129.745 31.162C130.273 31.702 130.687 32.38 130.987 33.196C131.287 34 131.437 34.924 131.437 35.968C131.437 37.012 131.287 37.942 130.987 38.758C130.687 39.562 130.273 40.24 129.745 40.792C129.217 41.332 128.593 41.746 127.873 42.034C127.153 42.322 126.373 42.466 125.533 42.466ZM126.811 25.186C126.535 25.186 126.271 25.126 126.019 25.006C125.767 24.886 125.515 24.766 125.263 24.646C125.011 24.526 124.765 24.4 124.525 24.268C124.297 24.136 124.081 24.07 123.877 24.07C123.781 24.07 123.697 24.082 123.625 24.106C123.553 24.118 123.475 24.154 123.391 24.214C123.319 24.262 123.235 24.346 123.139 24.466C123.043 24.574 122.929 24.718 122.797 24.898L122.113 24.214C122.401 23.722 122.707 23.32 123.031 23.008C123.355 22.684 123.763 22.522 124.255 22.522C124.531 22.522 124.795 22.582 125.047 22.702C125.299 22.822 125.551 22.942 125.803 23.062C126.055 23.182 126.295 23.308 126.523 23.44C126.763 23.572 126.985 23.638 127.189 23.638C127.285 23.638 127.369 23.632 127.441 23.62C127.513 23.596 127.585 23.56 127.657 23.512C127.741 23.452 127.831 23.368 127.927 23.26C128.023 23.14 128.137 22.99 128.269 22.81L128.953 23.494C128.665 23.986 128.359 24.394 128.035 24.718C127.711 25.03 127.303 25.186 126.811 25.186ZM122.365 28.444L124.705 25.582H126.361L128.701 28.444L127.981 29.074L125.533 27.31L123.085 29.074L122.365 28.444ZM139.775 41.062H141.485V30.982H139.145V33.034H137.057V29.686H148.829V33.034H146.741V30.982H144.401V41.062H146.111V42.25H139.775V41.062ZM150.07 41.062H151.33V30.874H150.07V29.686H157.144C157.696 29.686 158.206 29.746 158.674 29.866C159.142 29.986 159.544 30.178 159.88 30.442C160.228 30.694 160.498 31.024 160.69 31.432C160.882 31.828 160.978 32.308 160.978 32.872C160.978 33.304 160.906 33.7 160.762 34.06C160.618 34.42 160.42 34.738 160.168 35.014C159.916 35.278 159.622 35.506 159.286 35.698C158.95 35.878 158.584 36.01 158.188 36.094L160.51 40C160.75 40.408 160.996 40.69 161.248 40.846C161.512 40.99 161.836 41.062 162.22 41.062H162.31V42.25H160.6C160.18 42.25 159.814 42.22 159.502 42.16C159.19 42.088 158.914 41.98 158.674 41.836C158.434 41.692 158.224 41.512 158.044 41.296C157.864 41.08 157.696 40.816 157.54 40.504L155.596 36.688H154.246V41.062H155.506V42.25H150.07V41.062ZM154.246 35.464H156.046C157.33 35.464 157.972 34.894 157.972 33.754V32.692C157.972 31.552 157.33 30.982 156.046 30.982H154.246V35.464ZM168.951 42.466C168.111 42.466 167.331 42.322 166.611 42.034C165.891 41.746 165.267 41.332 164.739 40.792C164.211 40.24 163.797 39.562 163.497 38.758C163.197 37.942 163.047 37.012 163.047 35.968C163.047 34.924 163.197 34 163.497 33.196C163.797 32.38 164.211 31.702 164.739 31.162C165.267 30.61 165.891 30.19 166.611 29.902C167.331 29.614 168.111 29.47 168.951 29.47C169.551 29.47 170.115 29.542 170.643 29.686H172.479V27.688H174.639V29.002C174.639 29.542 174.513 29.95 174.261 30.226C174.009 30.49 173.607 30.622 173.055 30.622H172.569C173.277 31.162 173.835 31.882 174.243 32.782C174.651 33.67 174.855 34.732 174.855 35.968C174.855 37.012 174.705 37.942 174.405 38.758C174.105 39.562 173.691 40.24 173.163 40.792C172.635 41.332 172.011 41.746 171.291 42.034C170.571 42.322 169.791 42.466 168.951 42.466ZM168.951 41.134C169.323 41.134 169.671 41.074 169.995 40.954C170.319 40.834 170.601 40.648 170.841 40.396C171.093 40.144 171.291 39.82 171.435 39.424C171.579 39.028 171.651 38.554 171.651 38.002V33.934C171.651 33.382 171.579 32.908 171.435 32.512C171.291 32.116 171.093 31.792 170.841 31.54C170.601 31.288 170.319 31.102 169.995 30.982C169.671 30.862 169.323 30.802 168.951 30.802C168.579 30.802 168.231 30.862 167.907 30.982C167.583 31.102 167.295 31.288 167.043 31.54C166.803 31.792 166.611 32.116 166.467 32.512C166.323 32.908 166.251 33.382 166.251 33.934V38.002C166.251 38.554 166.323 39.028 166.467 39.424C166.611 39.82 166.803 40.144 167.043 40.396C167.295 40.648 167.583 40.834 167.907 40.954C168.231 41.074 168.579 41.134 168.951 41.134ZM168.951 45.904C168.543 45.904 168.213 45.784 167.961 45.544C167.709 45.316 167.583 44.998 167.583 44.59V44.518C167.583 44.11 167.709 43.786 167.961 43.546C168.213 43.318 168.543 43.204 168.951 43.204C169.359 43.204 169.689 43.318 169.941 43.546C170.193 43.786 170.319 44.11 170.319 44.518V44.59C170.319 44.998 170.193 45.316 169.941 45.544C169.689 45.784 169.359 45.904 168.951 45.904ZM181.159 30.874H180.259V29.686H185.551V30.874H184.111L185.749 36.202L186.811 40.054H186.919L188.053 36.202L189.745 30.874H188.305V29.686H192.175V30.874H191.275L187.459 42.25H184.975L181.159 30.874ZM193.207 41.062H194.467V30.874H193.207V29.686H198.643V30.874H197.383V41.062H198.643V42.25H193.207V41.062ZM200.115 41.062H201.375V30.874H200.115V29.686H210.141V33.034H208.053V30.982H204.291V35.05H206.667V33.97H207.999V37.426H206.667V36.346H204.291V40.954H208.197V38.542H210.285V42.25H200.115V41.062ZM202.239 28.228L204.669 25.042H206.325L208.755 28.228L207.999 28.858L205.497 27.022L202.995 28.858L202.239 28.228ZM205.497 45.904C205.089 45.904 204.759 45.784 204.507 45.544C204.255 45.316 204.129 44.998 204.129 44.59V44.518C204.129 44.11 204.255 43.786 204.507 43.546C204.759 43.318 205.089 43.204 205.497 43.204C205.905 43.204 206.235 43.318 206.487 43.546C206.739 43.786 206.865 44.11 206.865 44.518V44.59C206.865 44.998 206.739 45.316 206.487 45.544C206.235 45.784 205.905 45.904 205.497 45.904ZM217.759 42.466C216.859 42.466 216.061 42.304 215.365 41.98C214.681 41.644 214.099 41.188 213.619 40.612C213.139 40.024 212.773 39.334 212.521 38.542C212.281 37.75 212.161 36.898 212.161 35.986C212.161 34.93 212.305 33.994 212.593 33.178C212.893 32.362 213.289 31.684 213.781 31.144C214.273 30.592 214.843 30.178 215.491 29.902C216.151 29.614 216.835 29.47 217.543 29.47C217.927 29.47 218.263 29.512 218.551 29.596C218.851 29.668 219.109 29.764 219.325 29.884C219.541 30.004 219.721 30.142 219.865 30.298C220.009 30.442 220.117 30.586 220.189 30.73H220.297V29.686H222.385V33.682H220.297V32.872C220.297 32.26 220.093 31.768 219.685 31.396C219.289 31.024 218.707 30.838 217.939 30.838C217.135 30.838 216.505 31.09 216.049 31.594C215.593 32.098 215.365 32.89 215.365 33.97V37.624C215.365 38.188 215.437 38.668 215.581 39.064C215.725 39.46 215.923 39.79 216.175 40.054C216.439 40.318 216.745 40.51 217.093 40.63C217.453 40.75 217.843 40.81 218.263 40.81C219.031 40.81 219.679 40.612 220.207 40.216C220.747 39.808 221.155 39.262 221.431 38.578L222.457 39.172C222.301 39.628 222.079 40.06 221.791 40.468C221.503 40.864 221.155 41.212 220.747 41.512C220.351 41.812 219.901 42.046 219.397 42.214C218.893 42.382 218.347 42.466 217.759 42.466ZM228.117 41.062H229.377V30.874H228.117V29.686H233.643V30.874H232.293V40.954H235.713V38.542H237.801V42.25H228.117V41.062ZM238.793 41.062H239.693L243.599 29.686H246.083L249.989 41.062H250.889V42.25H245.615V41.062H247.055L246.191 38.416H242.087L241.223 41.062H242.663V42.25H238.793V41.062ZM242.447 37.174H245.867L244.175 31.882H244.103L242.447 37.174ZM242.087 25.816L244.427 24.682L245.723 28.462L244.841 28.858L242.087 25.816ZM251.865 41.062H253.125V30.874H251.865V29.686H256.401L259.209 35.734H259.281L261.909 29.686H266.517V30.874H265.257V41.062H266.517V42.25H261.081V41.062H262.341V31.9H262.233L261.189 34.528L258.435 40.324L255.699 34.528L254.637 31.9H254.529V41.062H255.789V42.25H251.865V41.062Z" fill="#E2363C"/>
<path d="M68.4766 12.2168C68.3535 13.2695 67.9639 14.083 67.3076 14.6572C66.6559 15.2269 65.7878 15.5117 64.7031 15.5117C63.5273 15.5117 62.584 15.0902 61.873 14.2471C61.1667 13.404 60.8135 12.276 60.8135 10.8633V9.90625C60.8135 8.98112 60.9775 8.16764 61.3057 7.46582C61.6383 6.764 62.1077 6.22624 62.7139 5.85254C63.32 5.47428 64.0218 5.28516 64.8193 5.28516C65.8766 5.28516 66.7243 5.58138 67.3623 6.17383C68.0003 6.76172 68.3717 7.57747 68.4766 8.62109H67.1572C67.0433 7.82812 66.7949 7.25391 66.4121 6.89844C66.0339 6.54297 65.5029 6.36523 64.8193 6.36523C63.9808 6.36523 63.3223 6.67513 62.8438 7.29492C62.3698 7.91471 62.1328 8.79655 62.1328 9.94043V10.9043C62.1328 11.9844 62.3584 12.8434 62.8096 13.4814C63.2607 14.1195 63.8919 14.4385 64.7031 14.4385C65.4323 14.4385 65.9906 14.2744 66.3779 13.9463C66.7699 13.6136 67.0296 13.0371 67.1572 12.2168H68.4766ZM69.7412 11.6084C69.7412 10.8838 69.8825 10.2321 70.165 9.65332C70.4521 9.07454 70.8486 8.62793 71.3545 8.31348C71.8649 7.99902 72.446 7.8418 73.0977 7.8418C74.1048 7.8418 74.9183 8.19043 75.5381 8.8877C76.1624 9.58496 76.4746 10.5124 76.4746 11.6699V11.7588C76.4746 12.4788 76.3356 13.126 76.0576 13.7002C75.7842 14.2699 75.39 14.7142 74.875 15.0332C74.3646 15.3522 73.7767 15.5117 73.1113 15.5117C72.1087 15.5117 71.2952 15.1631 70.6709 14.4658C70.0511 13.7686 69.7412 12.8457 69.7412 11.6973V11.6084ZM71.0127 11.7588C71.0127 12.5791 71.2018 13.2376 71.5801 13.7344C71.9629 14.2311 72.4733 14.4795 73.1113 14.4795C73.7539 14.4795 74.2643 14.2288 74.6426 13.7275C75.0208 13.2217 75.21 12.5153 75.21 11.6084C75.21 10.7972 75.0163 10.141 74.6289 9.63965C74.2461 9.13379 73.7357 8.88086 73.0977 8.88086C72.4733 8.88086 71.9697 9.12923 71.5869 9.62598C71.2041 10.1227 71.0127 10.8337 71.0127 11.7588ZM75.5518 6.99414H74.3896L73.043 5.72266L71.6963 6.99414H70.541L72.4004 5.20312H73.6855L75.5518 6.99414ZM74.9844 6.05078L74.9775 5.15527C75.2738 5.13704 75.488 5.09831 75.6201 5.03906C75.7568 4.97982 75.8252 4.875 75.8252 4.72461C75.8252 4.41927 75.5039 4.2666 74.8613 4.2666L74.8955 3.6377C75.4788 3.6377 75.9232 3.73796 76.2285 3.93848C76.5339 4.139 76.6865 4.4056 76.6865 4.73828C76.6865 5.00716 76.6022 5.2168 76.4336 5.36719C76.265 5.51758 76.0439 5.60872 75.7705 5.64062L75.7637 6.05078H74.9844ZM79.2568 7.97852L79.2979 8.9082C79.863 8.19727 80.6012 7.8418 81.5127 7.8418C83.0758 7.8418 83.8643 8.72363 83.8779 10.4873V15.375H82.6133V10.4805C82.6087 9.94727 82.4857 9.55306 82.2441 9.29785C82.0072 9.04264 81.6357 8.91504 81.1299 8.91504C80.7197 8.91504 80.3597 9.02441 80.0498 9.24316C79.7399 9.46191 79.4984 9.74902 79.3252 10.1045V15.375H78.0605V7.97852H79.2568ZM85.4844 11.6152C85.4844 10.4622 85.751 9.54622 86.2842 8.86719C86.8174 8.18359 87.5238 7.8418 88.4033 7.8418C89.3057 7.8418 90.0098 8.16081 90.5156 8.79883L90.5771 7.97852H91.7324V15.1973C91.7324 16.1543 91.4476 16.9085 90.8779 17.46C90.3128 18.0114 89.5518 18.2871 88.5947 18.2871C88.0615 18.2871 87.5397 18.1732 87.0293 17.9453C86.5189 17.7174 86.1292 17.4053 85.8604 17.0088L86.5166 16.25C87.0589 16.9199 87.722 17.2549 88.5059 17.2549C89.1211 17.2549 89.5996 17.0817 89.9414 16.7354C90.2878 16.389 90.4609 15.9014 90.4609 15.2725V14.6367C89.9551 15.2201 89.2646 15.5117 88.3896 15.5117C87.5238 15.5117 86.8219 15.1631 86.2842 14.4658C85.751 13.7686 85.4844 12.8184 85.4844 11.6152ZM86.7559 11.7588C86.7559 12.5928 86.9268 13.249 87.2686 13.7275C87.6104 14.2015 88.0889 14.4385 88.7041 14.4385C89.5016 14.4385 90.0872 14.0762 90.4609 13.3516V9.97461C90.0736 9.26823 89.4925 8.91504 88.7178 8.91504C88.1025 8.91504 87.6217 9.1543 87.2754 9.63281C86.929 10.1113 86.7559 10.82 86.7559 11.7588ZM98.835 6.1875V7.97852H100.216V8.95605H98.835V13.543C98.835 13.8392 98.8965 14.0625 99.0195 14.2129C99.1426 14.3587 99.3522 14.4316 99.6484 14.4316C99.7943 14.4316 99.9948 14.4043 100.25 14.3496V15.375C99.9173 15.4661 99.5938 15.5117 99.2793 15.5117C98.7142 15.5117 98.2881 15.3408 98.001 14.999C97.7139 14.6572 97.5703 14.1719 97.5703 13.543V8.95605H96.2236V7.97852H97.5703V6.1875H98.835ZM102.964 8.87402C103.524 8.18587 104.254 7.8418 105.151 7.8418C106.715 7.8418 107.503 8.72363 107.517 10.4873V15.375H106.252V10.4805C106.247 9.94727 106.124 9.55306 105.883 9.29785C105.646 9.04264 105.274 8.91504 104.769 8.91504C104.358 8.91504 103.998 9.02441 103.688 9.24316C103.379 9.46191 103.137 9.74902 102.964 10.1045V15.375H101.699V4.875H102.964V8.87402ZM109.075 11.6084C109.075 10.8838 109.216 10.2321 109.499 9.65332C109.786 9.07454 110.183 8.62793 110.688 8.31348C111.199 7.99902 111.78 7.8418 112.432 7.8418C113.439 7.8418 114.252 8.19043 114.872 8.8877C115.496 9.58496 115.809 10.5124 115.809 11.6699V11.7588C115.809 12.4788 115.67 13.126 115.392 13.7002C115.118 14.2699 114.724 14.7142 114.209 15.0332C113.699 15.3522 113.111 15.5117 112.445 15.5117C111.443 15.5117 110.629 15.1631 110.005 14.4658C109.385 13.7686 109.075 12.8457 109.075 11.6973V11.6084ZM110.347 11.7588C110.347 12.5791 110.536 13.2376 110.914 13.7344C111.297 14.2311 111.807 14.4795 112.445 14.4795C113.088 14.4795 113.598 14.2288 113.977 13.7275C114.355 13.2217 114.544 12.5153 114.544 11.6084C114.544 10.7972 114.35 10.141 113.963 9.63965C113.58 9.13379 113.07 8.88086 112.432 8.88086C111.807 8.88086 111.304 9.12923 110.921 9.62598C110.538 10.1227 110.347 10.8337 110.347 11.7588ZM114.455 6.74805V6.81641H113.409L112.384 5.6543L111.365 6.81641H110.319V6.73438L112.001 4.875H112.767L114.455 6.74805ZM118.591 7.97852L118.632 8.9082C119.197 8.19727 119.935 7.8418 120.847 7.8418C122.41 7.8418 123.198 8.72363 123.212 10.4873V15.375H121.947V10.4805C121.943 9.94727 121.82 9.55306 121.578 9.29785C121.341 9.04264 120.97 8.91504 120.464 8.91504C120.054 8.91504 119.694 9.02441 119.384 9.24316C119.074 9.46191 118.832 9.74902 118.659 10.1045V15.375H117.395V7.97852H118.591ZM124.818 11.6152C124.818 10.4622 125.085 9.54622 125.618 8.86719C126.151 8.18359 126.858 7.8418 127.737 7.8418C128.64 7.8418 129.344 8.16081 129.85 8.79883L129.911 7.97852H131.066V15.1973C131.066 16.1543 130.782 16.9085 130.212 17.46C129.647 18.0114 128.886 18.2871 127.929 18.2871C127.396 18.2871 126.874 18.1732 126.363 17.9453C125.853 17.7174 125.463 17.4053 125.194 17.0088L125.851 16.25C126.393 16.9199 127.056 17.2549 127.84 17.2549C128.455 17.2549 128.934 17.0817 129.275 16.7354C129.622 16.389 129.795 15.9014 129.795 15.2725V14.6367C129.289 15.2201 128.599 15.5117 127.724 15.5117C126.858 15.5117 126.156 15.1631 125.618 14.4658C125.085 13.7686 124.818 12.8184 124.818 11.6152ZM126.09 11.7588C126.09 12.5928 126.261 13.249 126.603 13.7275C126.944 14.2015 127.423 14.4385 128.038 14.4385C128.836 14.4385 129.421 14.0762 129.795 13.3516V9.97461C129.408 9.26823 128.826 8.91504 128.052 8.91504C127.437 8.91504 126.956 9.1543 126.609 9.63281C126.263 10.1113 126.09 10.82 126.09 11.7588ZM138.169 6.1875V7.97852H139.55V8.95605H138.169V13.543C138.169 13.8392 138.23 14.0625 138.354 14.2129C138.477 14.3587 138.686 14.4316 138.982 14.4316C139.128 14.4316 139.329 14.4043 139.584 14.3496V15.375C139.251 15.4661 138.928 15.5117 138.613 15.5117C138.048 15.5117 137.622 15.3408 137.335 14.999C137.048 14.6572 136.904 14.1719 136.904 13.543V8.95605H135.558V7.97852H136.904V6.1875H138.169ZM142.407 15.375H141.143V7.97852H142.407V15.375ZM141.04 6.0166C141.04 5.81152 141.102 5.63835 141.225 5.49707C141.352 5.35579 141.539 5.28516 141.785 5.28516C142.031 5.28516 142.218 5.35579 142.346 5.49707C142.473 5.63835 142.537 5.81152 142.537 6.0166C142.537 6.22168 142.473 6.39258 142.346 6.5293C142.218 6.66602 142.031 6.73438 141.785 6.73438C141.539 6.73438 141.352 6.66602 141.225 6.5293C141.102 6.39258 141.04 6.22168 141.04 6.0166ZM145.634 7.97852L145.675 8.9082C146.24 8.19727 146.978 7.8418 147.89 7.8418C149.453 7.8418 150.241 8.72363 150.255 10.4873V15.375H148.99V10.4805C148.986 9.94727 148.863 9.55306 148.621 9.29785C148.384 9.04264 148.013 8.91504 147.507 8.91504C147.097 8.91504 146.737 9.02441 146.427 9.24316C146.117 9.46191 145.875 9.74902 145.702 10.1045V15.375H144.438V7.97852H145.634Z" fill="#8D8D8D"/>
<g clip-path="url(#clip0)">
<path d="M24.966 50.0678C38.7543 50.0678 49.932 38.9205 49.932 25.1696C49.932 11.4187 38.7543 0.271362 24.966 0.271362C11.1777 0.271362 0 11.4187 0 25.1696C0 38.9205 11.1777 50.0678 24.966 50.0678Z" fill="#FFF200"/>
<path fill-rule="evenodd" clip-rule="evenodd" d="M29.1835 7.19132C37.3468 9.09091 43.4692 16.4179 43.4692 25.1018C43.4692 35.2782 35.1699 43.4871 24.9658 43.4871C14.7617 43.4871 6.4624 35.346 6.4624 25.1696C6.4624 16.4179 12.5849 9.15875 20.7481 7.25916L19.7957 0.542741C21.4284 0.203528 23.1971 0 24.8978 0C26.6665 0 28.3672 0.203528 29.9998 0.542741L29.1835 7.19132Z" fill="#ED1C24"/>
<path fill-rule="evenodd" clip-rule="evenodd" d="M24.9659 20.2849C30 20.2849 34.1496 24.3555 34.1496 29.4437C34.1496 31.2076 33.6734 32.768 32.8571 34.1926H27.9591C26.6666 34.1926 25.6462 34.3962 25.034 35.753C24.3537 34.464 23.4013 34.1926 22.1088 34.1926H17.2108C16.3945 32.8358 15.9183 31.2076 15.9183 29.4437C15.8503 24.4233 19.9319 20.2849 24.9659 20.2849Z" fill="#FFF200"/>
<path fill-rule="evenodd" clip-rule="evenodd" d="M24.9662 33.3785C25.6464 33.3785 26.2587 33.7178 26.5988 34.3283C25.9185 34.5319 25.3743 34.8711 24.9662 35.753C24.558 34.9389 24.0138 34.5319 23.3335 34.3283C23.6736 33.7178 24.2859 33.3785 24.9662 33.3785Z" fill="#00AEEF"/>
<path fill-rule="evenodd" clip-rule="evenodd" d="M34.2177 41.1127C31.4967 42.6731 28.3674 43.555 24.9661 43.555C21.5647 43.555 18.4354 42.6731 15.7144 41.1127H21.4286C22.9252 41.2484 24.1497 41.9268 24.9661 43.4193C25.7824 41.9268 27.0069 41.2484 28.5035 41.1127H34.2177Z" fill="#00AEEF"/>
<path fill-rule="evenodd" clip-rule="evenodd" d="M15.5105 40.9769C15.5105 41.0447 15.5105 41.1126 15.5105 41.1804C15.3745 42.2659 15.3745 43.5549 15.7146 44.5725L15.7826 44.8439L15.5105 44.9118C15.3064 44.9796 15.0343 45.0474 14.7622 45.1153C14.4901 45.1831 14.286 45.251 14.0139 45.3188C13.1296 45.5902 12.3813 45.9294 11.769 46.2686C11.5649 46.1329 11.4289 46.0651 11.2248 45.9294C11.837 45.5223 12.7894 45.1153 13.8098 44.7761C14.0819 44.7082 14.286 44.6404 14.5581 44.5047L14.7622 44.4369C13.9459 43.962 13.1976 43.4871 12.4493 42.9443C11.5649 42.2659 10.7486 41.5875 10.0003 40.8412C9.52412 40.2985 8.97991 39.8236 8.57174 39.213C8.29963 39.0773 8.02752 39.0094 7.75541 38.8738C7.48331 38.8059 7.14317 38.6702 6.87106 38.6024C5.7146 38.331 4.62616 38.331 3.87786 38.3989C3.74181 38.1953 3.67378 38.0597 3.53773 37.8561C4.35405 37.7204 5.64657 37.7204 7.00712 38.0597C7.27922 38.1275 7.55133 38.1953 7.89147 38.2632C7.14317 37.2455 6.4629 36.0922 5.85065 34.9389C4.9663 33.6499 3.74181 32.9715 2.65337 32.6322C2.04113 32.4287 1.49691 32.3609 1.02072 32.293C0.952693 32.0895 0.884666 31.886 0.816639 31.6824C1.42888 31.7503 2.10916 31.8181 2.78943 32.0895C3.53773 32.3609 4.35405 32.7001 5.03433 33.3107C4.42208 31.8181 4.01392 30.3256 3.74181 28.7652C3.60575 28.4938 3.4697 28.1546 3.33365 27.9511C2.44929 26.4586 1.15677 25.5766 -0.135742 25.1017V25.0339C-0.135742 24.8303 -0.135742 24.6268 -0.135742 24.4911C1.15677 24.966 2.51732 25.848 3.53773 27.2727C3.4697 26.7299 3.4697 26.1872 3.4697 25.6445V25.5766C3.4697 25.1696 3.4697 24.8303 3.4697 24.4233C3.33365 22.2523 2.85746 20.7598 2.10916 19.81C1.70099 19.2672 1.2248 18.8602 0.748612 18.5888C0.816639 18.3853 0.884666 18.1818 0.884666 18.0461C1.49691 18.3853 2.10916 18.8602 2.58535 19.5386C3.06154 20.217 3.4697 21.0312 3.67378 22.1166C3.67378 21.9131 3.74181 21.7096 3.80984 21.5061C3.94589 20.8276 4.14997 20.1492 4.35405 19.4708C5.03433 15.5359 4.218 14.0434 2.92548 13.2293C2.99351 13.0257 3.12956 12.89 3.19759 12.6865C4.35405 13.4328 5.23841 14.5861 5.17038 17.232C5.64657 16.1465 6.25882 15.061 6.93909 14.0434C8.09555 10.9226 7.75541 9.1587 7.00712 7.734C7.14317 7.59832 7.27922 7.46263 7.41528 7.32695C8.16358 8.61595 8.63977 10.1763 8.02752 12.5508C8.84385 11.5332 9.7282 10.5834 10.6806 9.76928C12.3813 7.66616 12.5853 5.42735 12.4493 3.52776C12.6534 3.39207 12.7894 3.32423 12.9935 3.18855C13.0615 3.66344 13.0615 4.13834 13.0615 4.61324C13.1976 4.5454 13.3336 4.47756 13.4017 4.40971C13.7418 4.20619 14.0819 4.0705 14.3541 3.86697C16.0547 2.98502 17.8915 2.30659 19.7962 1.89954L19.9323 2.44228C18.0275 2.84933 16.2588 3.52776 14.6262 4.34187C14.286 4.47756 14.0139 4.68108 13.6738 4.88461C13.4697 5.0203 13.1976 5.15598 12.9935 5.29167C12.9935 5.63088 12.9255 5.97009 12.8575 6.37715C13.2656 6.30931 13.4017 6.24146 13.6058 6.10578C13.9459 5.90225 14.286 5.69872 14.6262 5.56304C16.3949 4.61324 18.2996 3.93481 20.2724 3.45992L20.4085 4.00266C18.4357 4.40971 16.599 5.15598 14.8983 6.03794C14.5581 6.24146 14.218 6.37715 13.9459 6.58068C13.6058 6.7842 13.2656 6.98773 12.9255 7.19126V7.12342C12.7894 7.59832 12.5853 8.14106 12.3132 8.61595C14.6942 6.85205 17.4833 5.63088 20.4765 4.95245L20.6126 5.49519C18.0275 6.03794 15.6466 7.12342 13.5377 8.48027C14.4901 8.34458 15.3745 8.61595 16.1908 8.95517C15.9867 9.09085 15.7826 9.22654 15.5105 9.36222C14.286 8.95517 12.9935 8.81948 11.2928 10.2442C10.4765 10.9904 9.66018 11.7367 8.9799 12.6187C9.93229 12.1438 10.9527 12.1438 11.9051 12.2116C11.701 12.4151 11.5649 12.5508 11.3609 12.7544C10.0683 12.6865 8.7078 12.89 7.41528 14.7896L7.34725 14.7218C6.93909 15.4002 6.53093 16.0786 6.19079 16.7571C6.32684 16.6214 6.4629 16.5535 6.66698 16.4857C7.41528 16.0108 8.29963 15.8751 9.11596 15.8073C8.9799 16.0108 8.91188 16.2143 8.77582 16.4179C8.16358 16.4857 7.55133 16.6214 7.00712 16.9606C6.19079 17.4355 5.51052 18.2496 5.17038 19.7421C4.9663 20.3527 4.83024 20.9633 4.69419 21.5739C4.55814 22.3202 4.42208 23.1343 4.35405 23.9484C4.69419 23.4056 5.17038 22.8629 5.7146 22.4558C5.91868 22.3202 6.12276 22.1845 6.32684 22.0488C6.53092 21.9131 6.73501 21.8453 6.93909 21.7774C6.87106 21.9809 6.87106 22.2523 6.80303 22.4558C6.73501 22.5237 6.66698 22.5237 6.59895 22.5915C6.39487 22.7272 6.19079 22.7951 6.05473 22.9986C5.17038 23.677 4.42208 24.6947 4.35405 25.7123C4.35405 25.7801 4.35405 25.9158 4.35405 25.9837H4.28603C4.28603 26.9335 4.42208 27.8154 4.55814 28.6974C4.62616 28.9009 4.69419 29.0366 4.76222 29.2401C4.76222 29.308 4.76222 29.3758 4.83024 29.3758C5.10235 28.6974 5.51052 28.1546 5.98671 27.6797C6.19079 27.544 6.32684 27.3405 6.53093 27.2048C6.59895 27.137 6.66698 27.137 6.73501 27.0691C6.73501 27.2727 6.80303 27.4762 6.80303 27.6797C6.66698 27.8154 6.53092 27.8833 6.32684 28.0189C5.57854 28.7652 5.03433 29.8507 5.10235 30.9362V31.0719H5.03433C5.37446 32.293 5.85065 33.3785 6.32684 34.5318C6.4629 33.5142 6.87106 32.3609 7.41528 31.5468C7.48331 31.4789 7.55133 31.4111 7.55133 31.3432C7.61936 31.5468 7.68739 31.7503 7.82344 31.9538C7.2112 32.9715 6.80303 34.3961 6.80303 35.4138C7.34725 36.3636 7.89147 37.2455 8.50371 38.1275C8.50371 37.1777 8.7078 36.0922 9.04793 35.2781C9.11596 35.0746 9.18399 34.9389 9.32004 34.7354C9.45609 34.9389 9.52412 35.0746 9.66018 35.2781C9.66018 35.3459 9.59215 35.4138 9.59215 35.4816C9.18399 36.4993 9.04793 37.8561 9.18399 38.8738C9.59215 39.4165 10.0683 39.8914 10.5445 40.3663C11.2928 41.1126 12.1092 41.791 12.9255 42.4016C13.6058 42.8765 14.286 43.3514 15.0343 43.7584C14.8983 42.8086 14.8983 41.791 14.9663 40.9769C14.9663 40.8412 15.0343 40.7055 15.0343 40.5698C15.1704 40.7734 15.3745 40.8412 15.5105 40.9769Z" fill="black"/>
<path fill-rule="evenodd" clip-rule="evenodd" d="M34.4898 40.9769C34.4898 41.0447 34.4898 41.1126 34.4898 41.1804C34.6258 42.2659 34.6258 43.5549 34.2857 44.5725L34.2176 44.8439L34.4898 44.9118C34.6938 44.9796 34.9659 45.0474 35.2381 45.1153C35.5102 45.1831 35.7142 45.251 35.9864 45.3188C36.8707 45.5902 37.619 45.9294 38.2312 46.2686C38.4353 46.1329 38.5714 46.0651 38.7755 45.9294C38.1632 45.5223 37.2108 45.1153 36.1904 44.7761C35.9183 44.7082 35.7142 44.6404 35.4421 44.5047L35.2381 44.4369C36.0544 43.962 36.8027 43.4871 37.551 42.9443C38.4353 42.2659 39.2517 41.5875 40 40.8412C40.4761 40.2985 41.0204 39.8236 41.4285 39.213C41.7006 39.0773 41.9727 39.0094 42.2449 38.8738C42.517 38.8059 42.8571 38.6702 43.1292 38.6024C44.2857 38.331 45.3741 38.331 46.1224 38.3989C46.2585 38.1953 46.3265 38.0597 46.4625 37.8561C45.6462 37.7204 44.3537 37.7204 42.9932 38.0597C42.721 38.1275 42.4489 38.1953 42.1088 38.2632C42.8571 37.2455 43.5374 36.0922 44.1496 34.9389C45.034 33.6499 46.2585 32.9715 47.3469 32.6322C47.9591 32.4287 48.5034 32.3609 48.9795 32.293C49.0476 32.0895 49.1156 31.886 49.1836 31.6824C48.5714 31.7503 47.8911 31.8181 47.2108 32.0895C46.4625 32.3609 45.6462 32.7001 44.9659 33.3107C45.5782 31.8181 45.9863 30.3256 46.2585 28.7652C46.3945 28.4938 46.5306 28.1546 46.6666 27.9511C47.551 26.4586 48.8435 25.5766 50.136 25.1017V25.0339C50.136 24.8303 50.136 24.6268 50.136 24.4911C48.8435 24.966 47.4829 25.848 46.4625 27.2727C46.5306 26.7299 46.5306 26.1872 46.5306 25.6445V25.5766C46.5306 25.1696 46.5306 24.8303 46.5306 24.4233C46.6666 22.2523 47.1428 20.7598 47.8911 19.81C48.2993 19.2672 48.7755 18.8602 49.2517 18.5888C49.1836 18.3853 49.1156 18.1818 49.1156 18.0461C48.5033 18.3853 47.8911 18.8602 47.4149 19.5386C46.9387 20.217 46.5306 21.0312 46.3265 22.1166C46.3265 21.9131 46.2585 21.7096 46.1904 21.5061C46.0544 20.8276 45.8503 20.1492 45.6462 19.4708C44.9659 15.5359 45.7823 14.0434 47.0748 13.2293C47.0068 13.0257 46.8707 12.89 46.8027 12.6865C45.6462 13.4328 44.7619 14.5861 44.8299 17.232C44.3537 16.1465 43.7414 15.061 43.0612 14.0434C41.9047 10.9226 42.2449 9.1587 42.9932 7.734C42.8571 7.59832 42.721 7.46263 42.585 7.32695C41.8367 8.61595 41.3605 10.1763 41.9727 12.5508C41.1564 11.5332 40.2721 10.5834 39.3197 9.76928C37.619 7.66616 37.4149 5.42735 37.551 3.52776C37.3469 3.39207 37.2108 3.32423 37.0068 3.18855C36.9387 3.66344 36.9387 4.13834 36.9387 4.61324C36.8027 4.5454 36.6666 4.47756 36.5986 4.40971C36.2585 4.20619 35.9183 4.0705 35.6462 3.86697C33.9455 2.98502 32.1088 2.30659 30.204 1.89954L30.068 2.44228C31.9727 2.84933 33.7415 3.52776 35.3741 4.34187C35.7142 4.47756 35.9864 4.68108 36.3265 4.88461C36.5306 5.0203 36.8027 5.15598 37.0068 5.29167C37.0068 5.63088 37.0748 5.97009 37.1428 6.37715C36.9387 6.24146 36.8027 6.17362 36.5986 6.03794C36.2585 5.83441 35.9183 5.63088 35.5782 5.49519C33.8095 4.5454 31.9047 3.86697 29.9319 3.39207L29.7959 3.93481C31.7687 4.34187 33.6054 5.08814 35.3061 5.97009C35.6462 6.17362 35.9864 6.30931 36.2585 6.51283C36.5986 6.71636 36.8707 6.91989 37.2108 7.12342L37.2789 7.05557C37.4149 7.53047 37.619 8.07321 37.8911 8.54811C35.5102 6.7842 32.721 5.56304 29.7279 4.88461L29.5918 5.42735C32.1768 5.97009 34.5578 7.05557 36.7347 8.41243C35.7823 8.27674 34.8979 8.54811 34.0816 8.88733C34.2857 9.02301 34.4898 9.1587 34.7619 9.29438C35.9864 8.88733 37.2789 8.75164 39.0476 10.1763C39.8639 10.9226 40.6802 11.6689 41.3605 12.5508C40.4081 12.0759 39.3877 12.0759 38.4353 12.1438C38.6394 12.3473 38.7755 12.483 38.9795 12.6865C40.2721 12.6187 41.6326 12.8222 42.9251 14.7218L42.9932 14.6539C43.4013 15.3324 43.8095 16.0108 44.1496 16.6892C44.0136 16.5535 43.8775 16.4857 43.6734 16.4179C42.9251 15.943 42.0408 15.8073 41.2244 15.7394C41.3605 15.943 41.4285 16.1465 41.5646 16.35C42.1768 16.4179 42.7891 16.5535 43.3333 16.8928C44.1496 17.3677 44.8299 18.1818 45.17 19.6743C45.3741 20.2849 45.5102 20.8955 45.6462 21.5061C45.7823 22.2523 45.9183 23.0664 45.9863 23.8805C45.6462 23.3378 45.17 22.7951 44.6258 22.388C44.4217 22.2523 44.2176 22.1166 44.0136 21.981C43.8095 21.8453 43.6054 21.7774 43.4013 21.7096C43.4693 21.9131 43.4693 22.1845 43.5374 22.388C43.6054 22.4558 43.6734 22.4558 43.7415 22.5237C43.9455 22.6594 44.1496 22.7272 44.2857 22.9307C45.17 23.6092 45.9183 24.6268 45.9863 25.6445C45.9863 25.7123 45.9863 25.848 45.9863 25.9158H46.0544C46.0544 26.8656 45.9183 27.7476 45.7823 28.6295C45.7142 28.8331 45.6462 28.9687 45.5782 29.1723C45.5782 29.2401 45.5782 29.308 45.5102 29.308C45.238 28.6295 44.8299 28.0868 44.3537 27.6119C44.1496 27.4762 44.0136 27.2727 43.8095 27.137C43.7415 27.0691 43.6734 27.0691 43.6054 27.0013C43.6054 27.2048 43.5374 27.4084 43.5374 27.6119C43.6734 27.7476 43.8095 27.8154 44.0136 27.9511C44.7619 28.6974 45.3061 29.7829 45.238 30.8683V31.004H45.3061C44.9659 32.2252 44.4897 33.3107 44.0136 34.464C43.8775 33.4464 43.4693 32.293 42.9251 31.4789C42.8571 31.4111 42.7891 31.3432 42.7891 31.2754C42.721 31.4789 42.653 31.6824 42.517 31.886C43.1972 32.9036 43.5374 34.3283 43.5374 35.3459C42.9932 36.2957 42.4489 37.1777 41.8367 38.0597C41.8367 37.1099 41.6326 36.0244 41.2925 35.2103C41.2244 35.0067 41.1564 34.871 41.0204 34.6675C40.8843 34.871 40.8163 35.0067 40.6802 35.2103C40.6802 35.2781 40.7483 35.3459 40.7483 35.4138C41.1564 36.4314 41.2925 37.7883 41.1564 38.8059C40.7483 39.3487 40.2721 39.8236 39.7959 40.2985C39.0476 41.0447 38.2312 41.7232 37.4149 42.3337C36.7347 42.8086 36.0544 43.2835 35.3061 43.6906C35.4421 42.7408 35.4421 41.7232 35.3741 40.909C35.3741 40.7734 35.3061 40.6377 35.3061 40.502C34.8299 40.7734 34.6938 40.8412 34.4898 40.9769Z" fill="black"/>
<path fill-rule="evenodd" clip-rule="evenodd" d="M24.9658 43.4193C24.1495 41.9268 22.925 41.2484 21.4284 41.1127H14.9658V34.7355H21.9726C23.2651 34.7355 24.2855 34.939 24.8978 36.2959C25.5781 35.0068 26.5304 34.7355 27.823 34.7355H34.8298V41.1127H28.3672C27.0066 41.1805 25.7821 41.9268 24.9658 43.4193Z" fill="white" stroke="black" stroke-width="0.5669" stroke-miterlimit="10"/>
<path d="M24.9658 36.2958V43.4193" stroke="black" stroke-width="0.8504" stroke-miterlimit="10"/>
<path fill-rule="evenodd" clip-rule="evenodd" d="M24.9658 40.502C25.9182 39.1452 27.6869 38.9417 29.4556 38.9417H34.9658L24.9658 40.502ZM24.9658 40.502C24.0134 39.1452 22.2447 38.9417 20.476 38.9417H14.9658" fill="white"/>
<path d="M24.9658 40.502C24.0134 39.1452 22.2447 38.9417 20.476 38.9417H14.9658M24.9658 40.502C25.9182 39.1452 27.6869 38.9417 29.4556 38.9417H34.9658L24.9658 40.502Z" stroke="black" stroke-width="0.5669" stroke-miterlimit="10"/>
<path fill-rule="evenodd" clip-rule="evenodd" d="M24.9661 22.5916C26.1226 22.5916 27.2791 22.8629 28.2314 23.4057L27.6192 25.848C26.8709 25.3053 25.9865 24.966 24.9661 24.966C24.0818 24.966 23.2655 25.2374 22.5852 25.7123L21.9729 23.3378C22.9253 22.8629 23.9457 22.5916 24.9661 22.5916ZM30.2042 25.0339C31.2246 26.1872 31.7689 27.7476 31.7689 29.3758C31.7689 31.2754 31.0206 32.9036 29.7961 34.1248H28.9797L27.9593 32.5644C28.8437 31.7503 29.3879 30.597 29.3879 29.308C29.3879 29.0366 29.3879 28.6974 29.3199 28.426L30.2042 25.0339ZM20.8165 27.9511C20.6804 28.426 20.6124 28.9009 20.6124 29.3758C20.6124 30.6648 21.1566 31.8181 22.041 32.6323L21.0206 34.1926H20.2042C18.9797 32.9715 18.2314 31.2754 18.2314 29.4437C18.2314 27.6797 18.9117 26.0515 20.0682 24.8304L20.8165 27.9511ZM26.5988 34.3283C25.9185 34.5318 25.3743 34.9389 24.9661 35.753C24.558 34.9389 24.0138 34.5318 23.3335 34.3283L23.7417 33.6499C24.0818 33.7177 24.4899 33.7856 24.8981 33.7856C25.3063 33.7856 25.7144 33.7177 26.0546 33.6499L26.5988 34.3283Z" fill="#00AEEF"/>
<path fill-rule="evenodd" clip-rule="evenodd" d="M25.9862 33.6499C25.646 33.7178 25.3059 33.7856 24.9658 33.7856C24.6256 33.7856 24.2855 33.7178 23.9454 33.6499V33.5821C23.9454 33.0393 24.4215 32.5644 24.9658 32.5644C25.51 32.5644 25.9862 33.0393 25.9862 33.5821C26.0542 33.6499 25.9862 33.6499 25.9862 33.6499ZM27.3467 25.6445V26.8657H22.6528V25.6445C23.3331 25.2374 24.1494 24.9661 24.9658 24.9661C25.8501 24.9661 26.6664 25.2374 27.3467 25.6445Z" fill="black"/>
<path fill-rule="evenodd" clip-rule="evenodd" d="M27.2788 18.9281C28.0271 19.1316 28.8435 19.3351 29.5237 19.6743L29.1836 21.2347C29.9319 21.6418 30.6802 22.1167 31.2925 22.7273L32.721 21.981C33.2652 22.5237 33.6734 23.0665 34.0816 23.6771L32.9931 24.8304C33.4013 25.5088 33.6734 26.1872 33.8775 26.9335L35.5101 27.0013C35.7142 27.7476 35.7822 28.5617 35.7822 29.3758C35.7822 29.4437 35.7822 29.5794 35.7822 29.6472L34.2176 30.1899C34.0816 31.6146 33.6054 32.9715 32.9251 34.1248H30.8163C31.9047 32.8358 32.585 31.1397 32.585 29.3758C32.585 27.4084 31.7686 25.5766 30.5442 24.2198L30.8163 22.9986L28.6394 22.4559L28.5714 22.7951C27.551 22.2524 26.3945 21.981 25.17 21.981C24.0135 21.981 22.9931 22.2524 22.0407 22.6594L21.7686 22.4559L19.5918 22.9986L19.8639 24.0163C18.4353 25.3731 17.551 27.2727 17.551 29.3758C17.551 31.2076 18.2312 32.8358 19.3197 34.1248H17.2108C16.5986 33.1072 16.1224 31.9539 15.9863 30.7327L14.4217 30.4613C14.2856 30.1221 14.2856 29.7829 14.2856 29.3758C14.2856 28.8331 14.3537 28.2904 14.4217 27.7476L16.0544 27.5441C16.2584 26.6621 16.5305 25.7802 17.0067 25.0339L15.9183 23.8127C16.3265 23.1343 16.8027 22.5237 17.3469 21.981L18.7754 22.7273C19.4557 22.1167 20.204 21.5739 21.0203 21.1669L20.8163 19.5387C21.4965 19.2673 22.2448 18.9959 22.9931 18.8602L23.7414 20.2849C24.1496 20.2171 24.6258 20.2171 25.0339 20.2171C25.5782 20.2171 26.1224 20.2849 26.5986 20.3528L27.2788 18.9281Z" fill="#00AEEF"/>
<path fill-rule="evenodd" clip-rule="evenodd" d="M29.4559 23.745L28.8436 29.8508V29.9186L28.4355 30.8684L28.3674 30.9363L27.0069 32.2253C27.279 32.6323 27.4831 33.1072 27.4831 33.5821H27.0749C27.0749 33.1072 26.8708 32.6323 26.5307 32.2931C26.1906 31.9539 25.7144 31.7504 25.2382 31.7504C24.694 31.7504 24.2858 31.9539 23.9457 32.2931C23.6055 32.6323 23.4015 33.1072 23.4015 33.5821H22.9933C22.9933 33.0394 23.1974 32.6323 23.4695 32.2253L22.1089 30.9363L22.0409 30.8684L21.6328 29.9186V29.8508L21.0205 23.745L21.4287 23.6771L22.0409 29.783L22.3811 30.6649L22.5851 30.8684C22.5851 30.8006 22.6532 30.7328 22.6532 30.6649C22.7892 30.3935 22.9933 30.19 23.3334 30.0543V29.3759C23.3334 29.1724 23.4015 28.901 23.6055 28.7653C23.7416 28.6296 23.9457 28.4939 24.2178 28.4939H26.2586C26.4627 28.4939 26.7348 28.5618 26.8708 28.7653C27.0069 28.901 27.143 29.1045 27.143 29.3759V30.0543C27.211 30.0543 27.279 30.1222 27.347 30.1222C27.6191 30.2579 27.8232 30.5292 27.8913 30.8684L28.0953 30.6649L28.4355 29.783L29.0477 23.6771L29.4559 23.745ZM26.7348 31.9539L27.5511 31.2076C27.5511 30.9363 27.4151 30.6649 27.143 30.5292C27.0749 30.5292 27.0749 30.4614 27.0069 30.4614C26.9389 30.4614 26.8708 30.4614 26.8708 30.4614H23.7416C23.4695 30.4614 23.1974 30.6649 23.1294 30.8684C23.1294 30.9363 23.0613 31.0041 23.0613 31.0041C23.0613 31.072 23.0613 31.1398 23.0613 31.2076L23.8776 31.9539C24.2858 31.6147 24.83 31.4112 25.3742 31.4112C25.8504 31.3433 26.3266 31.6147 26.7348 31.9539ZM23.0613 27.8834H27.4151V28.2904H23.0613V27.8834ZM26.2586 28.901H24.2178C24.0817 28.901 24.0137 28.9688 23.8776 29.0367C23.8096 29.1045 23.7416 29.2402 23.7416 29.3759V29.9865H26.7348V29.3759C26.7348 29.2402 26.6668 29.1045 26.5987 29.0367C26.5307 28.9688 26.3947 28.901 26.2586 28.901Z" fill="#ED1C24"/>
<path fill-rule="evenodd" clip-rule="evenodd" d="M29.1155 15.5359C28.5713 16.4857 26.3264 16.2144 24.0815 14.8575C21.9046 13.5007 20.544 11.6689 21.0883 10.7191C21.6325 9.76933 23.8774 10.0407 26.1223 11.3975C28.2992 12.6866 29.6597 14.5183 29.1155 15.5359ZM29.1155 10.6513C28.5713 9.70149 26.3264 9.97286 24.0815 11.3297C21.9046 12.6866 20.544 14.5183 21.0883 15.4681C21.6325 16.4179 23.8774 16.1465 26.1223 14.7897C28.2992 13.5007 29.6597 11.6689 29.1155 10.6513ZM24.9658 8.41248C23.8774 8.41248 22.993 10.5156 23.0611 13.0936C23.1291 15.6716 24.0815 17.7748 25.1699 17.7748C26.2583 17.7748 27.1427 15.6716 27.0747 13.0936C27.0747 10.5156 26.1223 8.41248 24.9658 8.41248Z" stroke="black" stroke-width="0.5669" stroke-miterlimit="10"/>
<path d="M25.102 13.7042C25.4401 13.7042 25.7142 13.4308 25.7142 13.0936C25.7142 12.7564 25.4401 12.483 25.102 12.483C24.7639 12.483 24.4897 12.7564 24.4897 13.0936C24.4897 13.4308 24.7639 13.7042 25.102 13.7042Z" fill="black"/>
<path fill-rule="evenodd" clip-rule="evenodd" d="M23.0611 6.85204L23.7414 4.68108L21.9727 3.39207H24.1495L24.9659 1.01758L25.8502 3.39207H28.0271L26.2584 4.68108L26.9386 6.85204L24.9659 5.56303L23.0611 6.85204Z" fill="#FFF200"/>
<path fill-rule="evenodd" clip-rule="evenodd" d="M15.5781 47.1506L16.6666 44.4369L17.2108 44.6404L16.3264 46.8792L17.687 47.422L17.4829 47.8969L15.5781 47.1506ZM18.9115 45.3188L19.9319 45.5902C20.0679 45.5902 20.204 45.6581 20.272 45.6581H20.34H20.4081H20.4761H20.5441C20.6802 45.7259 20.8162 45.8616 20.8842 45.9973C20.9523 46.133 21.0203 46.3365 21.0203 46.54C21.0203 46.7435 21.0203 46.9471 20.9523 47.2184C20.8842 47.422 20.8162 47.6255 20.6802 47.829C20.5441 48.0326 20.4081 48.1682 20.272 48.2361C20.1359 48.3039 19.9999 48.3718 19.7958 48.3718H19.7278H19.5917H19.4557H19.3196L18.2312 48.1682L18.5033 46.9471L18.2312 46.8114L18.2992 46.4722L18.5713 46.54L18.9115 45.3188ZM19.3876 45.9294L19.1836 46.6757L19.7958 46.8114L19.7278 47.1506L19.1155 47.0149L18.9115 47.7612L19.3196 47.829C19.5237 47.8969 19.6598 47.8969 19.7278 47.8969C19.8638 47.8969 19.9319 47.829 19.9999 47.7612C20.1359 47.6255 20.204 47.422 20.272 47.1506C20.34 46.9471 20.34 46.7435 20.34 46.6757C20.34 46.54 20.272 46.4722 20.272 46.4043C20.204 46.3365 20.1359 46.2686 20.0679 46.2008L19.9999 46.133H19.9319L19.5917 46.0651L19.3876 45.9294ZM21.4285 48.0326L21.4965 47.4898L22.5849 47.6255L22.5169 48.1682L21.4285 48.0326ZM23.8094 49.0502L23.8774 46.6079H22.9931V46.133L25.306 46.2008V46.6757H24.4217L24.3536 49.118L23.8094 49.0502ZM25.7142 46.133L26.8706 46.0651C27.0067 46.0651 27.0747 46.0651 27.1427 46.0651C27.2108 46.0651 27.2788 46.0651 27.3468 46.0651C27.4829 46.0651 27.5509 46.133 27.687 46.133C27.755 46.2008 27.891 46.2686 27.9591 46.3365C28.0271 46.4043 28.0951 46.54 28.0951 46.6757C28.0951 46.8114 28.0951 46.9471 28.0271 47.0828C27.9591 47.2184 27.891 47.2863 27.755 47.3541C27.9591 47.422 28.0951 47.4898 28.1632 47.5577C28.2992 47.6933 28.2992 47.829 28.3672 47.9647C28.3672 48.1004 28.3672 48.2361 28.2992 48.3718C28.2312 48.5075 28.1632 48.5753 28.0951 48.711C28.0271 48.7788 27.891 48.8467 27.687 48.9145L27.4149 48.9823C27.3468 48.9823 27.2108 48.9823 27.1427 48.9823C27.0747 48.9823 27.0067 48.9823 26.9387 48.9823L25.9183 49.0502L25.7142 46.133ZM26.3264 46.6079L26.3944 47.2863H26.8026H26.8706H26.9387H27.0067H27.0747C27.1427 47.2863 27.1427 47.2863 27.2108 47.2863C27.2788 47.2863 27.4149 47.2184 27.4149 47.1506C27.4829 47.0828 27.4829 47.0149 27.4829 46.9471C27.4829 46.8792 27.4149 46.8114 27.4149 46.7435C27.3468 46.6757 27.2788 46.6757 27.2108 46.6757C27.1427 46.6757 26.9387 46.6757 26.7346 46.6757L26.3264 46.6079ZM26.4625 47.7612L26.5305 48.5074L27.0747 48.4396C27.2788 48.4396 27.4149 48.3718 27.4829 48.3718C27.5509 48.3718 27.6189 48.3039 27.687 48.2361C27.755 48.1682 27.755 48.1004 27.755 47.9647C27.755 47.8969 27.687 47.829 27.687 47.7612C27.6189 47.6933 27.5509 47.6933 27.4829 47.6255C27.4149 47.6255 27.2108 47.6255 26.9387 47.6255L26.4625 47.7612ZM28.9795 48.7788L29.5917 47.0828L28.3672 45.9294L29.0475 45.7937L29.8638 46.6079L30.204 45.5902L30.8842 45.4545L30.34 47.0149L31.6325 48.2361L30.9523 48.3718L30.0679 47.4898L29.6598 48.6431L28.9795 48.7788ZM32.3128 48.0326L31.2244 45.3188L31.7686 45.1153L32.1768 46.2008L33.2652 45.7937L32.857 44.7083L33.4012 44.5047L34.4897 47.2184L33.9455 47.422L33.4012 46.133L32.3128 46.54L32.789 47.6933L32.3128 48.0326Z" fill="#ED1C24"/>
</g>
<defs>
<clipPath id="clip0">
<path d="M0 0H50V50H0V0Z" fill="white"/>
</clipPath>
</defs>
</svg>
