<svg width="80" height="80" viewBox="0 0 80 80" fill="none" xmlns="http://www.w3.org/2000/svg">
<g clip-path="url(#clip0)">
<path d="M39.9456 80.1084C62.0069 80.1084 79.8912 62.2727 79.8912 40.2713C79.8912 18.2698 62.0069 0.434082 39.9456 0.434082C17.8842 0.434082 0 18.2698 0 40.2713C0 62.2727 17.8842 80.1084 39.9456 80.1084Z" fill="#FFF200"/>
<path fill-rule="evenodd" clip-rule="evenodd" d="M46.6941 11.5061C59.7553 14.5455 69.5512 26.2687 69.5512 40.1628C69.5512 56.4451 56.2723 69.5794 39.9458 69.5794C23.6192 69.5794 10.3403 56.5536 10.3403 40.2714C10.3403 26.2687 20.1363 14.654 33.1975 11.6147L31.6737 0.868385C34.2859 0.325645 37.1158 0 39.8369 0C42.6669 0 45.388 0.325645 48.0002 0.868385L46.6941 11.5061Z" fill="#ED1C24"/>
<path fill-rule="evenodd" clip-rule="evenodd" d="M39.9458 32.4558C48.0002 32.4558 54.6397 38.9687 54.6397 47.1098C54.6397 49.9321 53.8778 52.4287 52.5716 54.7082H44.7349C42.6669 54.7082 41.0342 55.0338 40.0546 57.2048C38.9662 55.1424 37.4424 54.7082 35.3744 54.7082H27.5376C26.2315 52.5372 25.4696 49.9321 25.4696 47.1098C25.3608 39.0773 31.8914 32.4558 39.9458 32.4558Z" fill="#FFF200"/>
<path fill-rule="evenodd" clip-rule="evenodd" d="M39.9457 53.4058C41.0342 53.4058 42.0138 53.9485 42.558 54.9254C41.4696 55.2511 40.5988 55.7938 39.9457 57.2049C39.2927 55.9024 38.4219 55.2511 37.3335 54.9254C37.8777 53.9485 38.8573 53.4058 39.9457 53.4058Z" fill="#00AEEF"/>
<path fill-rule="evenodd" clip-rule="evenodd" d="M54.7485 65.7803C50.3948 68.2769 45.388 69.688 39.9458 69.688C34.5036 69.688 29.4968 68.2769 25.1431 65.7803H34.2859C36.6805 65.9974 38.6397 67.0829 39.9458 69.4709C41.2519 67.0829 43.2111 65.9974 45.6056 65.7803H54.7485Z" fill="#00AEEF"/>
<path fill-rule="evenodd" clip-rule="evenodd" d="M24.8167 65.5631C24.8167 65.6716 24.8167 65.7802 24.8167 65.8887C24.599 67.6255 24.599 69.6879 25.1433 71.3161L25.2521 71.7503L24.8167 71.8588C24.4902 71.9674 24.0548 72.076 23.6195 72.1845C23.1841 72.293 22.8575 72.4016 22.4222 72.5101C21.0072 72.9443 19.8099 73.4871 18.8303 74.0298C18.5038 73.8127 18.2861 73.7042 17.9596 73.4871C18.9392 72.8358 20.463 72.1845 22.0956 71.6418C22.531 71.5332 22.8575 71.4247 23.2929 71.2076L23.6195 71.099C22.3133 70.3392 21.116 69.5793 19.9188 68.711C18.5038 67.6255 17.1977 66.54 16.0004 65.346C15.2385 64.4776 14.3677 63.7177 13.7147 62.7408C13.2793 62.5237 12.8439 62.4152 12.4086 62.1981C11.9732 62.0895 11.429 61.8724 10.9936 61.7639C9.14326 61.3297 7.40176 61.3297 6.20448 61.4382C5.9868 61.1126 5.87795 60.8955 5.66027 60.5698C6.96639 60.3527 9.03442 60.3527 11.2113 60.8955C11.6467 61.004 12.082 61.1126 12.6263 61.2211C11.429 59.5929 10.3405 57.7476 9.36095 55.9023C7.94598 53.8399 5.9868 52.7544 4.2453 52.2116C3.26571 51.886 2.39496 51.7774 1.63306 51.6689C1.52421 51.3432 1.41537 51.0176 1.30652 50.692C2.28612 50.8005 3.37455 50.9091 4.46299 51.3432C5.66027 51.7774 6.96639 52.3202 8.05482 53.2971C7.07523 50.909 6.42217 48.521 5.9868 46.0244C5.76911 45.5902 5.55142 45.0475 5.33374 44.7218C3.91877 42.3337 1.85074 40.9226 -0.217285 40.1628V40.0542C-0.217285 39.7286 -0.217285 39.4029 -0.217285 39.1858C1.85074 39.9457 4.02761 41.3568 5.66027 43.6363C5.55142 42.7679 5.55142 41.8996 5.55142 41.0312V40.9226C5.55142 40.2713 5.55142 39.7286 5.55142 39.0773C5.33373 35.6038 4.57183 33.2157 3.37455 31.696C2.72149 30.8276 1.95959 30.1764 1.19768 29.7422C1.30652 29.4165 1.41537 29.0909 1.41537 28.8738C2.39496 29.4165 3.37455 30.1764 4.13646 31.2618C4.89836 32.3473 5.55142 33.6499 5.87795 35.3867C5.87795 35.061 5.9868 34.7354 6.09564 34.4097C6.31333 33.3242 6.63986 32.2388 6.96639 31.1533C8.05482 24.8575 6.7487 22.4694 4.68067 21.1669C4.78952 20.8412 5.0072 20.6241 5.11605 20.2985C6.96639 21.4925 8.38135 23.3378 8.27251 27.5712C9.03442 25.8344 10.014 24.0977 11.1024 22.4694C12.9528 17.4762 12.4086 14.654 11.2113 12.3744C11.429 12.1574 11.6467 11.9403 11.8643 11.7232C13.0616 13.7856 13.8235 16.2822 12.8439 20.0814C14.1501 18.4531 15.565 16.9335 17.0888 15.6309C19.8099 12.2659 20.1365 8.68381 19.9188 5.64446C20.2453 5.42737 20.463 5.31882 20.7895 5.10172C20.8984 5.86156 20.8984 6.6214 20.8984 7.38123C21.1161 7.27269 21.3337 7.16414 21.4426 7.05559C21.9868 6.72994 22.531 6.51285 22.9664 6.1872C25.6875 4.77608 28.6263 3.6906 31.6739 3.03931L31.8916 3.90769C28.8439 4.55898 26.014 5.64446 23.4018 6.94704C22.8575 7.16414 22.4222 7.48978 21.878 7.81543C21.5514 8.03252 21.1161 8.24962 20.7895 8.46672C20.7895 9.00946 20.6807 9.5522 20.5718 10.2035C21.2249 10.0949 21.4426 9.98639 21.7691 9.76929C22.3133 9.44365 22.8575 9.118 23.4018 8.90091C26.2317 7.38123 29.2793 6.29575 32.4358 5.53591L32.6535 6.4043C29.497 7.05559 26.5582 8.24962 23.8371 9.66074C23.2929 9.98639 22.7487 10.2035 22.3133 10.5291C21.7691 10.8548 21.2249 11.1804 20.6807 11.5061V11.3975C20.463 12.1574 20.1365 13.0257 19.7011 13.7856C23.5106 10.9633 27.9732 9.00946 32.7623 7.92397L32.98 8.79236C28.8439 9.66075 25.0344 11.3975 21.6603 13.5685C23.1841 13.3514 24.599 13.7856 25.9052 14.3283C25.5786 14.5454 25.2521 14.7625 24.8167 14.9796C22.8575 14.3283 20.7895 14.1112 18.0684 16.3907C16.7623 17.5848 15.4562 18.7788 14.3677 20.1899C15.8916 19.4301 17.5242 19.4301 19.048 19.5386C18.7215 19.8643 18.5038 20.0814 18.1773 20.407C16.1092 20.2985 13.9324 20.6241 11.8643 23.6635L11.7555 23.5549C11.1024 24.6404 10.4494 25.7259 9.90516 26.8114C10.1229 26.5943 10.3405 26.4857 10.6671 26.3772C11.8643 25.6173 13.2793 25.4002 14.5854 25.2917C14.3677 25.6173 14.2589 25.943 14.0412 26.2686C13.0616 26.3772 12.082 26.5943 11.2113 27.137C9.90516 27.8968 8.81673 29.1994 8.27251 31.5875C7.94598 32.5644 7.72829 33.5413 7.51061 34.5183C7.29292 35.7123 7.07523 37.0149 6.96639 38.3175C7.51061 37.4491 8.27251 36.5807 9.14326 35.9294C9.46979 35.7123 9.79632 35.4952 10.1229 35.2781C10.4494 35.061 10.7759 34.9525 11.1024 34.8439C10.9936 35.1696 10.9936 35.6038 10.8848 35.9294C10.7759 36.038 10.6671 36.038 10.5582 36.1465C10.2317 36.3636 9.90516 36.4721 9.68748 36.7978C8.27251 37.8833 7.07523 39.5115 6.96639 41.1397C6.96639 41.2483 6.96639 41.4654 6.96639 41.5739H6.85754C6.85754 43.0936 7.07523 44.5047 7.29292 45.9158C7.40176 46.2415 7.51061 46.4586 7.61945 46.7842C7.61945 46.8928 7.61945 47.0013 7.72829 47.0013C8.16367 45.9158 8.81673 45.0475 9.57863 44.2876C9.90516 44.0705 10.1229 43.7449 10.4494 43.5278C10.5582 43.4192 10.6671 43.4192 10.7759 43.3107C10.7759 43.6363 10.8848 43.962 10.8848 44.2876C10.6671 44.5047 10.4494 44.6133 10.1229 44.8304C8.92557 46.0244 8.05482 47.7612 8.16367 49.4979V49.715H8.05482C8.59904 51.6689 9.36095 53.4057 10.1229 55.251C10.3405 53.6228 10.9936 51.7774 11.8643 50.4749C11.9732 50.3663 12.082 50.2578 12.082 50.1492C12.1909 50.4749 12.2997 50.8005 12.5174 51.1261C11.5378 52.7544 10.8848 55.0339 10.8848 56.6621C11.7555 58.1818 12.6263 59.5929 13.6058 61.004C13.6058 59.4844 13.9324 57.7476 14.4766 56.445C14.5854 56.1194 14.6943 55.9023 14.912 55.5766C15.1297 55.9023 15.2385 56.1194 15.4562 56.445C15.4562 56.5536 15.3473 56.6621 15.3473 56.7707C14.6943 58.3989 14.4766 60.5698 14.6943 62.1981C15.3473 63.0664 16.1092 63.8263 16.8712 64.5861C18.0684 65.7802 19.3746 66.8656 20.6807 67.8426C21.7691 68.6024 22.8575 69.3622 24.0548 70.0135C23.8371 68.4939 23.8371 66.8656 23.946 65.5631C23.946 65.346 24.0548 65.1289 24.0548 64.9118C24.2725 65.2374 24.599 65.346 24.8167 65.5631Z" fill="black"/>
<path fill-rule="evenodd" clip-rule="evenodd" d="M55.1839 65.5631C55.1839 65.6716 55.1839 65.7802 55.1839 65.8887C55.4016 67.6255 55.4016 69.6879 54.8574 71.3161L54.7485 71.7503L55.1839 71.8588C55.5104 71.9674 55.9458 72.076 56.3812 72.1845C56.8166 72.293 57.1431 72.4016 57.5785 72.5101C58.9934 72.9443 60.1907 73.4871 61.1703 74.0298C61.4968 73.8127 61.7145 73.7042 62.041 73.4871C61.0614 72.8358 59.5376 72.1845 57.905 71.6418C57.4696 71.5332 57.1431 71.4247 56.7077 71.2076L56.3812 71.099C57.6873 70.3392 58.8846 69.5793 60.0819 68.711C61.4968 67.6255 62.8029 66.54 64.0002 65.346C64.7621 64.4776 65.6329 63.7177 66.2859 62.7408C66.7213 62.5237 67.1567 62.4152 67.5921 62.1981C68.0274 62.0895 68.5717 61.8724 69.007 61.7639C70.8574 61.3297 72.5989 61.3297 73.7961 61.4382C74.0138 61.1126 74.1227 60.8955 74.3404 60.5698C73.0342 60.3527 70.9662 60.3527 68.7893 60.8955C68.354 61.004 67.9186 61.1126 67.3744 61.2211C68.5717 59.5929 69.6601 57.7476 70.6397 55.9023C72.0546 53.8399 74.0138 52.7544 75.7553 52.2116C76.7349 51.886 77.6057 51.7774 78.3676 51.6689C78.4764 51.3432 78.5853 51.0176 78.6941 50.692C77.7145 50.8005 76.6261 50.9091 75.5376 51.3432C74.3404 51.7774 73.0342 52.3202 71.9458 53.2971C72.9254 50.909 73.5784 48.521 74.0138 46.0244C74.2315 45.5902 74.4492 45.0475 74.6669 44.7218C76.0818 42.3337 78.1499 40.9226 80.2179 40.1628V40.0542C80.2179 39.7286 80.2179 39.4029 80.2179 39.1858C78.1499 39.9457 75.973 41.3568 74.3404 43.6363C74.4492 42.7679 74.4492 41.8996 74.4492 41.0312V40.9226C74.4492 40.2713 74.4492 39.7286 74.4492 39.0773C74.6669 35.6038 75.4288 33.2157 76.6261 31.696C77.2791 30.8276 78.041 30.1764 78.8029 29.7422C78.6941 29.4165 78.5852 29.0909 78.5852 28.8738C77.6057 29.4165 76.6261 30.1764 75.8642 31.2618C75.1023 32.3473 74.4492 33.6499 74.1227 35.3867C74.1227 35.061 74.0138 34.7354 73.905 34.4097C73.6873 33.3242 73.3608 32.2388 73.0342 31.1533C71.9458 24.8575 73.2519 22.4694 75.3199 21.1669C75.2111 20.8412 74.9934 20.6241 74.8846 20.2985C73.0342 21.4925 71.6193 23.3378 71.7281 27.5712C70.9662 25.8344 69.9866 24.0977 68.8982 22.4694C67.0478 17.4762 67.5921 14.654 68.7893 12.3744C68.5716 12.1574 68.354 11.9403 68.1363 11.7232C66.939 13.7856 66.1771 16.2822 67.1567 20.0814C65.8506 18.4531 64.4356 16.9335 62.9118 15.6309C60.1907 12.2659 59.8642 8.68381 60.0819 5.64446C59.7553 5.42737 59.5376 5.31882 59.2111 5.10172C59.1023 5.86156 59.1023 6.6214 59.1023 7.38123C58.8846 7.27269 58.6669 7.16414 58.558 7.05559C58.0138 6.72994 57.4696 6.51285 57.0342 6.1872C54.3132 4.77608 51.3744 3.6906 48.3268 3.03931L48.1091 3.90769C51.1567 4.55898 53.9866 5.64446 56.5989 6.94704C57.1431 7.16414 57.5785 7.48978 58.1227 7.81543C58.4492 8.03252 58.8846 8.24962 59.2111 8.46672C59.2111 9.00946 59.32 9.5522 59.4288 10.2035C59.1023 9.98639 58.8846 9.87784 58.558 9.66074C58.0138 9.3351 57.4696 9.00946 56.9254 8.79236C54.0955 7.27269 51.0478 6.1872 47.8914 5.42737L47.6737 6.29575C50.8302 6.94704 53.7689 8.14107 56.49 9.5522C57.0342 9.87784 57.5785 10.0949 58.0138 10.4206C58.558 10.7462 58.9934 11.0719 59.5376 11.3975L59.6465 11.289C59.8642 12.0488 60.1907 12.9172 60.6261 13.677C56.8166 10.8548 52.354 8.90091 47.5649 7.81543L47.3472 8.68381C51.4832 9.5522 55.2927 11.289 58.7757 13.4599C57.2519 13.2428 55.837 13.677 54.5308 14.2198C54.8574 14.4369 55.1839 14.654 55.6193 14.8711C57.5785 14.2198 59.6465 14.0027 62.4764 16.2822C63.7825 17.4762 65.0887 18.6702 66.1771 20.0814C64.6533 19.3215 63.0206 19.3215 61.4968 19.4301C61.8234 19.7557 62.041 19.9728 62.3676 20.2985C64.4356 20.1899 66.6125 20.5156 68.6805 23.5549L68.7893 23.4464C69.4424 24.5318 70.0955 25.6173 70.6397 26.7028C70.422 26.4857 70.2043 26.3772 69.8778 26.2686C68.6805 25.5088 67.2655 25.2917 65.9594 25.1831C66.1771 25.5088 66.2859 25.8344 66.5036 26.1601C67.4832 26.2686 68.4628 26.4857 69.3336 27.0285C70.6397 27.7883 71.7281 29.0909 72.2723 31.4789C72.5989 32.4559 72.8165 33.4328 73.0342 34.4097C73.2519 35.6038 73.4696 36.9063 73.5784 38.2089C73.0342 37.3405 72.2723 36.4721 71.4016 35.8209C71.075 35.6038 70.7485 35.3867 70.422 35.1696C70.0955 34.9525 69.7689 34.8439 69.4424 34.7354C69.5512 35.061 69.5512 35.4952 69.6601 35.8209C69.7689 35.9294 69.8778 35.9294 69.9866 36.038C70.3131 36.2551 70.6397 36.3636 70.8574 36.6892C72.2723 37.7747 73.4696 39.4029 73.5784 41.0312C73.5784 41.1397 73.5784 41.3568 73.5784 41.4654H73.6873C73.6873 42.985 73.4696 44.3962 73.2519 45.8073C73.1431 46.1329 73.0342 46.35 72.9254 46.6757C72.9254 46.7842 72.9254 46.8928 72.8165 46.8928C72.3812 45.8073 71.7281 44.9389 70.9662 44.1791C70.6397 43.962 70.422 43.6363 70.0955 43.4192C69.9866 43.3107 69.8778 43.3107 69.7689 43.2021C69.7689 43.5278 69.6601 43.8534 69.6601 44.1791C69.8778 44.3962 70.0955 44.5047 70.422 44.7218C71.6193 45.9158 72.49 47.6526 72.3812 49.3894V49.6065H72.49C71.9458 51.5603 71.1839 53.2971 70.422 55.1424C70.2043 53.5142 69.5512 51.6689 68.6805 50.3663C68.5716 50.2578 68.4628 50.1492 68.4628 50.0407C68.354 50.3663 68.2451 50.692 68.0274 51.0176C69.1159 52.6458 69.6601 54.9253 69.6601 56.5536C68.7893 58.0732 67.9186 59.4844 66.939 60.8955C66.939 59.3758 66.6125 57.639 66.0682 56.3365C65.9594 56.0108 65.8506 55.7937 65.6329 55.4681C65.4152 55.7937 65.3063 56.0108 65.0887 56.3365C65.0887 56.445 65.1975 56.5536 65.1975 56.6621C65.8506 58.2903 66.0682 60.4613 65.8506 62.0895C65.1975 62.9579 64.4356 63.7177 63.6737 64.4776C62.4764 65.6716 61.1703 66.7571 59.8642 67.734C58.7757 68.4939 57.6873 69.2537 56.49 69.905C56.7077 68.3853 56.7077 66.7571 56.5989 65.4545C56.5989 65.2374 56.49 65.0203 56.49 64.8032C55.7281 65.2374 55.5104 65.346 55.1839 65.5631Z" fill="black"/>
<path fill-rule="evenodd" clip-rule="evenodd" d="M39.9458 69.4708C38.6397 67.0828 36.6805 65.9973 34.2859 65.7802H23.9458V55.5767H35.1567C37.2247 55.5767 38.8574 55.9023 39.837 58.0733C40.9254 56.0109 42.4492 55.5767 44.5172 55.5767H55.7281V65.7802H45.388C43.2111 65.8887 41.2519 67.0828 39.9458 69.4708Z" fill="white" stroke="black" stroke-width="0.5669" stroke-miterlimit="10"/>
<path d="M39.9458 58.0732V69.4708" stroke="black" stroke-width="0.8504" stroke-miterlimit="10"/>
<path fill-rule="evenodd" clip-rule="evenodd" d="M39.9458 64.8032C41.4696 62.6323 44.2995 62.3066 47.1295 62.3066H55.9458L39.9458 64.8032ZM39.9458 64.8032C38.422 62.6323 35.5921 62.3066 32.7621 62.3066H23.9458" fill="white"/>
<path d="M39.9458 64.8032C38.422 62.6323 35.5921 62.3066 32.7621 62.3066H23.9458M39.9458 64.8032C41.4696 62.6323 44.2995 62.3066 47.1295 62.3066H55.9458L39.9458 64.8032Z" stroke="black" stroke-width="0.5669" stroke-miterlimit="10"/>
<path fill-rule="evenodd" clip-rule="evenodd" d="M39.9454 36.1465C41.7958 36.1465 43.6461 36.5807 45.1699 37.4491L44.1903 41.3568C42.9931 40.4884 41.5781 39.9457 39.9454 39.9457C38.5305 39.9457 37.2243 40.3799 36.1359 41.1397L35.1563 37.3405C36.6801 36.5807 38.3128 36.1465 39.9454 36.1465ZM48.3264 40.0542C49.959 41.8995 50.8298 44.3961 50.8298 47.0013C50.8298 50.0406 49.6325 52.6458 47.6733 54.5997H46.3672L44.7345 52.1031C46.1495 50.8005 47.0203 48.9552 47.0203 46.8928C47.0203 46.4586 47.0203 45.9158 46.9114 45.4816L48.3264 40.0542ZM33.306 44.7218C33.0883 45.4816 32.9794 46.2415 32.9794 47.0013C32.9794 49.0637 33.8502 50.909 35.2652 52.2116L33.6325 54.7082H32.3264C30.3672 52.7544 29.1699 50.0406 29.1699 47.1098C29.1699 44.2876 30.2584 41.6824 32.1087 39.7286L33.306 44.7218ZM42.5577 54.9253C41.4692 55.251 40.5985 55.9022 39.9454 57.2048C39.2924 55.9022 38.4216 55.251 37.3332 54.9253L37.9863 53.8398C38.5305 53.9484 39.1835 54.0569 39.8366 54.0569C40.4896 54.0569 41.1427 53.9484 41.6869 53.8398L42.5577 54.9253Z" fill="#00AEEF"/>
<path fill-rule="evenodd" clip-rule="evenodd" d="M41.5785 53.84C41.0342 53.9485 40.49 54.0571 39.9458 54.0571C39.4016 54.0571 38.8574 53.9485 38.3131 53.84V53.7314C38.3131 52.863 39.0751 52.1032 39.9458 52.1032C40.8165 52.1032 41.5785 52.863 41.5785 53.7314C41.6873 53.84 41.5785 53.84 41.5785 53.84ZM43.7553 41.0313V42.9851H36.2451V41.0313C37.3336 40.38 38.6397 39.9458 39.9458 39.9458C41.3608 39.9458 42.6669 40.38 43.7553 41.0313Z" fill="black"/>
<path fill-rule="evenodd" clip-rule="evenodd" d="M43.6461 30.2848C44.8433 30.6105 46.1495 30.9361 47.2379 31.4788L46.6937 33.9755C47.891 34.6267 49.0882 35.3866 50.0678 36.3635L52.3535 35.1695C53.2243 36.0379 53.8773 36.9063 54.5304 37.8832L52.7889 39.7285C53.442 40.814 53.8773 41.8995 54.2039 43.0935L56.8161 43.202C57.1427 44.3961 57.2515 45.6987 57.2515 47.0012C57.2515 47.1098 57.2515 47.3269 57.2515 47.4354L54.7481 48.3038C54.5304 50.5833 53.7685 52.7543 52.6801 54.5996H49.3059C51.0474 52.5372 52.1359 49.8235 52.1359 47.0012C52.1359 43.8533 50.8297 40.9225 48.8705 38.7516L49.3059 36.7977L45.8229 35.9293L45.7141 36.4721C44.0814 35.6037 42.2311 35.1695 40.2719 35.1695C38.4216 35.1695 36.7889 35.6037 35.2651 36.255L34.8297 35.9293L31.3467 36.7977L31.7821 38.4259C29.4964 40.5969 28.0814 43.6362 28.0814 47.0012C28.0814 49.932 29.1699 52.5372 30.9114 54.5996H27.5372C26.5576 52.9714 25.7957 51.1261 25.578 49.1722L23.0746 48.738C22.8569 48.1953 22.8569 47.6525 22.8569 47.0012C22.8569 46.1328 22.9658 45.2645 23.0746 44.3961L25.6869 44.0704C26.0134 42.6593 26.4488 41.2482 27.2107 40.0542L25.4692 38.1003C26.1222 37.0148 26.8841 36.0379 27.7549 35.1695L30.0406 36.3635C31.129 35.3866 32.3263 34.5182 33.6324 33.8669L33.3059 31.2618C34.3944 30.8276 35.5916 30.3934 36.7889 30.1763L37.9862 32.4558C38.6393 32.3472 39.4012 32.3472 40.0542 32.3472C40.925 32.3472 41.7957 32.4558 42.5576 32.5643L43.6461 30.2848Z" fill="#00AEEF"/>
<path fill-rule="evenodd" clip-rule="evenodd" d="M47.1294 37.9918L46.1498 47.7612V47.8697L45.4968 49.3894L45.3879 49.4979L43.211 51.5604C43.6464 52.2116 43.9729 52.9715 43.9729 53.7313H43.3199C43.3199 52.9715 42.9934 52.2116 42.4491 51.6689C41.9049 51.1262 41.143 50.8005 40.3811 50.8005C39.5104 50.8005 38.8573 51.1262 38.3131 51.6689C37.7689 52.2116 37.4423 52.9715 37.4423 53.7313H36.7893C36.7893 52.8629 37.1158 52.2116 37.5512 51.5604L35.3743 49.4979L35.2655 49.3894L34.6124 47.8697V47.7612L33.6328 37.9918L34.2859 37.8833L35.2655 47.6526L35.8097 49.0638L36.1362 49.3894C36.1362 49.2809 36.2451 49.1723 36.2451 49.0638C36.4627 48.6296 36.7893 48.3039 37.3335 48.0868V47.0013C37.3335 46.6757 37.4423 46.2415 37.7689 46.0244C37.9866 45.8073 38.3131 45.5902 38.7485 45.5902H42.0138C42.3403 45.5902 42.7757 45.6988 42.9934 46.0244C43.211 46.2415 43.4287 46.5671 43.4287 47.0013V48.0868C43.5376 48.0868 43.6464 48.1954 43.7553 48.1954C44.1906 48.4125 44.5172 48.8467 44.626 49.3894L44.9525 49.0638L45.4968 47.6526L46.4763 37.8833L47.1294 37.9918ZM42.7757 51.1262L44.0818 49.9321C44.0818 49.4979 43.8641 49.0638 43.4287 48.8467C43.3199 48.8467 43.3199 48.7381 43.211 48.7381C43.1022 48.7381 42.9934 48.7381 42.9934 48.7381H37.9866C37.5512 48.7381 37.1158 49.0638 37.007 49.3894C37.007 49.4979 36.8981 49.6065 36.8981 49.6065C36.8981 49.715 36.8981 49.8236 36.8981 49.9321L38.2042 51.1262C38.8573 50.5834 39.728 50.2578 40.5988 50.2578C41.3607 50.1492 42.1226 50.5834 42.7757 51.1262ZM36.8981 44.6133H43.8641V45.2646H36.8981V44.6133ZM42.0138 46.2415H38.7485C38.5308 46.2415 38.4219 46.3501 38.2042 46.4586C38.0954 46.5671 37.9866 46.7842 37.9866 47.0013V47.9783H42.7757V47.0013C42.7757 46.7842 42.6668 46.5671 42.558 46.4586C42.4491 46.3501 42.2315 46.2415 42.0138 46.2415Z" fill="#ED1C24"/>
<path fill-rule="evenodd" clip-rule="evenodd" d="M46.5849 24.8575C45.7141 26.3772 42.1223 25.943 38.5304 23.772C35.0474 21.6011 32.8706 18.6703 33.7413 17.1506C34.6121 15.6309 38.2039 16.0651 41.7957 18.2361C45.2787 20.2985 47.4556 23.2293 46.5849 24.8575ZM46.5849 17.042C45.7141 15.5224 42.1223 15.9566 38.5304 18.1275C35.0474 20.2985 32.8706 23.2293 33.7413 24.749C34.6121 26.2686 38.2039 25.8344 41.7957 23.6635C45.2787 21.6011 47.4556 18.6703 46.5849 17.042ZM39.9454 13.46C38.2039 13.46 36.7889 16.825 36.8978 20.9498C37.0066 25.0746 38.5304 28.4396 40.2719 28.4396C42.0134 28.4396 43.4284 25.0746 43.3196 20.9498C43.3196 16.825 41.7957 13.46 39.9454 13.46Z" stroke="black" stroke-width="0.5669" stroke-miterlimit="10"/>
<path d="M40.1632 21.9268C40.7042 21.9268 41.1428 21.4894 41.1428 20.9498C41.1428 20.4103 40.7042 19.9729 40.1632 19.9729C39.6222 19.9729 39.1836 20.4103 39.1836 20.9498C39.1836 21.4894 39.6222 21.9268 40.1632 21.9268Z" fill="black"/>
<path fill-rule="evenodd" clip-rule="evenodd" d="M36.8977 10.9633L37.9862 7.48977L35.1562 5.42736H38.6392L39.9454 1.62817L41.3603 5.42736H44.8433L42.0134 7.48977L43.1018 10.9633L39.9454 8.9009L36.8977 10.9633Z" fill="#FFF200"/>
<path fill-rule="evenodd" clip-rule="evenodd" d="M24.9253 75.4411L26.6668 71.0991L27.5375 71.4248L26.1226 75.0069L28.2994 75.8752L27.9729 76.6351L24.9253 75.4411ZM30.2586 72.5103L31.8913 72.9444C32.109 72.9444 32.3267 73.053 32.4355 73.053H32.5443H32.6532H32.762H32.8709C33.0886 73.1615 33.3062 73.3786 33.4151 73.5957C33.5239 73.8128 33.6328 74.1385 33.6328 74.4641C33.6328 74.7898 33.6328 75.1154 33.5239 75.5496C33.4151 75.8752 33.3062 76.2009 33.0886 76.5265C32.8709 76.8522 32.6532 77.0693 32.4355 77.1778C32.2178 77.2864 32.0001 77.3949 31.6736 77.3949H31.5647H31.3471H31.1294H30.9117L29.1702 77.0693L29.6056 75.1154L29.1702 74.8983L29.279 74.3556L29.7144 74.4641L30.2586 72.5103ZM31.0205 73.4872L30.694 74.6812L31.6736 74.8983L31.5647 75.4411L30.5852 75.224L30.2586 76.418L30.9117 76.5265C31.2382 76.6351 31.4559 76.6351 31.5647 76.6351C31.7824 76.6351 31.8913 76.5265 32.0001 76.418C32.2178 76.2009 32.3267 75.8752 32.4355 75.4411C32.5443 75.1154 32.5443 74.7898 32.5443 74.6812C32.5443 74.4641 32.4355 74.3556 32.4355 74.247C32.3267 74.1385 32.2178 74.0299 32.109 73.9214L32.0001 73.8128H31.8913L31.3471 73.7043L31.0205 73.4872ZM34.2858 76.8522L34.3947 75.9838L36.1362 76.2009L36.0273 77.0693L34.2858 76.8522ZM38.0954 78.4804L38.2042 74.5727H36.7892V73.8128L40.4899 73.9214V74.6812H39.075L38.9661 78.589L38.0954 78.4804ZM41.143 73.8128L42.9933 73.7043C43.211 73.7043 43.3198 73.7043 43.4287 73.7043C43.5375 73.7043 43.6464 73.7043 43.7552 73.7043C43.9729 73.7043 44.0818 73.8128 44.2994 73.8128C44.4083 73.9214 44.626 74.0299 44.7348 74.1385C44.8437 74.247 44.9525 74.4641 44.9525 74.6812C44.9525 74.8983 44.9525 75.1154 44.8437 75.3325C44.7348 75.5496 44.626 75.6582 44.4083 75.7667C44.7348 75.8752 44.9525 75.9838 45.0613 76.0923C45.279 76.3094 45.279 76.5265 45.3879 76.7436C45.3879 76.9607 45.3879 77.1778 45.279 77.3949C45.1702 77.612 45.0613 77.7206 44.9525 77.9377C44.8437 78.0462 44.626 78.1548 44.2994 78.2633L43.8641 78.3718C43.7552 78.3718 43.5375 78.3718 43.4287 78.3718C43.3198 78.3718 43.211 78.3718 43.1022 78.3718L41.4695 78.4804L41.143 73.8128ZM42.1226 74.5727L42.2314 75.6581H42.8845H42.9933H43.1022H43.211H43.3198C43.4287 75.6581 43.4287 75.6581 43.5375 75.6581C43.6464 75.6581 43.8641 75.5496 43.8641 75.4411C43.9729 75.3325 43.9729 75.224 43.9729 75.1154C43.9729 75.0069 43.8641 74.8983 43.8641 74.7898C43.7552 74.6812 43.6464 74.6812 43.5375 74.6812C43.4287 74.6812 43.1022 74.6812 42.7756 74.6812L42.1226 74.5727ZM42.3403 76.418L42.4491 77.612L43.3198 77.5035C43.6464 77.5035 43.8641 77.3949 43.9729 77.3949C44.0818 77.3949 44.1906 77.2864 44.2994 77.1778C44.4083 77.0693 44.4083 76.9607 44.4083 76.7436C44.4083 76.6351 44.2994 76.5265 44.2994 76.418C44.1906 76.3094 44.0818 76.3094 43.9729 76.2009C43.8641 76.2009 43.5375 76.2009 43.1022 76.2009L42.3403 76.418ZM46.3675 78.0462L47.3471 75.3325L45.3879 73.4872L46.4763 73.2701L47.7824 74.5727L48.3266 72.9444L49.4151 72.7273L48.5443 75.224L50.6124 77.1778L49.5239 77.3949L48.109 75.9838L47.4559 77.8291L46.3675 78.0462ZM51.7008 76.8522L49.9593 72.5103L50.83 72.1846L51.4831 73.9214L53.2246 73.2701L52.5715 71.5333L53.4423 71.2077L55.1838 75.5496L54.313 75.8752L53.4423 73.8128L51.7008 74.4641L52.4627 76.3094L51.7008 76.8522Z" fill="#ED1C24"/>
</g>
<defs>
<clipPath id="clip0">
<rect width="80" height="80" fill="white"/>
</clipPath>
</defs>
</svg>
