<svg width="275" height="32" viewBox="0 0 275 32" fill="none" xmlns="http://www.w3.org/2000/svg">
<path d="M11.576 31.416C10.664 31.416 9.912 31.24 9.32 30.888C8.728 30.536 8.144 29.936 7.568 29.088L6.248 27.096C5.352 26.904 4.536 26.576 3.8 26.112C3.064 25.648 2.432 25.064 1.904 24.36C1.376 23.64 0.968 22.8 0.68 21.84C0.392 20.88 0.248 19.808 0.248 18.624C0.248 17.232 0.448 16 0.848 14.928C1.248 13.84 1.8 12.936 2.504 12.216C3.208 11.48 4.04 10.92 5 10.536C5.96 10.152 7 9.96 8.12 9.96C9.24 9.96 10.28 10.152 11.24 10.536C12.2 10.92 13.032 11.48 13.736 12.216C14.44 12.936 14.992 13.84 15.392 14.928C15.792 16 15.992 17.232 15.992 18.624C15.992 19.808 15.848 20.872 15.56 21.816C15.272 22.76 14.872 23.592 14.36 24.312C13.848 25.016 13.224 25.6 12.488 26.064C11.768 26.528 10.976 26.864 10.112 27.072L11.72 29.04C11.992 29.392 12.312 29.624 12.68 29.736C13.048 29.864 13.464 29.928 13.928 29.928H14.336V31.416H11.576ZM8.12 25.512C8.616 25.512 9.08 25.432 9.512 25.272C9.944 25.112 10.32 24.864 10.64 24.528C10.976 24.192 11.24 23.76 11.432 23.232C11.624 22.704 11.72 22.072 11.72 21.336V15.912C11.72 15.176 11.624 14.544 11.432 14.016C11.24 13.488 10.976 13.056 10.64 12.72C10.32 12.384 9.944 12.136 9.512 11.976C9.08 11.816 8.616 11.736 8.12 11.736C7.624 11.736 7.16 11.816 6.728 11.976C6.296 12.136 5.912 12.384 5.576 12.72C5.256 13.056 5 13.488 4.808 14.016C4.616 14.544 4.52 15.176 4.52 15.912V21.336C4.52 22.072 4.616 22.704 4.808 23.232C5 23.76 5.256 24.192 5.576 24.528C5.912 24.864 6.296 25.112 6.728 25.272C7.16 25.432 7.624 25.512 8.12 25.512ZM27.0504 27.288C25.7544 27.288 24.6504 27.16 23.7384 26.904C22.8424 26.648 22.1064 26.248 21.5304 25.704C20.9704 25.16 20.5544 24.472 20.2824 23.64C20.0264 22.792 19.8984 21.776 19.8984 20.592V11.832H18.2184V10.248H25.4664V11.832H23.7864V20.64C23.7864 21.456 23.8424 22.16 23.9544 22.752C24.0824 23.344 24.2824 23.84 24.5544 24.24C24.8424 24.64 25.2184 24.936 25.6824 25.128C26.1624 25.32 26.7544 25.416 27.4584 25.416C28.8664 25.416 29.8504 25.04 30.4104 24.288C30.9864 23.52 31.2744 22.328 31.2744 20.712V11.832H29.5944V10.248H34.8264V11.832H33.1464V20.664C33.1464 22.824 32.6664 24.472 31.7064 25.608C30.7464 26.728 29.1944 27.288 27.0504 27.288ZM40.0957 25.416H41.9917V20.304L37.4797 11.832H36.2797V10.248H43.3357V11.832H41.6557L44.8717 18.12H44.9677L48.3037 11.832H46.6237V10.248H51.5917V11.832H50.3677L45.8797 19.776V25.416H47.7757V27H40.0957V25.416ZM46.7917 8.808C46.4237 8.808 46.0557 8.736 45.6877 8.592C45.3197 8.432 44.9677 8.264 44.6317 8.088C44.2957 7.912 43.9597 7.744 43.6237 7.584C43.2877 7.424 42.9757 7.344 42.6877 7.344C42.4317 7.344 42.2077 7.392 42.0157 7.488C41.8397 7.584 41.5837 7.848 41.2477 8.28L40.3357 7.368C40.7357 6.68 41.1437 6.112 41.5597 5.664C41.9917 5.2 42.5357 4.968 43.1917 4.968C43.5597 4.968 43.9277 5.048 44.2957 5.208C44.6637 5.352 45.0157 5.512 45.3517 5.688C45.6877 5.864 46.0237 6.04 46.3597 6.216C46.6957 6.376 47.0077 6.456 47.2957 6.456C47.5517 6.456 47.7677 6.408 47.9437 6.312C48.1357 6.216 48.3997 5.944 48.7357 5.496L49.6477 6.408C49.2317 7.112 48.8157 7.688 48.3997 8.136C47.9837 8.584 47.4477 8.808 46.7917 8.808ZM58.7653 25.416H60.4453V11.832H58.7653V10.248H66.0133V11.832H64.3333V17.52H70.7173V11.832H69.0373V10.248H76.2853V11.832H74.6053V25.416H76.2853V27H69.0373V25.416H70.7173V19.248H64.3333V25.416H66.0133V27H58.7653V25.416ZM86.3778 25.512C86.8738 25.512 87.3378 25.432 87.7698 25.272C88.2018 25.112 88.5778 24.864 88.8978 24.528C89.2338 24.192 89.4978 23.76 89.6898 23.232C89.8818 22.704 89.9778 22.072 89.9778 21.336V15.912C89.9778 15.176 89.8818 14.544 89.6898 14.016C89.4978 13.488 89.2338 13.056 88.8978 12.72C88.5778 12.384 88.2018 12.136 87.7698 11.976C87.3378 11.816 86.8738 11.736 86.3778 11.736C85.8818 11.736 85.4178 11.816 84.9858 11.976C84.5538 12.136 84.1698 12.384 83.8338 12.72C83.5138 13.056 83.2578 13.488 83.0658 14.016C82.8738 14.544 82.7778 15.176 82.7778 15.912V21.336C82.7778 22.072 82.8738 22.704 83.0658 23.232C83.2578 23.76 83.5138 24.192 83.8338 24.528C84.1698 24.864 84.5538 25.112 84.9858 25.272C85.4178 25.432 85.8818 25.512 86.3778 25.512ZM86.3778 27.288C85.2578 27.288 84.2178 27.096 83.2578 26.712C82.2978 26.328 81.4658 25.776 80.7618 25.056C80.0578 24.32 79.5058 23.416 79.1058 22.344C78.7058 21.256 78.5058 20.016 78.5058 18.624C78.5058 17.232 78.7058 16 79.1058 14.928C79.5058 13.84 80.0578 12.936 80.7618 12.216C81.4658 11.48 82.2978 10.92 83.2578 10.536C84.2178 10.152 85.2578 9.96 86.3778 9.96C87.4978 9.96 88.5378 10.152 89.4978 10.536C90.4578 10.92 91.2898 11.48 91.9938 12.216C92.6978 12.936 93.2498 13.84 93.6498 14.928C94.0498 16 94.2498 17.232 94.2498 18.624C94.2498 20.016 94.0498 21.256 93.6498 22.344C93.2498 23.416 92.6978 24.32 91.9938 25.056C91.2898 25.776 90.4578 26.328 89.4978 26.712C88.5378 27.096 87.4978 27.288 86.3778 27.288ZM88.0818 4.248C87.7138 4.248 87.3618 4.168 87.0258 4.008C86.6898 3.848 86.3538 3.688 86.0178 3.528C85.6818 3.368 85.3538 3.2 85.0338 3.024C84.7298 2.848 84.4418 2.76 84.1698 2.76C84.0418 2.76 83.9298 2.776 83.8338 2.808C83.7378 2.824 83.6338 2.872 83.5218 2.952C83.4258 3.016 83.3138 3.128 83.1858 3.288C83.0578 3.432 82.9058 3.624 82.7298 3.864L81.8178 2.952C82.2018 2.296 82.6098 1.76 83.0418 1.344C83.4738 0.911999 84.0178 0.695998 84.6738 0.695998C85.0418 0.695998 85.3938 0.775998 85.7298 0.935998C86.0658 1.096 86.4018 1.256 86.7378 1.416C87.0738 1.576 87.3938 1.744 87.6978 1.92C88.0178 2.096 88.3138 2.184 88.5858 2.184C88.7138 2.184 88.8258 2.176 88.9218 2.16C89.0178 2.128 89.1138 2.08 89.2098 2.016C89.3218 1.936 89.4418 1.824 89.5698 1.68C89.6978 1.52 89.8498 1.32 90.0258 1.08L90.9378 1.992C90.5538 2.648 90.1458 3.192 89.7138 3.624C89.2818 4.04 88.7378 4.248 88.0818 4.248ZM82.1538 8.592L85.2738 4.776H87.4818L90.6018 8.592L89.6418 9.432L86.3778 7.08L83.1138 9.432L82.1538 8.592ZM105.366 25.416H107.646V11.976H104.526V14.712H101.742V10.248H117.438V14.712H114.654V11.976H111.534V25.416H113.814V27H105.366V25.416ZM119.093 25.416H120.773V11.832H119.093V10.248H128.525C129.261 10.248 129.941 10.328 130.565 10.488C131.189 10.648 131.725 10.904 132.173 11.256C132.637 11.592 132.997 12.032 133.253 12.576C133.509 13.104 133.637 13.744 133.637 14.496C133.637 15.072 133.541 15.6 133.349 16.08C133.157 16.56 132.893 16.984 132.557 17.352C132.221 17.704 131.829 18.008 131.381 18.264C130.933 18.504 130.445 18.68 129.917 18.792L133.013 24C133.333 24.544 133.661 24.92 133.997 25.128C134.349 25.32 134.781 25.416 135.293 25.416H135.413V27H133.133C132.573 27 132.085 26.96 131.669 26.88C131.253 26.784 130.885 26.64 130.565 26.448C130.245 26.256 129.965 26.016 129.725 25.728C129.485 25.44 129.261 25.088 129.053 24.672L126.461 19.584H124.661V25.416H126.341V27H119.093V25.416ZM124.661 17.952H127.061C128.773 17.952 129.629 17.192 129.629 15.672V14.256C129.629 12.736 128.773 11.976 127.061 11.976H124.661V17.952ZM144.268 27.288C143.148 27.288 142.108 27.096 141.148 26.712C140.188 26.328 139.356 25.776 138.652 25.056C137.948 24.32 137.396 23.416 136.996 22.344C136.596 21.256 136.396 20.016 136.396 18.624C136.396 17.232 136.596 16 136.996 14.928C137.396 13.84 137.948 12.936 138.652 12.216C139.356 11.48 140.188 10.92 141.148 10.536C142.108 10.152 143.148 9.96 144.268 9.96C145.068 9.96 145.82 10.056 146.524 10.248H148.972V7.584H151.852V9.336C151.852 10.056 151.684 10.6 151.348 10.968C151.012 11.32 150.476 11.496 149.74 11.496H149.092C150.036 12.216 150.78 13.176 151.324 14.376C151.868 15.56 152.14 16.976 152.14 18.624C152.14 20.016 151.94 21.256 151.54 22.344C151.14 23.416 150.588 24.32 149.884 25.056C149.18 25.776 148.348 26.328 147.388 26.712C146.428 27.096 145.388 27.288 144.268 27.288ZM144.268 25.512C144.764 25.512 145.228 25.432 145.66 25.272C146.092 25.112 146.468 24.864 146.788 24.528C147.124 24.192 147.388 23.76 147.58 23.232C147.772 22.704 147.868 22.072 147.868 21.336V15.912C147.868 15.176 147.772 14.544 147.58 14.016C147.388 13.488 147.124 13.056 146.788 12.72C146.468 12.384 146.092 12.136 145.66 11.976C145.228 11.816 144.764 11.736 144.268 11.736C143.772 11.736 143.308 11.816 142.876 11.976C142.444 12.136 142.06 12.384 141.724 12.72C141.404 13.056 141.148 13.488 140.956 14.016C140.764 14.544 140.668 15.176 140.668 15.912V21.336C140.668 22.072 140.764 22.704 140.956 23.232C141.148 23.76 141.404 24.192 141.724 24.528C142.06 24.864 142.444 25.112 142.876 25.272C143.308 25.432 143.772 25.512 144.268 25.512ZM144.268 31.872C143.724 31.872 143.284 31.712 142.948 31.392C142.612 31.088 142.444 30.664 142.444 30.12V30.024C142.444 29.48 142.612 29.048 142.948 28.728C143.284 28.424 143.724 28.272 144.268 28.272C144.812 28.272 145.252 28.424 145.588 28.728C145.924 29.048 146.092 29.48 146.092 30.024V30.12C146.092 30.664 145.924 31.088 145.588 31.392C145.252 31.712 144.812 31.872 144.268 31.872ZM160.545 11.832H159.345V10.248H166.401V11.832H164.481L166.665 18.936L168.081 24.072H168.225L169.737 18.936L171.993 11.832H170.073V10.248H175.233V11.832H174.033L168.945 27H165.633L160.545 11.832ZM176.609 25.416H178.289V11.832H176.609V10.248H183.857V11.832H182.177V25.416H183.857V27H176.609V25.416ZM185.82 25.416H187.5V11.832H185.82V10.248H199.188V14.712H196.404V11.976H191.388V17.4H194.556V15.96H196.332V20.568H194.556V19.128H191.388V25.272H196.596V22.056H199.38V27H185.82V25.416ZM188.652 8.304L191.892 4.056H194.1L197.34 8.304L196.332 9.144L192.996 6.696L189.66 9.144L188.652 8.304ZM192.996 31.872C192.452 31.872 192.012 31.712 191.676 31.392C191.34 31.088 191.172 30.664 191.172 30.12V30.024C191.172 29.48 191.34 29.048 191.676 28.728C192.012 28.424 192.452 28.272 192.996 28.272C193.54 28.272 193.98 28.424 194.316 28.728C194.652 29.048 194.82 29.48 194.82 30.024V30.12C194.82 30.664 194.652 31.088 194.316 31.392C193.98 31.712 193.54 31.872 192.996 31.872ZM209.345 27.288C208.145 27.288 207.081 27.072 206.153 26.64C205.241 26.192 204.465 25.584 203.825 24.816C203.185 24.032 202.697 23.112 202.361 22.056C202.041 21 201.881 19.864 201.881 18.648C201.881 17.24 202.073 15.992 202.457 14.904C202.857 13.816 203.385 12.912 204.041 12.192C204.697 11.456 205.457 10.904 206.321 10.536C207.201 10.152 208.113 9.96 209.057 9.96C209.569 9.96 210.017 10.016 210.401 10.128C210.801 10.224 211.145 10.352 211.433 10.512C211.721 10.672 211.961 10.856 212.153 11.064C212.345 11.256 212.489 11.448 212.585 11.64H212.729V10.248H215.513V15.576H212.729V14.496C212.729 13.68 212.457 13.024 211.913 12.528C211.385 12.032 210.609 11.784 209.585 11.784C208.513 11.784 207.673 12.12 207.065 12.792C206.457 13.464 206.153 14.52 206.153 15.96V20.832C206.153 21.584 206.249 22.224 206.441 22.752C206.633 23.28 206.897 23.72 207.233 24.072C207.585 24.424 207.993 24.68 208.457 24.84C208.937 25 209.457 25.08 210.017 25.08C211.041 25.08 211.905 24.816 212.609 24.288C213.329 23.744 213.873 23.016 214.241 22.104L215.609 22.896C215.401 23.504 215.105 24.08 214.721 24.624C214.337 25.152 213.873 25.616 213.329 26.016C212.801 26.416 212.201 26.728 211.529 26.952C210.857 27.176 210.129 27.288 209.345 27.288ZM223.156 25.416H224.836V11.832H223.156V10.248H230.524V11.832H228.724V25.272H233.284V22.056H236.068V27H223.156V25.416ZM237.391 25.416H238.591L243.799 10.248H247.111L252.319 25.416H253.519V27H246.487V25.416H248.407L247.255 21.888H241.783L240.631 25.416H242.551V27H237.391V25.416ZM242.263 20.232H246.823L244.567 13.176H244.471L242.263 20.232ZM241.783 5.088L244.903 3.576L246.631 8.616L245.455 9.144L241.783 5.088ZM254.82 25.416H256.5V11.832H254.82V10.248H260.868L264.612 18.312H264.708L268.212 10.248H274.356V11.832H272.676V25.416H274.356V27H267.108V25.416H268.788V13.2H268.644L267.252 16.704L263.58 24.432L259.932 16.704L258.516 13.2H258.372V25.416H260.052V27H254.82V25.416Z" fill="#E2363C"/>
</svg>
