<svg width="150" height="150" viewBox="0 0 150 150" fill="none" xmlns="http://www.w3.org/2000/svg">
<g clip-path="url(#clip0)">
<path d="M74.8979 150.204C116.263 150.204 149.796 116.762 149.796 75.5088C149.796 34.256 116.263 0.814087 74.8979 0.814087C33.533 0.814087 0 34.256 0 75.5088C0 116.762 33.533 150.204 74.8979 150.204Z" fill="#FFF200"/>
<path fill-rule="evenodd" clip-rule="evenodd" d="M87.5511 21.574C112.041 27.2727 130.408 49.2537 130.408 75.3053C130.408 105.834 105.51 130.461 74.898 130.461C44.2858 130.461 19.3878 106.038 19.3878 75.5088C19.3878 49.2537 37.7552 27.4763 62.245 21.7775L59.3878 1.62822C64.2858 0.610584 69.5919 0 74.694 0C80.0001 0 85.1021 0.610584 90.0001 1.62822L87.5511 21.574Z" fill="#ED1C24"/>
<path fill-rule="evenodd" clip-rule="evenodd" d="M74.8979 60.8549C90 60.8549 102.449 73.0665 102.449 88.3311C102.449 93.6228 101.02 98.304 98.5714 102.578H83.8775C80 102.578 76.9387 103.189 75.102 107.259C73.0612 103.392 70.2041 102.578 66.3265 102.578H51.6326C49.1836 98.5075 47.7551 93.6228 47.7551 88.3311C47.551 73.2701 59.7959 60.8549 74.8979 60.8549Z" fill="#FFF200"/>
<path fill-rule="evenodd" clip-rule="evenodd" d="M74.898 100.136C76.9388 100.136 78.7755 101.153 79.7959 102.985C77.7551 103.596 76.1225 104.613 74.898 107.259C73.6735 104.817 72.0408 103.596 70 102.985C71.0204 101.153 72.8571 100.136 74.898 100.136Z" fill="#00AEEF"/>
<path fill-rule="evenodd" clip-rule="evenodd" d="M102.653 123.338C94.4897 128.019 85.102 130.665 74.8979 130.665C64.6938 130.665 55.3061 128.019 47.1428 123.338H64.2857C68.7755 123.745 72.4489 125.78 74.8979 130.258C77.3469 125.78 81.0204 123.745 85.5102 123.338H102.653Z" fill="#00AEEF"/>
<path fill-rule="evenodd" clip-rule="evenodd" d="M46.5317 122.931C46.5317 123.134 46.5317 123.338 46.5317 123.541C46.1235 126.798 46.1235 130.665 47.1439 133.718L47.348 134.532L46.5317 134.735C45.9194 134.939 45.1031 135.143 44.2868 135.346C43.4704 135.55 42.8582 135.753 42.0419 135.957C39.3888 136.771 37.1439 137.788 35.3072 138.806C34.6949 138.399 34.2868 138.195 33.6745 137.788C35.5113 136.567 38.3684 135.346 41.4296 134.328C42.246 134.125 42.8582 133.921 43.6745 133.514L44.2868 133.311C41.8378 131.886 39.5929 130.461 37.348 128.833C34.6949 126.798 32.246 124.763 30.0011 122.524C28.5725 120.896 26.9398 119.471 25.7153 117.639C24.899 117.232 24.0827 117.029 23.2664 116.622C22.45 116.418 21.4296 116.011 20.6133 115.807C17.1439 114.993 13.8786 114.993 11.6337 115.197C11.2255 114.586 11.0215 114.179 10.6133 113.569C13.0623 113.162 16.9398 113.162 21.0215 114.179C21.8378 114.383 22.6541 114.586 23.6745 114.79C21.4296 111.737 19.3888 108.277 17.5521 104.817C14.899 100.95 11.2255 98.9146 7.96024 97.897C6.12351 97.2864 4.49085 97.0828 3.06228 96.8793C2.8582 96.2687 2.65412 95.6582 2.45004 95.0476C4.28677 95.2511 6.32759 95.4546 8.36841 96.2687C10.6133 97.0828 13.0623 98.1005 15.1031 99.9322C13.2664 95.4546 12.0419 90.977 11.2255 86.2959C10.8174 85.4818 10.4092 84.4641 10.0011 83.8535C7.348 79.3759 3.47045 76.7301 -0.407104 75.3054V75.1018C-0.407104 74.4913 -0.407104 73.8807 -0.407104 73.4736C3.47045 74.8983 7.55208 77.5442 10.6133 81.8183C10.4092 80.19 10.4092 78.5618 10.4092 76.9336V76.7301C10.4092 75.5089 10.4092 74.4913 10.4092 73.2701C10.0011 66.7572 8.57249 62.2796 6.32759 59.4302C5.1031 57.802 3.67453 56.5808 2.24596 55.7667C2.45004 55.1561 2.65412 54.5455 2.65412 54.1385C4.49085 55.1561 6.32759 56.5808 7.75616 58.6161C9.18473 60.6514 10.4092 63.0937 11.0215 66.3501C11.0215 65.7396 11.2255 65.129 11.4296 64.5184C11.8378 62.4831 12.45 60.4478 13.0623 58.4126C15.1031 46.6079 12.6541 42.1303 8.77657 39.688C8.98065 39.0774 9.38881 38.6704 9.59289 38.0598C13.0623 40.2986 15.7153 43.7586 15.5113 51.6961C16.9398 48.4397 18.7766 45.1833 20.8174 42.1303C24.2868 32.7681 23.2664 27.4763 21.0215 23.2022C21.4296 22.7952 21.8378 22.3881 22.246 21.9811C24.4909 25.8481 25.9194 30.5292 24.0827 37.6527C26.5317 34.5998 29.1847 31.7504 32.0419 29.3081C37.1439 22.9987 37.7562 16.2823 37.348 10.5835C37.9602 10.1765 38.3684 9.97294 38.9807 9.56588C39.1847 10.9906 39.1847 12.4153 39.1847 13.84C39.5929 13.6364 40.0011 13.4329 40.2051 13.2294C41.2256 12.6188 42.246 12.2117 43.0623 11.6012C48.1643 8.9553 53.6745 6.92002 59.3888 5.69885L59.797 7.32708C54.0827 8.54824 48.7766 10.5835 43.8786 13.0259C42.8582 13.4329 42.0419 14.0435 41.0215 14.6541C40.4092 15.0611 39.5929 15.4682 38.9807 15.8752C38.9807 16.8929 38.7766 17.9105 38.5725 19.1317C39.797 18.9282 40.2051 18.7246 40.8174 18.3176C41.8378 17.707 42.8582 17.0964 43.8786 16.6894C49.1847 13.84 54.899 11.8047 60.8174 10.38L61.2255 12.0082C55.3072 13.2294 49.797 15.4682 44.6949 18.114C43.6745 18.7246 42.6541 19.1317 41.8378 19.7423C40.8174 20.3529 39.797 20.9634 38.7766 21.574V21.3705C38.3684 22.7952 37.7562 24.4234 36.9398 25.8481C44.0827 20.5564 52.45 16.8929 61.4296 14.8576L61.8378 16.4858C54.0827 18.1141 46.9398 21.3705 40.6133 25.4411C43.4704 25.034 46.1235 25.8481 48.5725 26.8657C47.9602 27.2728 47.348 27.6799 46.5317 28.0869C42.8582 26.8657 38.9807 26.4587 33.8786 30.7328C31.4296 32.9716 28.9806 35.2104 26.9398 37.8563C29.797 36.4316 32.8582 36.4316 35.7153 36.6351C35.1031 37.2457 34.6949 37.6527 34.0827 38.2633C30.2051 38.0598 26.1235 38.6704 22.246 44.3691L22.0419 44.1656C20.8174 46.2009 19.5929 48.2362 18.5725 50.2715C18.9806 49.8644 19.3888 49.6609 20.0011 49.4573C22.246 48.0326 24.899 47.6256 27.348 47.4221C26.9398 48.0326 26.7358 48.6432 26.3276 49.2538C24.4909 49.4573 22.6541 49.8644 21.0215 50.882C18.5725 52.3067 16.5317 54.7491 15.5113 59.2267C14.899 61.0584 14.4909 62.8902 14.0827 64.7219C13.6745 66.9607 13.2664 69.4031 13.0623 71.8454C14.0827 70.2172 15.5113 68.589 17.1439 67.3678C17.7562 66.9607 18.3684 66.5537 18.9806 66.1466C19.5929 65.7396 20.2051 65.536 20.8174 65.3325C20.6133 65.9431 20.6133 66.7572 20.4092 67.3678C20.2051 67.5713 20.0011 67.5713 19.797 67.7748C19.1847 68.1819 18.5725 68.3854 18.1643 68.996C15.5113 71.0313 13.2664 74.0842 13.0623 77.1371C13.0623 77.3407 13.0623 77.7477 13.0623 77.9512H12.8582C12.8582 80.8006 13.2664 83.4465 13.6745 86.0923C13.8786 86.7029 14.0827 87.11 14.2868 87.7206C14.2868 87.9241 14.2868 88.1276 14.4909 88.1276C15.3072 86.0923 16.5317 84.4641 17.9602 83.0394C18.5725 82.6324 18.9806 82.0218 19.5929 81.6147C19.797 81.4112 20.0011 81.4112 20.2051 81.2077C20.2051 81.8183 20.4092 82.4288 20.4092 83.0394C20.0011 83.4465 19.5929 83.65 18.9806 84.0571C16.7358 86.2959 15.1031 89.5523 15.3072 92.8088V93.2158H15.1031C16.1235 96.8793 17.5521 100.136 18.9806 103.596C19.3888 100.543 20.6133 97.0828 22.246 94.6405C22.45 94.437 22.6541 94.2335 22.6541 94.0299C22.8582 94.6405 23.0623 95.2511 23.4704 95.8617C21.6337 98.9146 20.4092 103.189 20.4092 106.242C22.0419 109.091 23.6745 111.737 25.5113 114.383C25.5113 111.533 26.1235 108.277 27.1439 105.835C27.348 105.224 27.5521 104.817 27.9602 104.206C28.3684 104.817 28.5725 105.224 28.9806 105.835C28.9806 106.038 28.7766 106.242 28.7766 106.445C27.5521 109.498 27.1439 113.569 27.5521 116.622C28.7766 118.25 30.2051 119.674 31.6337 121.099C33.8786 123.338 36.3276 125.373 38.7766 127.205C40.8174 128.63 42.8582 130.054 45.1031 131.276C44.6949 128.426 44.6949 125.373 44.899 122.931C44.899 122.524 45.1031 122.117 45.1031 121.71C45.5113 122.32 46.1235 122.524 46.5317 122.931Z" fill="black"/>
<path fill-rule="evenodd" clip-rule="evenodd" d="M103.47 122.931C103.47 123.134 103.47 123.338 103.47 123.541C103.878 126.798 103.878 130.665 102.857 133.718L102.653 134.532L103.47 134.735C104.082 134.939 104.898 135.143 105.714 135.346C106.531 135.55 107.143 135.753 107.959 135.957C110.612 136.771 112.857 137.788 114.694 138.806C115.306 138.399 115.714 138.195 116.327 137.788C114.49 136.567 111.633 135.346 108.572 134.328C107.755 134.125 107.143 133.921 106.327 133.514L105.714 133.311C108.163 131.886 110.408 130.461 112.653 128.833C115.306 126.798 117.755 124.763 120 122.524C121.429 120.896 123.061 119.471 124.286 117.639C125.102 117.232 125.918 117.029 126.735 116.622C127.551 116.418 128.572 116.011 129.388 115.807C132.857 114.993 136.123 114.993 138.367 115.197C138.776 114.586 138.98 114.179 139.388 113.569C136.939 113.162 133.061 113.162 128.98 114.179C128.163 114.383 127.347 114.586 126.327 114.79C128.572 111.737 130.612 108.277 132.449 104.817C135.102 100.95 138.776 98.9146 142.041 97.897C143.878 97.2864 145.51 97.0828 146.939 96.8793C147.143 96.2687 147.347 95.6582 147.551 95.0476C145.714 95.2511 143.674 95.4546 141.633 96.2687C139.388 97.0828 136.939 98.1005 134.898 99.9322C136.735 95.4546 137.959 90.977 138.776 86.2959C139.184 85.4818 139.592 84.4641 140 83.8535C142.653 79.3759 146.531 76.7301 150.408 75.3054V75.1018C150.408 74.4913 150.408 73.8807 150.408 73.4736C146.531 74.8983 142.449 77.5442 139.388 81.8183C139.592 80.19 139.592 78.5618 139.592 76.9336V76.7301C139.592 75.5089 139.592 74.4913 139.592 73.2701C140 66.7572 141.429 62.2796 143.674 59.4302C144.898 57.802 146.327 56.5808 147.755 55.7667C147.551 55.1561 147.347 54.5455 147.347 54.1385C145.51 55.1561 143.674 56.5808 142.245 58.6161C140.816 60.6514 139.592 63.0937 138.98 66.3501C138.98 65.7396 138.776 65.129 138.572 64.5184C138.163 62.4831 137.551 60.4478 136.939 58.4126C134.898 46.6079 137.347 42.1303 141.225 39.688C141.021 39.0774 140.612 38.6704 140.408 38.0598C136.939 40.2986 134.286 43.7586 134.49 51.6961C133.061 48.4397 131.225 45.1833 129.184 42.1303C125.714 32.7681 126.735 27.4763 128.98 23.2022C128.572 22.7952 128.163 22.3881 127.755 21.9811C125.51 25.8481 124.082 30.5292 125.918 37.6527C123.47 34.5998 120.816 31.7504 117.959 29.3081C112.857 22.9987 112.245 16.2823 112.653 10.5835C112.041 10.1765 111.633 9.97294 111.021 9.56588C110.816 10.9906 110.816 12.4153 110.816 13.84C110.408 13.6364 110 13.4329 109.796 13.2294C108.776 12.6188 107.755 12.2117 106.939 11.6012C101.837 8.9553 96.3267 6.92002 90.6124 5.69885L90.2042 7.32708C95.9185 8.54824 101.225 10.5835 106.123 13.0259C107.143 13.4329 107.959 14.0435 108.98 14.6541C109.592 15.0611 110.408 15.4682 111.021 15.8752C111.021 16.8929 111.225 17.9105 111.429 19.1317C110.816 18.7246 110.408 18.5211 109.796 18.114C108.776 17.5035 107.755 16.8929 106.735 16.4858C101.429 13.6364 95.7144 11.6012 89.796 10.1765L89.3879 11.8047C95.3062 13.0259 100.816 15.2647 105.918 17.9105C106.939 18.5211 107.959 18.9282 108.776 19.5387C109.796 20.1493 110.612 20.7599 111.633 21.3705L111.837 21.167C112.245 22.5917 112.857 24.2199 113.674 25.6446C106.531 20.3529 98.1634 16.6894 89.1838 14.6541L88.7756 16.2823C96.5307 17.9105 103.674 21.167 110.204 25.2375C107.347 24.8305 104.694 25.6446 102.245 26.6622C102.857 27.0693 103.47 27.4763 104.286 27.8834C107.959 26.6622 111.837 26.2552 117.143 30.5292C119.592 32.7681 122.041 35.0069 124.082 37.6527C121.225 36.228 118.163 36.228 115.306 36.4316C115.918 37.0421 116.327 37.4492 116.939 38.0598C120.816 37.8563 124.898 38.4668 128.776 44.1656L128.98 43.9621C130.204 45.9974 131.429 48.0326 132.449 50.0679C132.041 49.6609 131.633 49.4573 131.021 49.2538C128.776 47.8291 126.123 47.4221 123.674 47.2185C124.082 47.8291 124.286 48.4397 124.694 49.0503C126.531 49.2538 128.367 49.6609 130 50.6785C132.449 52.1032 134.49 54.5455 135.51 59.0231C136.123 60.8549 136.531 62.6866 136.939 64.5184C137.347 66.7572 137.755 69.1995 137.959 71.6419C136.939 70.0136 135.51 68.3854 133.878 67.1643C133.265 66.7572 132.653 66.3502 132.041 65.9431C131.429 65.536 130.816 65.3325 130.204 65.129C130.408 65.7396 130.408 66.5537 130.612 67.1643C130.816 67.3678 131.021 67.3678 131.225 67.5713C131.837 67.9784 132.449 68.1819 132.857 68.7925C135.51 70.8278 137.755 73.8807 137.959 76.9336C137.959 77.1371 137.959 77.5442 137.959 77.7477H138.163C138.163 80.5971 137.755 83.243 137.347 85.8888C137.143 86.4994 136.939 86.9065 136.735 87.517C136.735 87.7206 136.735 87.9241 136.531 87.9241C135.714 85.8888 134.49 84.2606 133.061 82.8359C132.449 82.4288 132.041 81.8183 131.429 81.4112C131.225 81.2077 131.021 81.2077 130.816 81.0042C130.816 81.6147 130.612 82.2253 130.612 82.8359C131.021 83.243 131.429 83.4465 132.041 83.8535C134.286 86.0923 135.918 89.3488 135.714 92.6052V93.0123H135.918C134.898 96.6758 133.469 99.9322 132.041 103.392C131.633 100.339 130.408 96.8793 128.776 94.437C128.572 94.2335 128.367 94.0299 128.367 93.8264C128.163 94.437 127.959 95.0476 127.551 95.6582C129.592 98.7111 130.612 102.985 130.612 106.038C128.98 108.887 127.347 111.533 125.51 114.179C125.51 111.33 124.898 108.073 123.878 105.631C123.674 105.02 123.47 104.613 123.061 104.003C122.653 104.613 122.449 105.02 122.041 105.631C122.041 105.835 122.245 106.038 122.245 106.242C123.47 109.295 123.878 113.365 123.47 116.418C122.245 118.046 120.816 119.471 119.388 120.896C117.143 123.134 114.694 125.17 112.245 127.001C110.204 128.426 108.163 129.851 105.918 131.072C106.327 128.223 106.327 125.17 106.123 122.727C106.123 122.32 105.918 121.913 105.918 121.506C104.49 122.32 104.082 122.524 103.47 122.931Z" fill="black"/>
<path fill-rule="evenodd" clip-rule="evenodd" d="M74.8979 130.258C72.449 125.78 68.7755 123.745 64.2857 123.338H44.8979V104.206H65.9184C69.7959 104.206 72.8571 104.817 74.6939 108.887C76.7347 105.02 79.5918 104.206 83.4694 104.206H104.49V123.338H85.102C81.0204 123.541 77.3469 125.78 74.8979 130.258Z" fill="white" stroke="black" stroke-width="0.5669" stroke-miterlimit="10"/>
<path d="M74.8979 108.887V130.258" stroke="black" stroke-width="0.8504" stroke-miterlimit="10"/>
<path fill-rule="evenodd" clip-rule="evenodd" d="M74.898 121.506C77.7551 117.436 83.0612 116.825 88.3674 116.825H104.898L74.898 121.506ZM74.898 121.506C72.0408 117.436 66.7347 116.825 61.4286 116.825H44.8979" fill="white"/>
<path d="M74.898 121.506C72.0408 117.436 66.7347 116.825 61.4286 116.825H44.8979M74.898 121.506C77.7551 117.436 83.0612 116.825 88.3674 116.825H104.898L74.898 121.506Z" stroke="black" stroke-width="0.5669" stroke-miterlimit="10"/>
<path fill-rule="evenodd" clip-rule="evenodd" d="M74.8979 67.7748C78.3673 67.7748 81.8367 68.5889 84.6938 70.2171L82.8571 77.5441C80.6122 75.9159 77.9592 74.8983 74.8979 74.8983C72.2449 74.8983 69.7959 75.7124 67.7551 77.1371L65.9183 70.0136C68.7755 68.5889 71.8367 67.7748 74.8979 67.7748ZM90.6122 75.1018C93.6734 78.5618 95.3061 83.2429 95.3061 88.1276C95.3061 93.8263 93.0612 98.711 89.3877 102.374H86.9387L83.8775 97.6934C86.5306 95.251 88.1632 91.7911 88.1632 87.924C88.1632 87.1099 88.1632 86.0923 87.9591 85.2782L90.6122 75.1018ZM62.449 83.8535C62.0408 85.2782 61.8367 86.7029 61.8367 88.1276C61.8367 91.9946 63.4694 95.4546 66.1224 97.8969L63.0612 102.578H60.6122C56.9387 98.9145 54.6938 93.8263 54.6938 88.3311C54.6938 83.0394 56.7347 78.1547 60.2041 74.4912L62.449 83.8535ZM79.7959 102.985C77.7551 103.596 76.1224 104.817 74.8979 107.259C73.6734 104.817 72.0408 103.596 70 102.985L71.2245 100.95C72.2449 101.153 73.4694 101.357 74.6938 101.357C75.9183 101.357 77.1428 101.153 78.1632 100.95L79.7959 102.985Z" fill="#00AEEF"/>
<path fill-rule="evenodd" clip-rule="evenodd" d="M77.9592 100.95C76.9388 101.153 75.9184 101.357 74.898 101.357C73.8776 101.357 72.8572 101.153 71.8368 100.95V100.746C71.8368 99.118 73.2654 97.6933 74.898 97.6933C76.5307 97.6933 77.9592 99.118 77.9592 100.746C78.1633 100.95 77.9592 100.95 77.9592 100.95ZM82.0409 76.9335V80.597H67.9592V76.9335C70 75.7123 72.449 74.8982 74.898 74.8982C77.5511 74.8982 80 75.7123 82.0409 76.9335Z" fill="black"/>
<path fill-rule="evenodd" clip-rule="evenodd" d="M81.8368 56.7842C84.0817 57.3948 86.5307 58.0054 88.5715 59.023L87.5511 63.7042C89.796 64.9253 92.0409 66.35 93.8776 68.1818L98.1633 65.943C99.796 67.5712 101.02 69.1994 102.245 71.0312L98.9796 74.4911C100.204 76.5264 101.02 78.5617 101.633 80.8005L106.531 81.004C107.143 83.2428 107.347 85.6852 107.347 88.1275C107.347 88.331 107.347 88.7381 107.347 88.9416L102.653 90.5698C102.245 94.8439 100.816 98.9145 98.7756 102.374H92.449C95.7143 98.5074 97.7552 93.4192 97.7552 88.1275C97.7552 82.2252 95.3062 76.7299 91.6327 72.6594L92.449 68.9959L85.9184 67.3677L85.7143 68.3853C82.6531 66.7571 79.1837 65.943 75.5102 65.943C72.0409 65.943 68.9796 66.7571 66.1225 67.9783L65.3062 67.3677L58.7755 68.9959L59.5919 72.0488C55.3062 76.1194 52.6531 81.8181 52.6531 88.1275C52.6531 93.6227 54.6939 98.5074 57.9592 102.374H51.6327C49.796 99.3215 48.3674 95.8616 47.9592 92.1981L43.2653 91.3839C42.8572 90.3663 42.8572 89.3487 42.8572 88.1275C42.8572 86.4993 43.0613 84.8711 43.2653 83.2428L48.1633 82.6322C48.7755 79.9864 49.5919 77.3405 51.0204 75.1017L47.7551 71.4382C48.9796 69.4029 50.4082 67.5712 52.0409 65.943L56.3266 68.1818C58.3674 66.35 60.6123 64.7218 63.0613 63.5006L62.449 58.616C64.4898 57.8019 66.7347 56.9877 68.9796 56.5807L71.2245 60.8548C72.449 60.6512 73.8776 60.6512 75.1021 60.6512C76.7347 60.6512 78.3674 60.8548 79.796 61.0583L81.8368 56.7842Z" fill="#00AEEF"/>
<path fill-rule="evenodd" clip-rule="evenodd" d="M88.3673 71.2348L86.5305 89.5523V89.7558L85.3061 92.6052L85.102 92.8087L81.0203 96.6757C81.8367 97.8969 82.4489 99.3216 82.4489 100.746H81.2244C81.2244 99.3216 80.6122 97.8969 79.5918 96.8793C78.5714 95.8616 77.1428 95.251 75.7142 95.251C74.0816 95.251 72.8571 95.8616 71.8367 96.8793C70.8163 97.8969 70.204 99.3216 70.204 100.746H68.9795C68.9795 99.1181 69.5918 97.8969 70.4081 96.6757L66.3265 92.8087L66.1224 92.6052L64.8979 89.7558V89.5523L63.0612 71.2348L64.2856 71.0312L66.1224 89.3487L67.1428 91.9946L67.755 92.6052C67.755 92.4017 67.9591 92.1981 67.9591 91.9946C68.3673 91.1805 68.9795 90.5699 69.9999 90.1628V88.1276C69.9999 87.517 70.204 86.7029 70.8163 86.2958C71.2244 85.8888 71.8367 85.4817 72.653 85.4817H78.7754C79.3877 85.4817 80.204 85.6852 80.6122 86.2958C81.0203 86.7029 81.4285 87.3135 81.4285 88.1276V90.1628C81.6326 90.1628 81.8367 90.3664 82.0407 90.3664C82.8571 90.7734 83.4693 91.5875 83.6734 92.6052L84.2856 91.9946L85.3061 89.3487L87.1428 71.0312L88.3673 71.2348ZM80.204 95.8616L82.653 93.6228C82.653 92.8087 82.2448 91.9946 81.4285 91.5875C81.2244 91.5875 81.2244 91.384 81.0203 91.384C80.8163 91.384 80.6122 91.384 80.6122 91.384H71.2244C70.4081 91.384 69.5918 91.9946 69.3877 92.6052C69.3877 92.8087 69.1836 93.0122 69.1836 93.0122C69.1836 93.2158 69.1836 93.4193 69.1836 93.6228L71.6326 95.8616C72.8571 94.844 74.4897 94.2334 76.1224 94.2334C77.551 94.0299 78.9795 94.844 80.204 95.8616ZM69.1836 83.65H82.2448V84.8711H69.1836V83.65ZM78.7754 86.7029H72.653C72.2448 86.7029 72.0407 86.9064 71.6326 87.1099C71.4285 87.3135 71.2244 87.7205 71.2244 88.1276V89.9593H80.204V88.1276C80.204 87.7205 79.9999 87.3135 79.7958 87.1099C79.5918 86.9064 79.1836 86.7029 78.7754 86.7029Z" fill="#ED1C24"/>
<path fill-rule="evenodd" clip-rule="evenodd" d="M87.3469 46.6078C85.7143 49.4572 78.9796 48.6431 72.2449 44.5726C65.7143 40.502 61.6326 35.0068 63.2653 32.1574C64.8979 29.308 71.6326 30.1221 78.3673 34.1926C84.898 38.0597 88.9796 43.5549 87.3469 46.6078ZM87.3469 31.9538C85.7143 29.1045 78.9796 29.9186 72.2449 33.9891C65.7143 38.0597 61.6326 43.5549 63.2653 46.4043C64.8979 49.2537 71.6326 48.4396 78.3673 44.369C84.898 40.502 88.9796 35.0068 87.3469 31.9538ZM74.8979 25.2374C71.6326 25.2374 68.9796 31.5468 69.1837 39.2808C69.3877 47.0149 72.2449 53.3243 75.5102 53.3243C78.7755 53.3243 81.4286 47.0149 81.2245 39.2808C81.2245 31.5468 78.3673 25.2374 74.8979 25.2374Z" stroke="black" stroke-width="0.5669" stroke-miterlimit="10"/>
<path d="M75.3061 41.1126C76.3205 41.1126 77.1428 40.2925 77.1428 39.2808C77.1428 38.2692 76.3205 37.4491 75.3061 37.4491C74.2917 37.4491 73.4694 38.2692 73.4694 39.2808C73.4694 40.2925 74.2917 41.1126 75.3061 41.1126Z" fill="black"/>
<path fill-rule="evenodd" clip-rule="evenodd" d="M69.1836 20.5564L71.2245 14.0435L65.9183 10.1765H72.4489L74.8979 3.05298L77.551 10.1765H84.0816L78.7755 14.0435L80.8163 20.5564L74.8979 16.6893L69.1836 20.5564Z" fill="#FFF200"/>
<path fill-rule="evenodd" clip-rule="evenodd" d="M46.7347 141.452L50 133.311L51.6327 133.921L48.9796 140.638L53.0613 142.266L52.449 143.691L46.7347 141.452ZM56.7347 135.957L59.796 136.771C60.2041 136.771 60.6123 136.974 60.8164 136.974H61.0205H61.2245H61.4286H61.6327C62.0409 137.178 62.449 137.585 62.6531 137.992C62.8572 138.399 63.0613 139.009 63.0613 139.62C63.0613 140.231 63.0613 140.841 62.8572 141.655C62.6531 142.266 62.449 142.876 62.0409 143.487C61.6327 144.098 61.2245 144.505 60.8164 144.708C60.4082 144.912 60 145.115 59.3878 145.115H59.1837H58.7756H58.3674H57.9592L54.6939 144.505L55.5103 140.841L54.6939 140.434L54.898 139.416L55.7143 139.62L56.7347 135.957ZM58.1633 137.788L57.5511 140.027L59.3878 140.434L59.1837 141.452L57.347 141.045L56.7347 143.284L57.9592 143.487C58.5715 143.691 58.9796 143.691 59.1837 143.691C59.5919 143.691 59.796 143.487 60 143.284C60.4082 142.876 60.6123 142.266 60.8164 141.452C61.0205 140.841 61.0205 140.231 61.0205 140.027C61.0205 139.62 60.8164 139.417 60.8164 139.213C60.6123 139.009 60.4082 138.806 60.2041 138.602L60 138.399H59.796L58.7756 138.195L58.1633 137.788ZM64.2858 144.098L64.4898 142.469L67.7551 142.876L67.5511 144.505L64.2858 144.098ZM71.4286 147.151L71.6327 139.824H68.9796V138.399L75.9184 138.602V140.027H73.2654L73.0613 147.354L71.4286 147.151ZM77.1429 138.399L80.6123 138.195C81.0205 138.195 81.2245 138.195 81.4286 138.195C81.6327 138.195 81.8368 138.195 82.0409 138.195C82.449 138.195 82.6531 138.399 83.0613 138.399C83.2654 138.602 83.6735 138.806 83.8776 139.009C84.0817 139.213 84.2858 139.62 84.2858 140.027C84.2858 140.434 84.2858 140.841 84.0817 141.248C83.8776 141.655 83.6735 141.859 83.2653 142.062C83.8776 142.266 84.2858 142.469 84.4898 142.673C84.898 143.08 84.898 143.487 85.1021 143.894C85.1021 144.301 85.1021 144.708 84.898 145.115C84.6939 145.522 84.4898 145.726 84.2858 146.133C84.0817 146.336 83.6735 146.54 83.0613 146.743L82.2449 146.947C82.0409 146.947 81.6327 146.947 81.4286 146.947C81.2245 146.947 81.0205 146.947 80.8164 146.947L77.7551 147.151L77.1429 138.399ZM78.9796 139.824L79.1837 141.859H80.4082H80.6123H80.8164H81.0205H81.2245C81.4286 141.859 81.4286 141.859 81.6327 141.859C81.8368 141.859 82.2449 141.655 82.2449 141.452C82.449 141.248 82.449 141.045 82.449 140.841C82.449 140.638 82.2449 140.434 82.2449 140.231C82.0409 140.027 81.8368 140.027 81.6327 140.027C81.4286 140.027 80.8164 140.027 80.2041 140.027L78.9796 139.824ZM79.3878 143.284L79.5919 145.522L81.2245 145.319C81.8368 145.319 82.2449 145.115 82.449 145.115C82.6531 145.115 82.8572 144.912 83.0613 144.708C83.2654 144.505 83.2653 144.301 83.2653 143.894C83.2653 143.691 83.0613 143.487 83.0613 143.284C82.8572 143.08 82.6531 143.08 82.449 142.876C82.2449 142.876 81.6327 142.876 80.8164 142.876L79.3878 143.284ZM86.9388 146.336L88.7756 141.248L85.1021 137.788L87.1429 137.381L89.5919 139.824L90.6123 136.771L92.6531 136.364L91.0204 141.045L94.898 144.708L92.8572 145.115L90.2041 142.469L88.9796 145.929L86.9388 146.336ZM96.9388 144.098L93.6735 135.957L95.3062 135.346L96.5307 138.602L99.796 137.381L98.5715 134.125L100.204 133.514L103.469 141.655L101.837 142.266L100.204 138.399L96.9388 139.62L98.3674 143.08L96.9388 144.098Z" fill="#ED1C24"/>
</g>
<defs>
<clipPath id="clip0">
<rect width="150" height="150" fill="white"/>
</clipPath>
</defs>
</svg>
