<svg width="431" height="88" viewBox="0 0 431 88" fill="none" xmlns="http://www.w3.org/2000/svg">
<path d="M122.672 73.152C121.608 73.152 120.731 72.9467 120.04 72.536C119.349 72.1253 118.668 71.4253 117.996 70.436L116.456 68.112C115.411 67.888 114.459 67.5053 113.6 66.964C112.741 66.4227 112.004 65.7413 111.388 64.92C110.772 64.08 110.296 63.1 109.96 61.98C109.624 60.86 109.456 59.6093 109.456 58.228C109.456 56.604 109.689 55.1667 110.156 53.916C110.623 52.6467 111.267 51.592 112.088 50.752C112.909 49.8933 113.88 49.24 115 48.792C116.12 48.344 117.333 48.12 118.64 48.12C119.947 48.12 121.16 48.344 122.28 48.792C123.4 49.24 124.371 49.8933 125.192 50.752C126.013 51.592 126.657 52.6467 127.124 53.916C127.591 55.1667 127.824 56.604 127.824 58.228C127.824 59.6093 127.656 60.8507 127.32 61.952C126.984 63.0533 126.517 64.024 125.92 64.864C125.323 65.6853 124.595 66.3667 123.736 66.908C122.896 67.4493 121.972 67.8413 120.964 68.084L122.84 70.38C123.157 70.7907 123.531 71.0613 123.96 71.192C124.389 71.3413 124.875 71.416 125.416 71.416H125.892V73.152H122.672ZM118.64 66.264C119.219 66.264 119.76 66.1707 120.264 65.984C120.768 65.7973 121.207 65.508 121.58 65.116C121.972 64.724 122.28 64.22 122.504 63.604C122.728 62.988 122.84 62.2507 122.84 61.392V55.064C122.84 54.2053 122.728 53.468 122.504 52.852C122.28 52.236 121.972 51.732 121.58 51.34C121.207 50.948 120.768 50.6587 120.264 50.472C119.76 50.2853 119.219 50.192 118.64 50.192C118.061 50.192 117.52 50.2853 117.016 50.472C116.512 50.6587 116.064 50.948 115.672 51.34C115.299 51.732 115 52.236 114.776 52.852C114.552 53.468 114.44 54.2053 114.44 55.064V61.392C114.44 62.2507 114.552 62.988 114.776 63.604C115 64.22 115.299 64.724 115.672 65.116C116.064 65.508 116.512 65.7973 117.016 65.984C117.52 66.1707 118.061 66.264 118.64 66.264ZM140.725 68.336C139.213 68.336 137.925 68.1867 136.861 67.888C135.816 67.5893 134.957 67.1227 134.285 66.488C133.632 65.8533 133.147 65.0507 132.829 64.08C132.531 63.0907 132.381 61.9053 132.381 60.524V50.304H130.421V48.456H138.877V50.304H136.917V60.58C136.917 61.532 136.983 62.3533 137.113 63.044C137.263 63.7347 137.496 64.3133 137.813 64.78C138.149 65.2467 138.588 65.592 139.129 65.816C139.689 66.04 140.38 66.152 141.201 66.152C142.844 66.152 143.992 65.7133 144.645 64.836C145.317 63.94 145.653 62.5493 145.653 60.664V50.304H143.693V48.456H149.797V50.304H147.837V60.608C147.837 63.128 147.277 65.0507 146.157 66.376C145.037 67.6827 143.227 68.336 140.725 68.336ZM155.945 66.152H158.157V60.188L152.893 50.304H151.493V48.456H159.725V50.304H157.765L161.517 57.64H161.629L165.521 50.304H163.561V48.456H169.357V50.304H167.929L162.693 59.572V66.152H164.905V68H155.945V66.152ZM163.757 46.776C163.328 46.776 162.898 46.692 162.469 46.524C162.04 46.3373 161.629 46.1413 161.237 45.936C160.845 45.7307 160.453 45.5347 160.061 45.348C159.669 45.1613 159.305 45.068 158.969 45.068C158.67 45.068 158.409 45.124 158.185 45.236C157.98 45.348 157.681 45.656 157.289 46.16L156.225 45.096C156.692 44.2933 157.168 43.6307 157.653 43.108C158.157 42.5667 158.792 42.296 159.557 42.296C159.986 42.296 160.416 42.3893 160.845 42.576C161.274 42.744 161.685 42.9307 162.077 43.136C162.469 43.3413 162.861 43.5467 163.253 43.752C163.645 43.9387 164.009 44.032 164.345 44.032C164.644 44.032 164.896 43.976 165.101 43.864C165.325 43.752 165.633 43.4347 166.025 42.912L167.089 43.976C166.604 44.7973 166.118 45.4693 165.633 45.992C165.148 46.5147 164.522 46.776 163.757 46.776ZM177.726 66.152H179.686V50.304H177.726V48.456H186.182V50.304H184.222V56.94H191.67V50.304H189.71V48.456H198.166V50.304H196.206V66.152H198.166V68H189.71V66.152H191.67V58.956H184.222V66.152H186.182V68H177.726V66.152ZM209.941 66.264C210.519 66.264 211.061 66.1707 211.565 65.984C212.069 65.7973 212.507 65.508 212.881 65.116C213.273 64.724 213.581 64.22 213.805 63.604C214.029 62.988 214.141 62.2507 214.141 61.392V55.064C214.141 54.2053 214.029 53.468 213.805 52.852C213.581 52.236 213.273 51.732 212.881 51.34C212.507 50.948 212.069 50.6587 211.565 50.472C211.061 50.2853 210.519 50.192 209.941 50.192C209.362 50.192 208.821 50.2853 208.317 50.472C207.813 50.6587 207.365 50.948 206.973 51.34C206.599 51.732 206.301 52.236 206.077 52.852C205.853 53.468 205.741 54.2053 205.741 55.064V61.392C205.741 62.2507 205.853 62.988 206.077 63.604C206.301 64.22 206.599 64.724 206.973 65.116C207.365 65.508 207.813 65.7973 208.317 65.984C208.821 66.1707 209.362 66.264 209.941 66.264ZM209.941 68.336C208.634 68.336 207.421 68.112 206.301 67.664C205.181 67.216 204.21 66.572 203.389 65.732C202.567 64.8733 201.923 63.8187 201.457 62.568C200.99 61.2987 200.757 59.852 200.757 58.228C200.757 56.604 200.99 55.1667 201.457 53.916C201.923 52.6467 202.567 51.592 203.389 50.752C204.21 49.8933 205.181 49.24 206.301 48.792C207.421 48.344 208.634 48.12 209.941 48.12C211.247 48.12 212.461 48.344 213.581 48.792C214.701 49.24 215.671 49.8933 216.493 50.752C217.314 51.592 217.958 52.6467 218.425 53.916C218.891 55.1667 219.125 56.604 219.125 58.228C219.125 59.852 218.891 61.2987 218.425 62.568C217.958 63.8187 217.314 64.8733 216.493 65.732C215.671 66.572 214.701 67.216 213.581 67.664C212.461 68.112 211.247 68.336 209.941 68.336ZM211.929 41.456C211.499 41.456 211.089 41.3627 210.697 41.176C210.305 40.9893 209.913 40.8027 209.521 40.616C209.129 40.4293 208.746 40.2333 208.373 40.028C208.018 39.8227 207.682 39.72 207.365 39.72C207.215 39.72 207.085 39.7387 206.973 39.776C206.861 39.7947 206.739 39.8507 206.609 39.944C206.497 40.0187 206.366 40.1493 206.217 40.336C206.067 40.504 205.89 40.728 205.685 41.008L204.621 39.944C205.069 39.1787 205.545 38.5533 206.049 38.068C206.553 37.564 207.187 37.312 207.953 37.312C208.382 37.312 208.793 37.4053 209.185 37.592C209.577 37.7787 209.969 37.9653 210.361 38.152C210.753 38.3387 211.126 38.5347 211.481 38.74C211.854 38.9453 212.199 39.048 212.517 39.048C212.666 39.048 212.797 39.0387 212.909 39.02C213.021 38.9827 213.133 38.9267 213.245 38.852C213.375 38.7587 213.515 38.628 213.665 38.46C213.814 38.2733 213.991 38.04 214.197 37.76L215.261 38.824C214.813 39.5893 214.337 40.224 213.833 40.728C213.329 41.2133 212.694 41.456 211.929 41.456ZM205.013 46.524L208.653 42.072H211.229L214.869 46.524L213.749 47.504L209.941 44.76L206.133 47.504L205.013 46.524ZM232.094 66.152H234.754V50.472H231.114V53.664H227.866V48.456H246.178V53.664H242.93V50.472H239.29V66.152H241.95V68H232.094V66.152ZM248.109 66.152H250.069V50.304H248.109V48.456H259.113C259.972 48.456 260.765 48.5493 261.493 48.736C262.221 48.9227 262.846 49.2213 263.369 49.632C263.91 50.024 264.33 50.5373 264.629 51.172C264.928 51.788 265.077 52.5347 265.077 53.412C265.077 54.084 264.965 54.7 264.741 55.26C264.517 55.82 264.209 56.3147 263.817 56.744C263.425 57.1547 262.968 57.5093 262.445 57.808C261.922 58.088 261.353 58.2933 260.737 58.424L264.349 64.5C264.722 65.1347 265.105 65.5733 265.497 65.816C265.908 66.04 266.412 66.152 267.009 66.152H267.149V68H264.489C263.836 68 263.266 67.9533 262.781 67.86C262.296 67.748 261.866 67.58 261.493 67.356C261.12 67.132 260.793 66.852 260.513 66.516C260.233 66.18 259.972 65.7693 259.729 65.284L256.705 59.348H254.605V66.152H256.565V68H248.109V66.152ZM254.605 57.444H257.405C259.402 57.444 260.401 56.5573 260.401 54.784V53.132C260.401 51.3587 259.402 50.472 257.405 50.472H254.605V57.444ZM277.48 68.336C276.173 68.336 274.96 68.112 273.84 67.664C272.72 67.216 271.749 66.572 270.928 65.732C270.107 64.8733 269.463 63.8187 268.996 62.568C268.529 61.2987 268.296 59.852 268.296 58.228C268.296 56.604 268.529 55.1667 268.996 53.916C269.463 52.6467 270.107 51.592 270.928 50.752C271.749 49.8933 272.72 49.24 273.84 48.792C274.96 48.344 276.173 48.12 277.48 48.12C278.413 48.12 279.291 48.232 280.112 48.456H282.968V45.348H286.328V47.392C286.328 48.232 286.132 48.8667 285.74 49.296C285.348 49.7067 284.723 49.912 283.864 49.912H283.108C284.209 50.752 285.077 51.872 285.712 53.272C286.347 54.6533 286.664 56.3053 286.664 58.228C286.664 59.852 286.431 61.2987 285.964 62.568C285.497 63.8187 284.853 64.8733 284.032 65.732C283.211 66.572 282.24 67.216 281.12 67.664C280 68.112 278.787 68.336 277.48 68.336ZM277.48 66.264C278.059 66.264 278.6 66.1707 279.104 65.984C279.608 65.7973 280.047 65.508 280.42 65.116C280.812 64.724 281.12 64.22 281.344 63.604C281.568 62.988 281.68 62.2507 281.68 61.392V55.064C281.68 54.2053 281.568 53.468 281.344 52.852C281.12 52.236 280.812 51.732 280.42 51.34C280.047 50.948 279.608 50.6587 279.104 50.472C278.6 50.2853 278.059 50.192 277.48 50.192C276.901 50.192 276.36 50.2853 275.856 50.472C275.352 50.6587 274.904 50.948 274.512 51.34C274.139 51.732 273.84 52.236 273.616 52.852C273.392 53.468 273.28 54.2053 273.28 55.064V61.392C273.28 62.2507 273.392 62.988 273.616 63.604C273.84 64.22 274.139 64.724 274.512 65.116C274.904 65.508 275.352 65.7973 275.856 65.984C276.36 66.1707 276.901 66.264 277.48 66.264ZM277.48 73.684C276.845 73.684 276.332 73.4973 275.94 73.124C275.548 72.7693 275.352 72.2747 275.352 71.64V71.528C275.352 70.8933 275.548 70.3893 275.94 70.016C276.332 69.6613 276.845 69.484 277.48 69.484C278.115 69.484 278.628 69.6613 279.02 70.016C279.412 70.3893 279.608 70.8933 279.608 71.528V71.64C279.608 72.2747 279.412 72.7693 279.02 73.124C278.628 73.4973 278.115 73.684 277.48 73.684ZM296.469 50.304H295.069V48.456H303.301V50.304H301.061L303.609 58.592L305.261 64.584H305.429L307.193 58.592L309.825 50.304H307.585V48.456H313.605V50.304H312.205L306.269 68H302.405L296.469 50.304ZM315.211 66.152H317.171V50.304H315.211V48.456H323.667V50.304H321.707V66.152H323.667V68H315.211V66.152ZM325.957 66.152H327.917V50.304H325.957V48.456H341.553V53.664H338.305V50.472H332.453V56.8H336.149V55.12H338.221V60.496H336.149V58.816H332.453V65.984H338.529V62.232H341.777V68H325.957V66.152ZM329.261 46.188L333.041 41.232H335.617L339.397 46.188L338.221 47.168L334.329 44.312L330.437 47.168L329.261 46.188ZM334.329 73.684C333.694 73.684 333.181 73.4973 332.789 73.124C332.397 72.7693 332.201 72.2747 332.201 71.64V71.528C332.201 70.8933 332.397 70.3893 332.789 70.016C333.181 69.6613 333.694 69.484 334.329 69.484C334.963 69.484 335.477 69.6613 335.869 70.016C336.261 70.3893 336.457 70.8933 336.457 71.528V71.64C336.457 72.2747 336.261 72.7693 335.869 73.124C335.477 73.4973 334.963 73.684 334.329 73.684ZM353.402 68.336C352.002 68.336 350.761 68.084 349.678 67.58C348.614 67.0573 347.709 66.348 346.962 65.452C346.216 64.5373 345.646 63.464 345.254 62.232C344.881 61 344.694 59.6747 344.694 58.256C344.694 56.6133 344.918 55.1573 345.366 53.888C345.833 52.6187 346.449 51.564 347.214 50.724C347.98 49.8653 348.866 49.2213 349.874 48.792C350.901 48.344 351.965 48.12 353.066 48.12C353.664 48.12 354.186 48.1853 354.634 48.316C355.101 48.428 355.502 48.5773 355.838 48.764C356.174 48.9507 356.454 49.1653 356.678 49.408C356.902 49.632 357.07 49.856 357.182 50.08H357.35V48.456H360.598V54.672H357.35V53.412C357.35 52.46 357.033 51.6947 356.398 51.116C355.782 50.5373 354.877 50.248 353.682 50.248C352.432 50.248 351.452 50.64 350.742 51.424C350.033 52.208 349.678 53.44 349.678 55.12V60.804C349.678 61.6813 349.79 62.428 350.014 63.044C350.238 63.66 350.546 64.1733 350.938 64.584C351.349 64.9947 351.825 65.2933 352.366 65.48C352.926 65.6667 353.533 65.76 354.186 65.76C355.381 65.76 356.389 65.452 357.21 64.836C358.05 64.2013 358.685 63.352 359.114 62.288L360.71 63.212C360.468 63.9213 360.122 64.5933 359.674 65.228C359.226 65.844 358.685 66.3853 358.05 66.852C357.434 67.3187 356.734 67.6827 355.95 67.944C355.166 68.2053 354.317 68.336 353.402 68.336ZM369.515 66.152H371.475V50.304H369.515V48.456H378.111V50.304H376.011V65.984H381.331V62.232H384.579V68H369.515V66.152ZM386.122 66.152H387.522L393.598 48.456H397.462L403.538 66.152H404.938V68H396.734V66.152H398.974L397.63 62.036H391.246L389.902 66.152H392.142V68H386.122V66.152ZM391.806 60.104H397.126L394.494 51.872H394.382L391.806 60.104ZM391.246 42.436L394.886 40.672L396.902 46.552L395.53 47.168L391.246 42.436ZM406.457 66.152H408.417V50.304H406.457V48.456H413.513L417.881 57.864H417.993L422.081 48.456H429.249V50.304H427.289V66.152H429.249V68H420.793V66.152H422.753V51.9H422.585L420.961 55.988L416.677 65.004L412.421 55.988L410.769 51.9H410.601V66.152H412.561V68H406.457V66.152Z" fill="#E2363C"/>
<g clip-path="url(#clip0)">
<path d="M43.9401 88.1193C68.2076 88.1193 87.8803 68.5 87.8803 44.2984C87.8803 20.0968 68.2076 0.477539 43.9401 0.477539C19.6727 0.477539 0 20.0968 0 44.2984C0 68.5 19.6727 88.1193 43.9401 88.1193Z" fill="#FFF200"/>
<path fill-rule="evenodd" clip-rule="evenodd" d="M51.3632 12.6567C65.7305 16 76.506 28.8955 76.506 44.1791C76.506 62.0896 61.8992 76.5373 43.94 76.5373C25.9808 76.5373 11.374 62.209 11.374 44.2985C11.374 28.8955 22.1495 16.1194 36.5169 12.7761L34.8407 0.955224C37.7142 0.358209 40.8271 0 43.8203 0C46.9332 0 49.9264 0.358209 52.7999 0.955224L51.3632 12.6567Z" fill="#ED1C24"/>
<path fill-rule="evenodd" clip-rule="evenodd" d="M43.9402 35.7014C52.8 35.7014 60.1034 42.8656 60.1034 51.8208C60.1034 54.9253 59.2653 57.6716 57.8286 60.179H49.2082C46.9334 60.179 45.1374 60.5372 44.0599 62.9253C42.8626 60.6566 41.1864 60.179 38.9116 60.179H30.2912C28.8545 57.791 28.0164 54.9253 28.0164 51.8208C27.8966 42.985 35.0803 35.7014 43.9402 35.7014Z" fill="#FFF200"/>
<path fill-rule="evenodd" clip-rule="evenodd" d="M43.9401 58.7463C45.1374 58.7463 46.215 59.3433 46.8136 60.418C45.6163 60.7762 44.6585 61.3732 43.9401 62.9254C43.2218 61.4926 42.2639 60.7762 41.0667 60.418C41.6653 59.3433 42.7428 58.7463 43.9401 58.7463Z" fill="#00AEEF"/>
<path fill-rule="evenodd" clip-rule="evenodd" d="M60.2232 72.3582C55.4341 75.1044 49.9266 76.6567 43.9402 76.6567C37.9538 76.6567 32.4463 75.1044 27.6572 72.3582H37.7144C40.3484 72.597 42.5035 73.791 43.9402 76.4179C45.3769 73.791 47.532 72.597 50.1661 72.3582H60.2232Z" fill="#00AEEF"/>
<path fill-rule="evenodd" clip-rule="evenodd" d="M27.2986 72.1194C27.2986 72.2388 27.2986 72.3582 27.2986 72.4776C27.0592 74.388 27.0592 76.6567 27.6578 78.4477L27.7776 78.9254L27.2986 79.0448C26.9395 79.1642 26.4606 79.2836 25.9816 79.403C25.5027 79.5224 25.1435 79.6418 24.6646 79.7612C23.1082 80.2388 21.7912 80.8358 20.7136 81.4328C20.3544 81.194 20.115 81.0746 19.7558 80.8358C20.8333 80.1194 22.5095 79.403 24.3055 78.806C24.7844 78.6866 25.1435 78.5671 25.6225 78.3283L25.9816 78.2089C24.5449 77.3731 23.2279 76.5373 21.9109 75.5821C20.3544 74.388 18.9177 73.194 17.6007 71.8806C16.7626 70.9254 15.8048 70.0895 15.0864 69.0149C14.6075 68.7761 14.1286 68.6567 13.6497 68.4179C13.1708 68.2985 12.5721 68.0597 12.0932 67.9403C10.0578 67.4627 8.14218 67.4627 6.82518 67.5821C6.58572 67.2239 6.46599 66.9851 6.22654 66.6268C7.66327 66.388 9.9381 66.388 12.3327 66.9851C12.8116 67.1045 13.2905 67.2239 13.8891 67.3433C12.5721 65.5522 11.3748 63.5224 10.2973 61.4925C8.74082 59.2239 6.58572 58.0298 4.67007 57.4328C3.59252 57.0746 2.6347 56.9552 1.7966 56.8358C1.67688 56.4776 1.55715 56.1194 1.43742 55.7612C2.51497 55.8806 3.71225 56 4.90953 56.4776C6.22654 56.9552 7.66327 57.5522 8.86055 58.6268C7.783 56 7.06463 53.3731 6.58572 50.6269C6.34626 50.1492 6.10681 49.5522 5.86735 49.194C4.31089 46.5671 2.03606 45.0149 -0.23877 44.1791V44.0597C-0.23877 43.7015 -0.23877 43.3433 -0.23877 43.1045C2.03606 43.9403 4.43062 45.4925 6.22654 48C6.10681 47.0448 6.10681 46.0895 6.10681 45.1343V45.0149C6.10681 44.2985 6.10681 43.7015 6.10681 42.9851C5.86735 39.1642 5.02926 36.5373 3.71225 34.8657C2.99388 33.9104 2.15579 33.194 1.31769 32.7164C1.43742 32.3582 1.55715 32 1.55715 31.7612C2.6347 32.3582 3.71225 33.194 4.55035 34.388C5.38844 35.5821 6.10681 37.0149 6.46599 38.9254C6.46599 38.5671 6.58572 38.2089 6.70545 37.8507C6.9449 36.6567 7.30409 35.4627 7.66327 34.2686C8.86055 27.3433 7.42382 24.7164 5.14899 23.2836C5.26871 22.9254 5.50817 22.6865 5.6279 22.3283C7.66327 23.6418 9.21973 25.6716 9.10001 30.3283C9.9381 28.4179 11.0157 26.5074 12.2129 24.7164C14.2483 19.2239 13.6497 16.1194 12.3327 13.6119C12.5721 13.3731 12.8116 13.1343 13.051 12.8955C14.368 15.1642 15.2061 17.9104 14.1286 22.0895C15.5653 20.2985 17.1218 18.6268 18.798 17.194C21.7912 13.4925 22.1503 9.55222 21.9109 6.20893C22.2701 5.97013 22.5095 5.85072 22.8687 5.61192C22.9884 6.44774 22.9884 7.28356 22.9884 8.11938C23.2279 7.99998 23.4674 7.88058 23.5871 7.76117C24.1857 7.40296 24.7844 7.16416 25.2633 6.80595C28.2565 5.25371 31.4891 4.05968 34.8415 3.34326L35.081 4.29849C31.7286 5.0149 28.6157 6.20893 25.7422 7.64177C25.1435 7.88058 24.6646 8.23878 24.066 8.59699C23.7068 8.8358 23.2279 9.07461 22.8687 9.31341C22.8687 9.91043 22.749 10.5074 22.6293 11.2239C23.3476 11.1045 23.5871 10.9851 23.9463 10.7462C24.5449 10.388 25.1435 10.0298 25.7422 9.79102C28.8551 8.11938 32.2075 6.92535 35.6796 6.08953L35.9191 7.04475C32.4469 7.76117 29.2143 9.0746 26.2211 10.6268C25.6225 10.9851 25.0238 11.2239 24.5449 11.5821C23.9463 11.9403 23.3476 12.2985 22.749 12.6567V12.5373C22.5095 13.3731 22.1503 14.3283 21.6714 15.1642C25.8619 12.0597 30.7708 9.91043 36.0388 8.7164L36.2782 9.67162C31.7286 10.6268 27.5381 12.5373 23.8265 14.9254C25.5027 14.6865 27.0592 15.1642 28.4959 15.7612C28.1367 16 27.7776 16.2388 27.2986 16.4776C25.1435 15.7612 22.8687 15.5224 19.8755 18.0298C18.4388 19.3433 17.002 20.6567 15.8048 22.2089C17.481 21.3731 19.2769 21.3731 20.9531 21.4925C20.5939 21.8507 20.3544 22.0895 19.9952 22.4477C17.7204 22.3283 15.3259 22.6865 13.051 26.0298L12.9313 25.9104C12.2129 27.1045 11.4946 28.2985 10.8959 29.4925C11.1354 29.2537 11.3748 29.1343 11.734 29.0149C13.051 28.1791 14.6075 27.9403 16.0442 27.8209C15.8048 28.1791 15.685 28.5373 15.4456 28.8955C14.368 29.0149 13.2905 29.2537 12.3327 29.8507C10.8959 30.6865 9.69865 32.1194 9.10001 34.7463C8.74082 35.8209 8.50137 36.8955 8.26191 37.9701C8.02246 39.2836 7.783 40.7164 7.66327 42.1492C8.26191 41.194 9.10001 40.2388 10.0578 39.5224C10.417 39.2836 10.7762 39.0448 11.1354 38.806C11.4946 38.5671 11.8537 38.4477 12.2129 38.3283C12.0932 38.6865 12.0932 39.1642 11.9735 39.5224C11.8537 39.6418 11.734 39.6418 11.6143 39.7612C11.2551 40 10.8959 40.1194 10.6565 40.4776C9.10001 41.6716 7.783 43.4627 7.66327 45.2537C7.66327 45.3731 7.66327 45.6119 7.66327 45.7313H7.54354C7.54354 47.403 7.783 48.9552 8.02246 50.5074C8.14218 50.8657 8.26191 51.1045 8.38164 51.4627C8.38164 51.5821 8.38164 51.7015 8.50137 51.7015C8.98028 50.5074 9.69865 49.5522 10.5367 48.7164C10.8959 48.4776 11.1354 48.1194 11.4946 47.8806C11.6143 47.7612 11.734 47.7612 11.8537 47.6418C11.8537 48 11.9735 48.3582 11.9735 48.7164C11.734 48.9552 11.4946 49.0746 11.1354 49.3134C9.81837 50.6268 8.86055 52.5373 8.98028 54.4477V54.6866H8.86055C9.45919 56.8358 10.2973 58.7463 11.1354 60.7761C11.3748 58.9851 12.0932 56.9552 13.051 55.5224C13.1708 55.403 13.2905 55.2836 13.2905 55.1642C13.4102 55.5224 13.5299 55.8806 13.7694 56.2388C12.6918 58.0298 11.9735 60.5373 11.9735 62.3283C12.9313 64 13.8891 65.5522 14.9667 67.1045C14.9667 65.4328 15.3259 63.5224 15.9245 62.0895C16.0442 61.7313 16.164 61.4925 16.4034 61.1343C16.6429 61.4925 16.7626 61.7313 17.002 62.0895C17.002 62.2089 16.8823 62.3283 16.8823 62.4477C16.164 64.2388 15.9245 66.6268 16.164 68.4179C16.8823 69.3731 17.7204 70.2089 18.5585 71.0448C19.8755 72.3582 21.3123 73.5522 22.749 74.6268C23.9463 75.4627 25.1435 76.2985 26.4606 77.0149C26.2211 75.3433 26.2211 73.5522 26.3408 72.1194C26.3408 71.8806 26.4606 71.6418 26.4606 71.403C26.7 71.7612 27.0592 71.8806 27.2986 72.1194Z" fill="black"/>
<path fill-rule="evenodd" clip-rule="evenodd" d="M60.7019 72.1194C60.7019 72.2388 60.7019 72.3582 60.7019 72.4776C60.9414 74.388 60.9414 76.6567 60.3428 78.4477L60.223 78.9254L60.7019 79.0448C61.0611 79.1642 61.54 79.2836 62.019 79.403C62.4979 79.5224 62.857 79.6418 63.336 79.7612C64.8924 80.2388 66.2094 80.8358 67.287 81.4328C67.6462 81.194 67.8856 81.0746 68.2448 80.8358C67.1673 80.1194 65.4911 79.403 63.6951 78.806C63.2162 78.6866 62.857 78.5671 62.3781 78.3283L62.019 78.2089C63.4557 77.3731 64.7727 76.5373 66.0897 75.5821C67.6462 74.388 69.0829 73.194 70.3999 71.8806C71.238 70.9254 72.1958 70.0895 72.9142 69.0149C73.3931 68.7761 73.872 68.6567 74.3509 68.4179C74.8298 68.2985 75.4285 68.0597 75.9074 67.9403C77.9428 67.4627 79.8584 67.4627 81.1754 67.5821C81.4149 67.2239 81.5346 66.9851 81.774 66.6268C80.3373 66.388 78.0625 66.388 75.6679 66.9851C75.189 67.1045 74.7101 67.2239 74.1115 67.3433C75.4285 65.5522 76.6258 63.5224 77.7033 61.4925C79.2598 59.2239 81.4149 58.0298 83.3305 57.4328C84.4081 57.0746 85.3659 56.9552 86.204 56.8358C86.3237 56.4776 86.4434 56.1194 86.5632 55.7612C85.4856 55.8806 84.2883 56 83.0911 56.4776C81.774 56.9552 80.3373 57.5522 79.14 58.6268C80.2176 56 80.936 53.3731 81.4149 50.6269C81.6543 50.1492 81.8938 49.5522 82.1332 49.194C83.6897 46.5671 85.9645 45.0149 88.2393 44.1791V44.0597C88.2393 43.7015 88.2393 43.3433 88.2393 43.1045C85.9645 43.9403 83.57 45.4925 81.774 48C81.8938 47.0448 81.8938 46.0895 81.8938 45.1343V45.0149C81.8938 44.2985 81.8938 43.7015 81.8938 42.9851C82.1332 39.1642 82.9713 36.5373 84.2883 34.8657C85.0067 33.9104 85.8448 33.194 86.6829 32.7164C86.5632 32.3582 86.4434 32 86.4434 31.7612C85.3659 32.3582 84.2883 33.194 83.4502 34.388C82.6121 35.5821 81.8938 37.0149 81.5346 38.9254C81.5346 38.5671 81.4149 38.2089 81.2951 37.8507C81.0557 36.6567 80.6965 35.4627 80.3373 34.2686C79.14 27.3433 80.5768 24.7164 82.8516 23.2836C82.7319 22.9254 82.4924 22.6865 82.3727 22.3283C80.3373 23.6418 78.7809 25.6716 78.9006 30.3283C78.0625 28.4179 76.9849 26.5074 75.7877 24.7164C73.7523 19.2239 74.3509 16.1194 75.6679 13.6119C75.4285 13.3731 75.189 13.1343 74.9496 12.8955C73.6326 15.1642 72.7945 17.9104 73.872 22.0895C72.4353 20.2985 70.8788 18.6268 69.2026 17.194C66.2094 13.4925 65.8502 9.55222 66.0897 6.20893C65.7305 5.97013 65.4911 5.85072 65.1319 5.61192C65.0122 6.44774 65.0121 7.28356 65.0121 8.11938C64.7727 7.99998 64.5332 7.88058 64.4135 7.76117C63.8149 7.40296 63.2162 7.16416 62.7373 6.80595C59.7441 5.25371 56.5115 4.05968 53.1591 3.34326L52.9196 4.29849C56.272 5.0149 59.3849 6.20893 62.2584 7.64177C62.857 7.88058 63.336 8.23878 63.9346 8.59699C64.2938 8.8358 64.7727 9.07461 65.1319 9.31341C65.1319 9.91043 65.2516 10.5074 65.3713 11.2239C65.0121 10.9851 64.7727 10.8656 64.4135 10.6268C63.8149 10.2686 63.2162 9.91043 62.6176 9.67162C59.5047 7.99998 56.1523 6.80595 52.6802 5.97013L52.4407 6.92535C55.9128 7.64177 59.1455 8.9552 62.1387 10.5074C62.7373 10.8657 63.336 11.1045 63.8149 11.4627C64.4135 11.8209 64.8924 12.1791 65.4911 12.5373L65.6108 12.4179C65.8502 13.2537 66.2094 14.2089 66.6883 15.0448C62.4979 11.9403 57.589 9.79102 52.321 8.59699L52.0815 9.55222C56.6312 10.5074 60.8217 12.4179 64.653 14.8059C62.9768 14.5671 61.4203 15.0448 59.9836 15.6418C60.3428 15.8806 60.7019 16.1194 61.1809 16.3582C63.336 15.6418 65.6108 15.403 68.7237 17.9104C70.1604 19.2239 71.5972 20.5373 72.7945 22.0895C71.1183 21.2537 69.3224 21.2537 67.6462 21.3731C68.0053 21.7313 68.2448 21.9701 68.604 22.3283C70.8788 22.2089 73.2734 22.5671 75.5482 25.9104L75.6679 25.791C76.3863 26.9851 77.1047 28.1791 77.7033 29.3731C77.4638 29.1343 77.2244 29.0149 76.8652 28.8955C75.5482 28.0597 73.9917 27.8209 72.555 27.7015C72.7945 28.0597 72.9142 28.4179 73.1536 28.7761C74.2312 28.8955 75.3087 29.1343 76.2666 29.7313C77.7033 30.5671 78.9006 32 79.4992 34.6268C79.8584 35.7015 80.0979 36.7761 80.3373 37.8507C80.5768 39.1642 80.8162 40.597 80.9359 42.0298C80.3373 41.0746 79.4992 40.1194 78.5414 39.403C78.1822 39.1642 77.823 38.9254 77.4638 38.6866C77.1047 38.4477 76.7455 38.3283 76.3863 38.2089C76.506 38.5671 76.506 39.0448 76.6257 39.403C76.7455 39.5224 76.8652 39.5224 76.9849 39.6418C77.3441 39.8806 77.7033 40 77.9428 40.3582C79.4992 41.5522 80.8162 43.3433 80.9359 45.1343C80.9359 45.2537 80.9359 45.4925 80.9359 45.6119H81.0557C81.0557 47.2836 80.8162 48.8358 80.5768 50.388C80.457 50.7463 80.3373 50.9851 80.2176 51.3433C80.2176 51.4627 80.2176 51.5821 80.0979 51.5821C79.6189 50.388 78.9006 49.4328 78.0625 48.597C77.7033 48.3582 77.4638 48 77.1047 47.7612C76.9849 47.6418 76.8652 47.6418 76.7455 47.5224C76.7455 47.8806 76.6257 48.2388 76.6257 48.597C76.8652 48.8358 77.1047 48.9552 77.4638 49.194C78.7808 50.5074 79.7387 52.4179 79.6189 54.3283V54.5671H79.7387C79.14 56.7164 78.3019 58.6268 77.4638 60.6567C77.2244 58.8657 76.506 56.8358 75.5482 55.403C75.4285 55.2836 75.3087 55.1642 75.3087 55.0448C75.189 55.403 75.0693 55.7612 74.8298 56.1194C76.0271 57.9104 76.6257 60.4179 76.6257 62.2089C75.6679 63.8806 74.7101 65.4328 73.6326 66.9851C73.6326 65.3134 73.2734 63.403 72.6747 61.9701C72.555 61.6119 72.4353 61.3731 72.1958 61.0149C71.9564 61.3731 71.8366 61.6119 71.5972 61.9701C71.5972 62.0895 71.7169 62.2089 71.7169 62.3283C72.4353 64.1194 72.6747 66.5074 72.4353 68.2985C71.7169 69.2537 70.8788 70.0895 70.0407 70.9254C68.7237 72.2388 67.287 73.4328 65.8502 74.5074C64.653 75.3433 63.4557 76.1791 62.1387 76.8955C62.3781 75.2239 62.3781 73.4328 62.2584 72C62.2584 71.7612 62.1387 71.5224 62.1387 71.2836C61.3006 71.7612 61.0611 71.8806 60.7019 72.1194Z" fill="black"/>
<path fill-rule="evenodd" clip-rule="evenodd" d="M43.9401 76.4179C42.5034 73.791 40.3482 72.597 37.7142 72.3582H26.3401V61.1343H38.6721C40.9469 61.1343 42.7428 61.4925 43.8204 63.8805C45.0176 61.6119 46.6938 61.1343 48.9687 61.1343H61.3006V72.3582H49.9265C47.5319 72.4776 45.3768 73.791 43.9401 76.4179Z" fill="white" stroke="black" stroke-width="0.5669" stroke-miterlimit="10"/>
<path d="M43.9402 63.8806V76.4179" stroke="black" stroke-width="0.8504" stroke-miterlimit="10"/>
<path fill-rule="evenodd" clip-rule="evenodd" d="M43.9401 71.2836C45.6163 68.8956 48.7292 68.5374 51.8421 68.5374H61.5401L43.9401 71.2836ZM43.9401 71.2836C42.2639 68.8956 39.151 68.5374 36.038 68.5374H26.3401" fill="white"/>
<path d="M43.9401 71.2836C42.2639 68.8956 39.151 68.5374 36.038 68.5374H26.3401M43.9401 71.2836C45.6163 68.8956 48.7292 68.5374 51.8421 68.5374H61.5401L43.9401 71.2836Z" stroke="black" stroke-width="0.5669" stroke-miterlimit="10"/>
<path fill-rule="evenodd" clip-rule="evenodd" d="M43.9402 39.7612C45.9756 39.7612 48.011 40.2388 49.6872 41.1941L48.6096 45.4926C47.2926 44.5373 45.7361 43.9403 43.9402 43.9403C42.3838 43.9403 40.947 44.4179 39.7497 45.2538L38.6722 41.0747C40.3484 40.2388 42.1443 39.7612 43.9402 39.7612ZM53.1593 44.0597C54.9552 46.0896 55.913 48.8359 55.913 51.7015C55.913 55.0448 54.596 57.9105 52.4409 60.0597H51.0042L49.2082 57.3135C50.7647 55.8806 51.7225 53.8508 51.7225 51.5821C51.7225 51.1045 51.7225 50.5075 51.6028 50.0299L53.1593 44.0597ZM36.6368 49.1941C36.3974 50.0299 36.2776 50.8657 36.2776 51.7015C36.2776 53.9702 37.2355 56 38.7919 57.4329L36.996 60.1791H35.5593C33.4042 58.0299 32.0872 55.0448 32.0872 51.8209C32.0872 48.7165 33.2844 45.8508 35.3198 43.7015L36.6368 49.1941ZM46.8137 60.4179C45.6164 60.7761 44.6586 61.4926 43.9402 62.9254C43.2219 61.4926 42.264 60.7761 41.0667 60.4179L41.7851 59.2239C42.3838 59.3433 43.1021 59.4627 43.8205 59.4627C44.5389 59.4627 45.2572 59.3433 45.8559 59.2239L46.8137 60.4179Z" fill="#00AEEF"/>
<path fill-rule="evenodd" clip-rule="evenodd" d="M45.7361 59.2238C45.1374 59.3432 44.5388 59.4626 43.9401 59.4626C43.3415 59.4626 42.7429 59.3432 42.1442 59.2238V59.1044C42.1442 58.1491 42.9823 57.3133 43.9401 57.3133C44.898 57.3133 45.7361 58.1491 45.7361 59.1044C45.8558 59.2238 45.7361 59.2238 45.7361 59.2238ZM48.1306 45.1342V47.2835H39.8694V45.1342C41.0667 44.4178 42.5034 43.9402 43.9401 43.9402C45.4966 43.9402 46.9333 44.4178 48.1306 45.1342Z" fill="black"/>
<path fill-rule="evenodd" clip-rule="evenodd" d="M48.0108 33.3135C49.3279 33.6717 50.7646 34.0299 51.9619 34.6269L51.3632 37.3732C52.6802 38.0896 53.9972 38.9254 55.0748 40.0001L57.5891 38.6866C58.5469 39.6419 59.2653 40.5971 59.9836 41.6717L58.068 43.7016C58.7864 44.8956 59.2653 46.0896 59.6245 47.403L62.4979 47.5225C62.8571 48.8359 62.9768 50.2687 62.9768 51.7016C62.9768 51.821 62.9768 52.0598 62.9768 52.1792L60.2231 53.1344C59.9836 55.6419 59.1455 58.0299 57.9483 60.0598H54.2367C56.1523 57.7911 57.3496 54.806 57.3496 51.7016C57.3496 48.2389 55.9129 45.015 53.7578 42.6269L54.2367 40.4777L50.4054 39.5224L50.2857 40.1195C48.4898 39.1642 46.4544 38.6866 44.2993 38.6866C42.2639 38.6866 40.468 39.1642 38.7918 39.8807L38.3129 39.5224L34.4816 40.4777L34.9605 42.2687C32.4462 44.6568 30.8898 48.0001 30.8898 51.7016C30.8898 54.9254 32.087 57.7911 34.0027 60.0598H30.2911C29.2136 58.2687 28.3755 56.2389 28.136 54.0896L25.3823 53.612C25.1428 53.015 25.1428 52.418 25.1428 51.7016C25.1428 50.7463 25.2626 49.7911 25.3823 48.8359L28.2557 48.4777C28.6149 46.9254 29.0938 45.3732 29.9319 44.0598L28.0163 41.9105C28.7347 40.7165 29.5728 39.6419 30.5306 38.6866L33.0449 40.0001C34.2421 38.9254 35.5591 37.9702 36.9959 37.2538L36.6367 34.3881C37.834 33.9105 39.151 33.4329 40.468 33.1941L41.785 35.7016C42.5034 35.5822 43.3415 35.5822 44.0598 35.5822C45.0177 35.5822 45.9755 35.7016 46.8136 35.821L48.0108 33.3135Z" fill="#00AEEF"/>
<path fill-rule="evenodd" clip-rule="evenodd" d="M51.8421 41.791L50.7646 52.5373V52.6567L50.0462 54.3283L49.9265 54.4477L47.5319 56.7164C48.0108 57.4328 48.37 58.2686 48.37 59.1045H47.6516C47.6516 58.2686 47.2924 57.4328 46.6938 56.8358C46.0952 56.2388 45.2571 55.8806 44.419 55.8806C43.4612 55.8806 42.7428 56.2388 42.1441 56.8358C41.5455 57.4328 41.1863 58.2686 41.1863 59.1045H40.468C40.468 58.1492 40.8271 57.4328 41.3061 56.7164L38.9115 54.4477L38.7918 54.3283L38.0734 52.6567V52.5373L36.9958 41.791L37.7142 41.6716L38.7918 52.4179L39.3904 53.9701L39.7496 54.3283C39.7496 54.2089 39.8693 54.0895 39.8693 53.9701C40.1088 53.4925 40.468 53.1343 41.0666 52.8955V51.7015C41.0666 51.3433 41.1863 50.8657 41.5455 50.6269C41.785 50.388 42.1441 50.1492 42.6231 50.1492H46.2149C46.5741 50.1492 47.053 50.2686 47.2924 50.6269C47.5319 50.8657 47.7714 51.2239 47.7714 51.7015V52.8955C47.8911 52.8955 48.0108 53.0149 48.1305 53.0149C48.6095 53.2537 48.9686 53.7313 49.0884 54.3283L49.4475 53.9701L50.0462 52.4179L51.1237 41.6716L51.8421 41.791ZM47.053 56.2388L48.4897 54.9254C48.4897 54.4477 48.2503 53.9701 47.7714 53.7313C47.6516 53.7313 47.6516 53.6119 47.5319 53.6119C47.4122 53.6119 47.2924 53.6119 47.2924 53.6119H41.785C41.3061 53.6119 40.8271 53.9701 40.7074 54.3283C40.7074 54.4477 40.5877 54.5671 40.5877 54.5671C40.5877 54.6865 40.5877 54.806 40.5877 54.9254L42.0244 56.2388C42.7428 55.6418 43.7006 55.2836 44.6584 55.2836C45.4965 55.1642 46.3346 55.6418 47.053 56.2388ZM40.5877 49.0746H48.2503V49.791H40.5877V49.0746ZM46.2149 50.8657H42.6231C42.3836 50.8657 42.2639 50.9851 42.0244 51.1045C41.9047 51.2239 41.785 51.4627 41.785 51.7015V52.7761H47.053V51.7015C47.053 51.4627 46.9333 51.2239 46.8135 51.1045C46.6938 50.9851 46.4544 50.8657 46.2149 50.8657Z" fill="#ED1C24"/>
<path fill-rule="evenodd" clip-rule="evenodd" d="M51.2434 27.3432C50.2856 29.0149 46.3346 28.5372 42.3835 26.1492C38.5522 23.7611 36.1577 20.5373 37.1155 18.8656C38.0733 17.194 42.0243 17.6716 45.9754 20.0596C49.8067 22.3283 52.2012 25.5522 51.2434 27.3432ZM51.2434 18.7462C50.2856 17.0746 46.3346 17.5522 42.3835 19.9402C38.5522 22.3283 36.1577 25.5522 37.1155 27.2238C38.0733 28.8955 42.0243 28.4178 45.9754 26.0298C49.8067 23.7611 52.2012 20.5372 51.2434 18.7462ZM43.94 14.8059C42.0243 14.8059 40.4679 18.5074 40.5876 23.0447C40.7073 27.582 42.3835 31.2835 44.2992 31.2835C46.2148 31.2835 47.7713 27.582 47.6516 23.0447C47.6516 18.5074 45.9754 14.8059 43.94 14.8059Z" stroke="black" stroke-width="0.5669" stroke-miterlimit="10"/>
<path d="M44.1796 24.1195C44.7747 24.1195 45.2572 23.6383 45.2572 23.0448C45.2572 22.4513 44.7747 21.9702 44.1796 21.9702C43.5845 21.9702 43.1021 22.4513 43.1021 23.0448C43.1021 23.6383 43.5845 24.1195 44.1796 24.1195Z" fill="black"/>
<path fill-rule="evenodd" clip-rule="evenodd" d="M40.5878 12.0597L41.785 8.23878L38.6721 5.97012H42.5034L43.9401 1.79102L45.4966 5.97012H49.3279L46.215 8.23878L47.4123 12.0597L43.9401 9.79101L40.5878 12.0597Z" fill="#FFF200"/>
<path fill-rule="evenodd" clip-rule="evenodd" d="M27.4177 82.9851L29.3334 78.209L30.2912 78.5672L28.7347 82.5075L31.1293 83.4627L30.7701 84.2985L27.4177 82.9851ZM33.2844 79.7612L35.0803 80.2388C35.3198 80.2388 35.5592 80.3582 35.6789 80.3582H35.7987H35.9184H36.0381H36.1579C36.3973 80.4776 36.6368 80.7165 36.7565 80.9553C36.8762 81.1941 36.996 81.5523 36.996 81.9105C36.996 82.2687 36.996 82.6269 36.8762 83.1045C36.7565 83.4627 36.6368 83.8209 36.3973 84.1791C36.1579 84.5373 35.9184 84.7761 35.6789 84.8955C35.4395 85.015 35.2 85.1344 34.8409 85.1344H34.7211H34.4817H34.2422H34.0028L32.0871 84.7761L32.566 82.6269L32.0871 82.3881L32.2068 81.7911L32.6858 81.9105L33.2844 79.7612ZM34.1225 80.8358L33.7633 82.1493L34.8409 82.3881L34.7211 82.9851L33.6436 82.7463L33.2844 84.0597L34.0028 84.1791C34.3619 84.2985 34.6014 84.2985 34.7211 84.2985C34.9606 84.2985 35.0803 84.1791 35.2 84.0597C35.4395 83.8209 35.5592 83.4627 35.6789 82.9851C35.7987 82.6269 35.7987 82.2687 35.7987 82.1493C35.7987 81.9105 35.6789 81.7911 35.6789 81.6717C35.5592 81.5523 35.4395 81.4329 35.3198 81.3135L35.2 81.1941H35.0803L34.4817 81.0747L34.1225 80.8358ZM37.7143 84.5373L37.834 83.5821L39.7497 83.8209L39.63 84.7761L37.7143 84.5373ZM41.9048 86.3284L42.0245 82.0299H40.4681V81.1941L44.5388 81.3135V82.1493H42.9823L42.8626 86.4478L41.9048 86.3284ZM45.2572 81.1941L47.2926 81.0747C47.532 81.0747 47.6517 81.0747 47.7715 81.0747C47.8912 81.0747 48.0109 81.0747 48.1306 81.0747C48.3701 81.0747 48.4898 81.1941 48.7293 81.1941C48.849 81.3135 49.0885 81.4329 49.2082 81.5523C49.3279 81.6717 49.4477 81.9105 49.4477 82.1493C49.4477 82.3881 49.4477 82.6269 49.3279 82.8657C49.2082 83.1045 49.0885 83.2239 48.849 83.3433C49.2082 83.4627 49.4477 83.5821 49.5674 83.7015C49.8068 83.9403 49.8068 84.1791 49.9266 84.4179C49.9266 84.6567 49.9266 84.8956 49.8068 85.1344C49.6871 85.3732 49.5674 85.4926 49.4477 85.7314C49.3279 85.8508 49.0885 85.9702 48.7293 86.0896L48.2504 86.209C48.1306 86.209 47.8912 86.209 47.7715 86.209C47.6517 86.209 47.532 86.209 47.4123 86.209L45.6164 86.3284L45.2572 81.1941ZM46.3347 82.0299L46.4545 83.2239H47.1728H47.2926H47.4123H47.532H47.6517C47.7715 83.2239 47.7715 83.2239 47.8912 83.2239C48.0109 83.2239 48.2504 83.1045 48.2504 82.9851C48.3701 82.8657 48.3701 82.7463 48.3701 82.6269C48.3701 82.5075 48.2504 82.3881 48.2504 82.2687C48.1306 82.1493 48.0109 82.1493 47.8912 82.1493C47.7715 82.1493 47.4123 82.1493 47.0531 82.1493L46.3347 82.0299ZM46.5742 84.0597L46.6939 85.3732L47.6517 85.2538C48.0109 85.2538 48.2504 85.1344 48.3701 85.1344C48.4898 85.1344 48.6096 85.015 48.7293 84.8955C48.849 84.7761 48.849 84.6567 48.849 84.4179C48.849 84.2985 48.7293 84.1791 48.7293 84.0597C48.6096 83.9403 48.4898 83.9403 48.3701 83.8209C48.2504 83.8209 47.8912 83.8209 47.4123 83.8209L46.5742 84.0597ZM51.0041 85.8508L52.0817 82.8657L49.9266 80.8358L51.1238 80.597L52.5606 82.0299L53.1592 80.2388L54.3565 80L53.3987 82.7463L55.6735 84.8955L54.4762 85.1344L52.9198 83.5821L52.2014 85.612L51.0041 85.8508ZM56.8708 84.5373L54.9551 79.7612L55.913 79.403L56.6313 81.3135L58.547 80.597L57.8286 78.6866L58.7864 78.3284L60.7021 83.1045L59.7443 83.4627L58.7864 81.1941L56.8708 81.9105L57.7089 83.9403L56.8708 84.5373Z" fill="#ED1C24"/>
</g>
<defs>
<clipPath id="clip0">
<rect width="88" height="88" fill="white"/>
</clipPath>
</defs>
</svg>
